<?xml version="1.0" encoding="utf-8"?>
<!-- Generator: Adobe Illustrator 19.0.0, SVG Export Plug-In . SVG Version: 6.00 Build 0)  -->
<svg version="1.1" id="Layer_1" xmlns="http://www.w3.org/2000/svg" xmlns:xlink="http://www.w3.org/1999/xlink" x="0px" y="0px"
	 width="67.6px" height="24.9px" viewBox="0 0 67.6 24.9" style="enable-background:new 0 0 67.6 24.9;" xml:space="preserve">
<style type="text/css">
	.st0{fill:#FFFFFF;}
</style>
<g id="XMLID_110_">
	<path id="XMLID_112_" class="st0" d="M20.2,9.2c-0.7,2.3-1.4,4.3-2,6.3c-0.6,1.9-1.2,3.6-1.7,5.1c-0.2,0.6-0.5,1-0.8,1.1
		C15.5,21.9,15,22,14.4,22h-2.3c-0.6,0-1.1-0.1-1.4-0.2c-0.3-0.2-0.6-0.5-0.8-1.1c-0.5-1.4-1-3.1-1.7-5.1c-0.6-2-1.3-4.1-1.9-6.3
		H6.2c0,1.2-0.1,2.5-0.1,3.7c0,1.3,0,2.5-0.1,3.7c0,1.2,0,2.4,0,3.5c0,1.1,0,2.2,0,3.1c0,0.5-0.1,0.9-0.3,1
		c-0.2,0.2-0.6,0.2-1.2,0.2H1.5c-0.6,0-1-0.1-1.2-0.3c-0.2-0.2-0.3-0.5-0.3-1c0-1.7,0-3.5,0.1-5.3c0.1-1.8,0.1-3.7,0.2-5.5
		C0.4,10.7,0.5,8.8,0.6,7C0.6,5.3,0.7,3.6,0.8,2C0.9,1.2,1,0.6,1.3,0.4C1.6,0.1,2.1,0,2.7,0h3.6c0.9,0,1.5,0.1,1.9,0.4
		C8.7,0.6,9,1.1,9.2,1.8c0.4,1.4,0.8,2.7,1.1,3.9c0.3,1.2,0.6,2.3,1,3.4c0.3,1.1,0.6,2.1,0.9,3.1c0.3,1,0.6,2,0.9,3h0.3
		c0.3-1,0.6-2,0.9-3c0.3-1,0.6-2.1,1-3.1c0.3-1.1,0.7-2.2,1-3.4c0.3-1.2,0.7-2.5,1.1-3.8c0.2-0.7,0.5-1.2,0.9-1.4
		C18.7,0.1,19.3,0,20.2,0h3.7c0.7,0,1.2,0.1,1.4,0.4c0.3,0.3,0.4,0.8,0.5,1.6C25.9,3.6,26,5.3,26.1,7s0.2,3.6,0.2,5.5
		c0.1,1.8,0.1,3.7,0.2,5.5c0.1,1.8,0.1,3.6,0.1,5.3c0,0.5-0.1,0.8-0.3,1c-0.2,0.2-0.6,0.3-1.2,0.3H22c-0.6,0-1-0.1-1.2-0.2
		c-0.2-0.2-0.3-0.5-0.3-1c0-1,0-2,0-3.1c0-1.1,0-2.3,0-3.5c0-1.2,0-2.5-0.1-3.7c0-1.3-0.1-2.5-0.1-3.7H20.2z"/>
	<path id="XMLID_114_" class="st0" d="M42.3,23c-0.4,0.6-1,1-1.9,1.4c-0.9,0.3-1.9,0.5-3.1,0.5h-0.6c-1.9,0-3.4-0.5-4.5-1.5
		c-1.1-1-1.7-2.4-1.7-4.4v-0.4c0-2.1,0.6-3.6,1.8-4.4c1.2-0.8,3.1-1.2,5.7-1.2h0.3c0.5,0,1,0,1.5,0c0.5,0,0.9,0.1,1.2,0.1v-0.8
		c0-0.4,0-0.7-0.1-1s-0.3-0.5-0.5-0.7c-0.2-0.2-0.5-0.3-0.8-0.3c-0.3-0.1-0.8-0.1-1.4-0.1c-0.7,0-1.4,0.1-2.1,0.2
		c-0.8,0.1-1.5,0.3-2.3,0.5c-0.5,0.1-0.8,0.1-1,0c-0.2-0.1-0.3-0.4-0.3-0.7l-0.3-2c0-0.1,0-0.3-0.1-0.4c0-0.2,0-0.3,0-0.3
		c0-0.3,0.1-0.4,0.2-0.6c0.1-0.1,0.4-0.3,0.7-0.4c0.8-0.2,1.8-0.4,2.9-0.6c1.1-0.2,2.3-0.2,3.6-0.2c1.5,0,2.8,0.2,3.8,0.5
		c1,0.3,1.8,0.8,2.4,1.4c1,1,1.4,2.6,1.4,4.8v11.3c0,0.4-0.1,0.7-0.3,0.8c-0.2,0.2-0.5,0.2-1,0.2H44c-0.4,0-0.7-0.1-0.9-0.2
		c-0.2-0.1-0.3-0.3-0.5-0.7L42.3,23L42.3,23z M41,17.1C40.8,17,40.6,17,40.2,17c-0.4,0-0.7,0-1,0h-0.4c-0.9,0-1.5,0.1-1.9,0.3
		c-0.4,0.2-0.6,0.7-0.6,1.4v0.2c0,0.7,0.2,1.2,0.6,1.4c0.4,0.2,0.9,0.3,1.6,0.3h0.3c0.4,0,0.8-0.1,1.1-0.2c0.3-0.1,0.5-0.2,0.7-0.4
		c0.2-0.2,0.3-0.4,0.4-0.7c0.1-0.3,0.1-0.7,0.1-1.2V17.1z"/>
	<path id="XMLID_117_" class="st0" d="M61.5,7.1c0-0.4,0.1-0.6,0.3-0.8c0.2-0.2,0.5-0.3,1-0.3h3.5c0.5,0,0.8,0.1,1,0.3
		c0.2,0.2,0.3,0.5,0.3,0.8v11.2c0,1.2-0.1,2.2-0.4,3c-0.3,0.8-0.7,1.5-1.3,2c-0.7,0.6-1.6,1-2.6,1.3c-1.1,0.2-2.3,0.3-3.9,0.3
		s-2.8-0.1-3.9-0.3s-1.9-0.6-2.6-1.3c-0.6-0.5-1-1.2-1.3-2s-0.4-1.8-0.4-3V7.1c0-0.4,0.1-0.6,0.3-0.8C51.7,6.1,52,6,52.5,6H56
		c0.5,0,0.8,0.1,1,0.3s0.3,0.5,0.3,0.8v10.7c0,0.9,0.1,1.4,0.4,1.7c0.3,0.3,0.9,0.5,1.7,0.5c0.8,0,1.4-0.2,1.7-0.5
		c0.3-0.3,0.4-0.9,0.4-1.7V7.1z"/>
</g>
</svg>
