<?xml version="1.0" encoding="utf-8"?>
<!-- Generator: Adobe Illustrator 19.0.0, SVG Export Plug-In . SVG Version: 6.00 Build 0)  -->
<svg version="1.1" id="Layer_1" xmlns="http://www.w3.org/2000/svg" xmlns:xlink="http://www.w3.org/1999/xlink" x="0px" y="0px"
	 width="262.5px" height="33.7px" viewBox="0 0 262.5 33.7" style="enable-background:new 0 0 262.5 33.7;" xml:space="preserve">
<style type="text/css">
	.st0{fill:#FFFFFF;}
</style>
<g id="XMLID_110_">
	<path id="XMLID_113_" class="st0" d="M20.2,11.2c-0.7,2.3-1.4,4.3-2,6.3c-0.6,1.9-1.2,3.6-1.7,5.1c-0.2,0.6-0.5,1-0.8,1.1
		c-0.3,0.2-0.8,0.2-1.4,0.2h-2.3c-0.6,0-1.1-0.1-1.4-0.2c-0.3-0.2-0.6-0.5-0.8-1.1c-0.5-1.4-1-3.1-1.7-5.1c-0.6-2-1.3-4.1-1.9-6.3
		H6.2c0,1.2-0.1,2.5-0.1,3.7c0,1.3,0,2.5-0.1,3.7c0,1.2,0,2.4,0,3.5c0,1.1,0,2.2,0,3.1c0,0.5-0.1,0.9-0.3,1
		c-0.2,0.2-0.6,0.2-1.2,0.2H1.5c-0.6,0-1-0.1-1.2-0.3c-0.2-0.2-0.3-0.5-0.3-1c0-1.7,0-3.5,0.1-5.3c0.1-1.8,0.1-3.7,0.2-5.5
		c0.1-1.8,0.2-3.7,0.2-5.5C0.6,7.2,0.7,5.5,0.8,4C0.9,3.1,1,2.6,1.3,2.4C1.6,2.1,2.1,2,2.7,2h3.6c0.9,0,1.5,0.1,1.9,0.4
		C8.7,2.6,9,3.1,9.2,3.8c0.4,1.4,0.8,2.7,1.1,3.9c0.3,1.2,0.6,2.3,1,3.4c0.3,1.1,0.6,2.1,0.9,3.1c0.3,1,0.6,2,0.9,3h0.3
		c0.3-1,0.6-2,0.9-3c0.3-1,0.6-2.1,1-3.1c0.3-1.1,0.7-2.2,1-3.4c0.3-1.2,0.7-2.5,1.1-3.8c0.2-0.7,0.5-1.2,0.9-1.4
		C18.7,2.1,19.3,2,20.2,2h3.7c0.7,0,1.2,0.1,1.4,0.4c0.3,0.3,0.4,0.8,0.5,1.6C25.9,5.5,26,7.2,26.1,9s0.2,3.6,0.2,5.5
		c0.1,1.8,0.1,3.7,0.2,5.5c0.1,1.8,0.1,3.6,0.1,5.3c0,0.5-0.1,0.8-0.3,1c-0.2,0.2-0.6,0.3-1.2,0.3H22c-0.6,0-1-0.1-1.2-0.2
		c-0.2-0.2-0.3-0.5-0.3-1c0-1,0-2,0-3.1c0-1.1,0-2.3,0-3.5c0-1.2,0-2.5-0.1-3.7c0-1.3-0.1-2.5-0.1-3.7H20.2z"/>
	<path id="XMLID_115_" class="st0" d="M42.3,25c-0.4,0.6-1,1-1.9,1.4c-0.9,0.3-1.9,0.5-3.1,0.5h-0.6c-1.9,0-3.4-0.5-4.5-1.5
		c-1.1-1-1.7-2.4-1.7-4.4v-0.4c0-2.1,0.6-3.6,1.8-4.4c1.2-0.8,3.1-1.2,5.7-1.2h0.3c0.5,0,1,0,1.5,0c0.5,0,0.9,0.1,1.2,0.1v-0.8
		c0-0.4,0-0.7-0.1-1s-0.3-0.5-0.5-0.7c-0.2-0.2-0.5-0.3-0.8-0.3c-0.3-0.1-0.8-0.1-1.4-0.1c-0.7,0-1.4,0.1-2.1,0.2
		c-0.8,0.1-1.5,0.3-2.3,0.5c-0.5,0.1-0.8,0.1-1,0c-0.2-0.1-0.3-0.4-0.3-0.7l-0.3-2c0-0.1,0-0.3-0.1-0.4c0-0.2,0-0.3,0-0.3
		c0-0.3,0.1-0.4,0.2-0.6c0.1-0.1,0.4-0.3,0.7-0.4c0.8-0.2,1.8-0.4,2.9-0.6c1.1-0.2,2.3-0.2,3.6-0.2c1.5,0,2.8,0.2,3.8,0.5
		c1,0.3,1.8,0.8,2.4,1.4c1,1,1.4,2.6,1.4,4.8v11.3c0,0.4-0.1,0.7-0.3,0.8c-0.2,0.2-0.5,0.2-1,0.2H44c-0.4,0-0.7-0.1-0.9-0.2
		c-0.2-0.1-0.3-0.3-0.5-0.7L42.3,25L42.3,25z M41,19.1C40.8,19,40.6,19,40.2,19c-0.4,0-0.7,0-1,0h-0.4c-0.9,0-1.5,0.1-1.9,0.3
		c-0.4,0.2-0.6,0.7-0.6,1.4v0.2c0,0.7,0.2,1.2,0.6,1.4c0.4,0.2,0.9,0.3,1.6,0.3h0.3c0.4,0,0.8-0.1,1.1-0.2c0.3-0.1,0.5-0.2,0.7-0.4
		c0.2-0.2,0.3-0.4,0.4-0.7C41,21,41,20.6,41,20.1V19.1z"/>
	<path id="XMLID_118_" class="st0" d="M61.5,9c0-0.4,0.1-0.6,0.3-0.8c0.2-0.2,0.5-0.3,1-0.3h3.5c0.5,0,0.8,0.1,1,0.3
		c0.2,0.2,0.3,0.5,0.3,0.8v11.2c0,1.2-0.1,2.2-0.4,3c-0.3,0.8-0.7,1.5-1.3,2c-0.7,0.6-1.6,1-2.6,1.3c-1.1,0.2-2.3,0.3-3.9,0.3
		s-2.8-0.1-3.9-0.3s-1.9-0.6-2.6-1.3c-0.6-0.5-1-1.2-1.3-2s-0.4-1.8-0.4-3V9c0-0.4,0.1-0.6,0.3-0.8c0.2-0.2,0.5-0.3,1-0.3H56
		c0.5,0,0.8,0.1,1,0.3s0.3,0.5,0.3,0.8v10.7c0,0.9,0.1,1.4,0.4,1.7c0.3,0.3,0.9,0.5,1.7,0.5c0.8,0,1.4-0.2,1.7-0.5
		c0.3-0.3,0.4-0.9,0.4-1.7V9z"/>
	<path id="XMLID_206_" class="st0" d="M94.5,3.2c0-0.5,0.1-0.9,0.2-1C94.9,2,95.2,2,95.8,2h3.7c0.6,0,1,0.1,1.1,0.2
		c0.1,0.1,0.2,0.5,0.2,1V18c0,1.7-0.2,3-0.5,4.1c-0.3,1-0.9,2-1.8,2.8c-1.5,1.4-4,2.1-7.4,2.1h-0.5c-1.8,0-3.3-0.2-4.5-0.5
		c-1.2-0.4-2.2-0.9-2.9-1.6c-0.9-0.8-1.5-1.8-1.8-2.9c-0.3-1.1-0.5-2.4-0.5-4V3.2c0-0.5,0.1-0.9,0.2-1C81.4,2,81.8,2,82.4,2h3.7
		c0.6,0,1,0.1,1.1,0.2c0.2,0.1,0.2,0.5,0.2,1v14.6c0,0.8,0.1,1.4,0.2,1.9c0.1,0.5,0.3,0.9,0.6,1.2c0.5,0.5,1.4,0.8,2.7,0.8h0.2
		c1.3,0,2.2-0.3,2.7-0.8c0.3-0.3,0.5-0.7,0.6-1.2s0.2-1.1,0.2-1.9V3.2z"/>
	<path id="XMLID_208_" class="st0" d="M116.5,25c-0.4,0.6-1,1-1.9,1.4c-0.9,0.3-1.9,0.5-3.1,0.5H111c-1.9,0-3.4-0.5-4.5-1.5
		c-1.1-1-1.7-2.4-1.7-4.4v-0.4c0-2.1,0.6-3.6,1.8-4.4c1.2-0.8,3.1-1.2,5.7-1.2h0.3c0.5,0,1,0,1.5,0c0.5,0,0.9,0.1,1.2,0.1v-0.8
		c0-0.4,0-0.7-0.1-1s-0.3-0.5-0.5-0.7c-0.2-0.2-0.5-0.3-0.8-0.3c-0.3-0.1-0.8-0.1-1.4-0.1c-0.7,0-1.4,0.1-2.1,0.2
		c-0.8,0.1-1.5,0.3-2.3,0.5c-0.5,0.1-0.8,0.1-1,0c-0.2-0.1-0.3-0.4-0.3-0.7l-0.3-2c0-0.1,0-0.3-0.1-0.4c0-0.2,0-0.3,0-0.3
		c0-0.3,0.1-0.4,0.2-0.6c0.1-0.1,0.4-0.3,0.7-0.4c0.8-0.2,1.8-0.4,2.9-0.6c1.1-0.2,2.3-0.2,3.6-0.2c1.5,0,2.8,0.2,3.8,0.5
		c1,0.3,1.8,0.8,2.4,1.4c1,1,1.4,2.6,1.4,4.8v11.3c0,0.4-0.1,0.7-0.3,0.8c-0.2,0.2-0.5,0.2-1,0.2h-1.8c-0.4,0-0.7-0.1-0.9-0.2
		c-0.2-0.1-0.3-0.3-0.5-0.7L116.5,25L116.5,25z M115.3,19.1c-0.2-0.1-0.5-0.1-0.9-0.1c-0.4,0-0.7,0-1,0H113c-0.9,0-1.5,0.1-1.9,0.3
		c-0.4,0.2-0.6,0.7-0.6,1.4v0.2c0,0.7,0.2,1.2,0.6,1.4c0.4,0.2,0.9,0.3,1.6,0.3h0.3c0.4,0,0.8-0.1,1.1-0.2c0.3-0.1,0.5-0.2,0.7-0.4
		c0.2-0.2,0.3-0.4,0.4-0.7c0.1-0.3,0.1-0.7,0.1-1.2V19.1z"/>
	<path id="XMLID_211_" class="st0" d="M136,7.6c2.2,0,3.8,0.5,4.8,1.6c0.5,0.5,0.9,1.2,1.1,1.9c0.2,0.8,0.3,1.8,0.3,3.1v11.3
		c0,0.4-0.1,0.6-0.3,0.8c-0.2,0.2-0.5,0.3-1,0.3h-3.5c-0.5,0-0.8-0.1-1-0.3s-0.3-0.5-0.3-0.8V14.7c0-0.9-0.1-1.4-0.4-1.7
		c-0.3-0.3-0.9-0.5-1.7-0.5h-0.2c-0.8,0-1.4,0.2-1.7,0.5c-0.3,0.3-0.4,0.9-0.4,1.7v10.8c0,0.4-0.1,0.6-0.3,0.8
		c-0.2,0.2-0.5,0.3-1,0.3H127c-0.5,0-0.8-0.1-1-0.3c-0.2-0.2-0.3-0.5-0.3-0.8V9c0-0.4,0.1-0.7,0.3-0.8c0.2-0.2,0.5-0.2,1-0.2h1.8
		c0.4,0,0.7,0.1,0.9,0.2c0.2,0.1,0.3,0.3,0.5,0.7l0.2,0.7h0.1c1.2-1.3,3-1.9,5.2-1.9H136z"/>
	<path id="XMLID_213_" class="st0" d="M154,24.8c-2.7,0-4.7-0.6-6-1.7c-1.4-1.2-2-3-2-5.6v-2.5c0-2.6,0.7-4.4,2-5.6
		c1.3-1.2,3.3-1.7,6-1.7h0.5c0.3-1.3,0.9-2.4,1.9-3.1c1-0.7,2.4-1.1,4.2-1.1h1.9c0.4,0,0.6,0.1,0.7,0.2c0.1,0.1,0.2,0.4,0.2,0.8v2.1
		c0,0.4-0.1,0.6-0.2,0.7c-0.2,0.1-0.4,0.2-0.7,0.2h-1.8c-0.5,0-0.8,0-1.1,0.1c-0.3,0.1-0.5,0.2-0.7,0.4c1.5,0.4,2.6,1.2,3.3,2.3
		c0.7,1.1,1,2.7,1,4.6v2.5c0,1.4-0.2,2.5-0.5,3.4c-0.3,0.9-0.9,1.6-1.7,2.1c1,0.5,1.7,1.2,2.3,2c0.6,0.8,0.9,1.7,0.9,2.7V28
		c0,1.7-0.7,3.1-2.1,4.1c-1.4,1-3.7,1.5-6.9,1.5h-0.7c-0.6,0-1.2,0-1.9-0.1c-0.7-0.1-1.3-0.2-2-0.3c-0.6-0.1-1.3-0.3-1.9-0.4
		c-0.6-0.2-1.2-0.3-1.7-0.6c-0.7-0.3-0.9-0.7-0.8-1.4l0.7-2.4c0.1-0.4,0.2-0.6,0.4-0.7c0.2-0.1,0.5-0.1,0.9,0c0.5,0.2,1,0.3,1.5,0.4
		c0.5,0.1,1.1,0.3,1.6,0.4c0.5,0.1,1,0.2,1.5,0.2c0.5,0.1,0.9,0.1,1.3,0.1h0.5c1.2,0,2-0.2,2.5-0.5c0.5-0.3,0.8-0.8,0.8-1.4v-0.1
		c0-0.7-0.4-1.4-1.1-2c-0.2,0-0.5,0-0.8,0.1c-0.3,0-0.7,0-1,0H154z M154.7,20.1c0.4,0,0.8-0.1,1.1-0.2c0.3-0.1,0.5-0.2,0.7-0.4
		c0.2-0.2,0.4-0.5,0.5-0.9c0.1-0.4,0.2-0.9,0.2-1.7v-1.5c0-0.8-0.1-1.3-0.2-1.7c-0.1-0.4-0.3-0.7-0.5-0.9c-0.2-0.2-0.4-0.3-0.7-0.4
		c-0.3-0.1-0.7-0.2-1.1-0.2h-0.3c-0.8,0-1.4,0.2-1.8,0.5c-0.2,0.2-0.4,0.5-0.5,0.9c-0.1,0.4-0.2,0.9-0.2,1.7v1.5
		c0,0.8,0.1,1.3,0.2,1.7c0.1,0.4,0.3,0.7,0.5,0.9c0.4,0.4,1,0.5,1.8,0.5H154.7z"/>
	<path id="XMLID_216_" class="st0" d="M176.1,7.1c-0.5,0-0.8-0.1-1-0.2c-0.2-0.2-0.2-0.5-0.2-0.9V3.2c0-0.5,0.1-0.8,0.2-1
		c0.2-0.1,0.5-0.2,1-0.2h16.4c0.5,0,0.8,0.1,1,0.2c0.2,0.1,0.2,0.5,0.2,1V6c0,0.5-0.1,0.8-0.2,0.9c-0.2,0.2-0.5,0.2-1,0.2h-5v18.2
		c0,0.5-0.1,0.8-0.3,1c-0.2,0.2-0.6,0.2-1.1,0.2h-3.6c-0.6,0-1-0.1-1.1-0.2c-0.2-0.2-0.3-0.5-0.3-1V7.1H176.1z"/>
	<path id="XMLID_218_" class="st0" d="M204.6,9c0-0.4,0.1-0.6,0.3-0.8c0.2-0.2,0.5-0.3,1-0.3h3.5c0.5,0,0.8,0.1,1,0.3
		c0.2,0.2,0.3,0.5,0.3,0.8v11.2c0,1.2-0.1,2.2-0.4,3c-0.3,0.8-0.7,1.5-1.3,2c-0.7,0.6-1.6,1-2.6,1.3c-1.1,0.2-2.3,0.3-3.9,0.3
		s-2.8-0.1-3.9-0.3s-1.9-0.6-2.6-1.3c-0.6-0.5-1-1.2-1.3-2s-0.4-1.8-0.4-3V9c0-0.4,0.1-0.6,0.3-0.8c0.2-0.2,0.5-0.3,1-0.3h3.5
		c0.5,0,0.8,0.1,1,0.3s0.3,0.5,0.3,0.8v10.7c0,0.9,0.1,1.4,0.4,1.7c0.3,0.3,0.9,0.5,1.7,0.5c0.8,0,1.4-0.2,1.7-0.5
		c0.3-0.3,0.4-0.9,0.4-1.7V9z"/>
	<path id="XMLID_220_" class="st0" d="M225.4,7.6c2.2,0,3.8,0.5,4.8,1.6c0.5,0.5,0.9,1.2,1.1,1.9c0.2,0.8,0.3,1.8,0.3,3.1v11.3
		c0,0.4-0.1,0.6-0.3,0.8c-0.2,0.2-0.5,0.3-1,0.3h-3.5c-0.5,0-0.8-0.1-1-0.3s-0.3-0.5-0.3-0.8V14.7c0-0.9-0.1-1.4-0.4-1.7
		c-0.3-0.3-0.9-0.5-1.7-0.5h-0.2c-0.8,0-1.4,0.2-1.7,0.5c-0.3,0.3-0.4,0.9-0.4,1.7v10.8c0,0.4-0.1,0.6-0.3,0.8
		c-0.2,0.2-0.5,0.3-1,0.3h-3.5c-0.5,0-0.8-0.1-1-0.3c-0.2-0.2-0.3-0.5-0.3-0.8V9c0-0.4,0.1-0.7,0.3-0.8c0.2-0.2,0.5-0.2,1-0.2h1.8
		c0.4,0,0.7,0.1,0.9,0.2c0.2,0.1,0.3,0.3,0.5,0.7l0.2,0.7h0.1c1.2-1.3,3-1.9,5.2-1.9H225.4z"/>
	<path id="XMLID_222_" class="st0" d="M246.9,25c-0.4,0.6-1,1-1.9,1.4c-0.9,0.3-1.9,0.5-3.1,0.5h-0.6c-1.9,0-3.4-0.5-4.5-1.5
		c-1.1-1-1.7-2.4-1.7-4.4v-0.4c0-2.1,0.6-3.6,1.8-4.4c1.2-0.8,3.1-1.2,5.7-1.2h0.3c0.5,0,1,0,1.5,0c0.5,0,0.9,0.1,1.2,0.1v-0.8
		c0-0.4,0-0.7-0.1-1s-0.3-0.5-0.5-0.7c-0.2-0.2-0.5-0.3-0.8-0.3c-0.3-0.1-0.8-0.1-1.4-0.1c-0.7,0-1.4,0.1-2.1,0.2
		c-0.8,0.1-1.5,0.3-2.3,0.5c-0.5,0.1-0.8,0.1-1,0c-0.2-0.1-0.3-0.4-0.3-0.7l-0.3-2c0-0.1,0-0.3-0.1-0.4c0-0.2,0-0.3,0-0.3
		c0-0.3,0.1-0.4,0.2-0.6c0.1-0.1,0.4-0.3,0.7-0.4c0.8-0.2,1.8-0.4,2.9-0.6c1.1-0.2,2.3-0.2,3.6-0.2c1.5,0,2.8,0.2,3.8,0.5
		c1,0.3,1.8,0.8,2.4,1.4c1,1,1.4,2.6,1.4,4.8v11.3c0,0.4-0.1,0.7-0.3,0.8c-0.2,0.2-0.5,0.2-1,0.2h-1.8c-0.4,0-0.7-0.1-0.9-0.2
		c-0.2-0.1-0.3-0.3-0.5-0.7L246.9,25L246.9,25z M245.6,19.1c-0.2-0.1-0.5-0.1-0.9-0.1c-0.4,0-0.7,0-1,0h-0.4c-0.9,0-1.5,0.1-1.9,0.3
		c-0.4,0.2-0.6,0.7-0.6,1.4v0.2c0,0.7,0.2,1.2,0.6,1.4c0.4,0.2,0.9,0.3,1.6,0.3h0.3c0.4,0,0.8-0.1,1.1-0.2c0.3-0.1,0.5-0.2,0.7-0.4
		c0.2-0.2,0.3-0.4,0.4-0.7c0.1-0.3,0.1-0.7,0.1-1.2V19.1z"/>
	<path id="XMLID_225_" class="st0" d="M258.9,6.5c-1.1,0-1.9-0.3-2.4-0.8c-0.5-0.5-0.7-1.3-0.7-2.3V3.2c0-1,0.2-1.8,0.7-2.3
		c0.5-0.5,1.3-0.8,2.4-0.8h0.5c1.1,0,1.9,0.3,2.4,0.8c0.5,0.5,0.7,1.3,0.7,2.3v0.2c0,1-0.2,1.8-0.7,2.3c-0.5,0.5-1.3,0.8-2.4,0.8
		H258.9z M262.2,25.5c0,0.4-0.1,0.6-0.3,0.8c-0.2,0.2-0.5,0.3-1,0.3h-3.5c-0.5,0-0.8-0.1-1-0.3s-0.3-0.5-0.3-0.8V9
		c0-0.4,0.1-0.6,0.3-0.8s0.5-0.3,1-0.3h3.5c0.5,0,0.8,0.1,1,0.3c0.2,0.2,0.3,0.5,0.3,0.8V25.5z"/>
</g>
</svg>
