<?xml version="1.0" encoding="utf-8"?>
<!-- Generator: Adobe Illustrator 19.0.0, SVG Export Plug-In . SVG Version: 6.00 Build 0)  -->
<svg version="1.1" id="Layer_1" xmlns="http://www.w3.org/2000/svg" xmlns:xlink="http://www.w3.org/1999/xlink" x="0px" y="0px"
	 width="108px" height="54px" viewBox="0 0 108 54" style="enable-background:new 0 0 108 54;" xml:space="preserve">
<style type="text/css">
	.st0{fill:#FFFFFF;stroke:#002DBB;stroke-miterlimit:10;}
	.st1{fill:#00B490;}
	.st2{fill:#014EA1;}
	.st3{fill:#014EA2;}
</style>
<g id="XMLID_1_">
	<path id="XMLID_393_" class="st0" d="M102.5,53.5h-97c-2.8,0-5-2.3-5-5v-43c0-2.8,2.3-5,5-5h97c2.8,0,5,2.3,5,5v43
		C107.5,51.3,105.3,53.5,102.5,53.5z"/>
	<g id="XMLID_4_">
		<g id="XMLID_114_">
			<path id="XMLID_115_" class="st1" d="M25.9,17.4c0,0.2,0,0.3-0.1,0.4c-0.1,0-0.2,0.1-0.4,0.1H24c-0.2,0-0.4,0-0.4-0.1
				c-0.1,0-0.1-0.2-0.1-0.4v-3.2h-2.7v3.2c0,0.2,0,0.3-0.1,0.4c-0.1,0-0.2,0.1-0.4,0.1H19c-0.2,0-0.3,0-0.4-0.1
				c-0.1,0-0.1-0.2-0.1-0.4V9.3c0-0.2,0-0.3,0.1-0.4c0.1,0,0.2-0.1,0.4-0.1h1.4c0.2,0,0.4,0,0.4,0.1c0.1,0,0.1,0.2,0.1,0.4v3.1h2.7
				V9.3c0-0.2,0-0.3,0.1-0.4c0.1,0,0.2-0.1,0.4-0.1h1.4c0.2,0,0.3,0,0.4,0.1c0.1,0,0.1,0.2,0.1,0.4V17.4z"/>
			<path id="XMLID_117_" class="st1" d="M31.2,17.3c-0.1,0.2-0.4,0.4-0.7,0.5c-0.3,0.1-0.7,0.2-1.1,0.2h-0.2c-0.7,0-1.3-0.2-1.7-0.5
				s-0.6-0.9-0.6-1.6v-0.2c0-0.8,0.2-1.3,0.7-1.6s1.1-0.4,2.1-0.4h0.1c0.2,0,0.4,0,0.6,0c0.2,0,0.3,0,0.4,0v-0.3c0-0.1,0-0.3,0-0.4
				c0-0.1-0.1-0.2-0.2-0.3c-0.1-0.1-0.2-0.1-0.3-0.1c-0.1,0-0.3,0-0.5,0c-0.2,0-0.5,0-0.8,0.1c-0.3,0-0.6,0.1-0.8,0.2
				c-0.2,0-0.3,0-0.4,0c-0.1-0.1-0.1-0.1-0.1-0.3l-0.1-0.7c0,0,0-0.1,0-0.2c0-0.1,0-0.1,0-0.1c0-0.1,0-0.2,0.1-0.2s0.1-0.1,0.3-0.1
				c0.3-0.1,0.7-0.2,1.1-0.2c0.4-0.1,0.9-0.1,1.3-0.1c0.6,0,1,0.1,1.4,0.2c0.4,0.1,0.7,0.3,0.9,0.5c0.4,0.4,0.5,0.9,0.5,1.7v4.2
				c0,0.1,0,0.2-0.1,0.3c-0.1,0.1-0.2,0.1-0.4,0.1h-0.7c-0.2,0-0.3,0-0.3-0.1s-0.1-0.1-0.2-0.3L31.2,17.3L31.2,17.3z M30.7,15.1
				c-0.1,0-0.2,0-0.3,0c-0.1,0-0.3,0-0.4,0h-0.2c-0.3,0-0.6,0-0.7,0.1c-0.1,0.1-0.2,0.3-0.2,0.5v0.1c0,0.3,0.1,0.4,0.2,0.5
				c0.1,0.1,0.3,0.1,0.6,0.1h0.1c0.2,0,0.3,0,0.4-0.1c0.1,0,0.2-0.1,0.3-0.1c0.1-0.1,0.1-0.2,0.2-0.3c0-0.1,0-0.2,0-0.4V15.1z"/>
			<path id="XMLID_206_" class="st1" d="M37.7,11.2V8.8c0-0.1,0-0.2,0.1-0.3c0.1-0.1,0.2-0.1,0.4-0.1h1.3c0.2,0,0.3,0,0.4,0.1
				C39.9,8.6,40,8.7,40,8.8v6.4c0,0.6,0,1-0.1,1.3c-0.1,0.3-0.2,0.6-0.4,0.8c-0.3,0.3-0.6,0.5-0.9,0.6S37.6,18,36.9,18h-0.2
				c-0.6,0-1.1-0.1-1.4-0.2c-0.3-0.1-0.6-0.3-0.9-0.5c-0.3-0.2-0.4-0.5-0.6-0.9s-0.2-0.9-0.2-1.4v-1.1c0-0.6,0-1.1,0.1-1.4
				c0.1-0.4,0.3-0.7,0.6-0.9c0.2-0.2,0.5-0.3,0.8-0.5c0.3-0.1,0.7-0.2,1.1-0.2h0.2c0.3,0,0.5,0,0.7,0.1C37.4,11,37.5,11.1,37.7,11.2
				L37.7,11.2z M37.7,13.6c0-0.2,0-0.4,0-0.5c0-0.1-0.1-0.2-0.1-0.3c-0.1-0.1-0.3-0.2-0.7-0.2h-0.1c-0.3,0-0.5,0.1-0.6,0.2
				C36,13,36,13.2,36,13.3c0,0.2,0,0.5,0,0.9v0.6c0,0.4,0,0.6,0,0.8c0,0.2,0.1,0.3,0.2,0.4c0.1,0.1,0.3,0.2,0.6,0.2h0.2
				c0.3,0,0.5-0.1,0.6-0.2c0.1-0.1,0.2-0.4,0.2-0.7V13.6z"/>
			<path id="XMLID_209_" class="st1" d="M42,10.5c-0.4,0-0.7-0.1-0.9-0.3C41,10,40.9,9.7,40.9,9.3V9.3c0-0.4,0.1-0.7,0.3-0.9
				c0.2-0.2,0.5-0.3,0.9-0.3h0.2c0.4,0,0.7,0.1,0.9,0.3c0.2,0.2,0.3,0.5,0.3,0.9v0.1c0,0.4-0.1,0.7-0.3,0.9
				c-0.2,0.2-0.5,0.3-0.9,0.3H42z M43.2,17.5c0,0.1,0,0.2-0.1,0.3c-0.1,0.1-0.2,0.1-0.4,0.1h-1.3c-0.2,0-0.3,0-0.4-0.1
				S41,17.6,41,17.5v-6c0-0.1,0-0.2,0.1-0.3c0.1-0.1,0.2-0.1,0.4-0.1h1.3c0.2,0,0.3,0,0.4,0.1c0.1,0.1,0.1,0.2,0.1,0.3V17.5z"/>
			<path id="XMLID_212_" class="st1" d="M48.3,17.3c-0.1,0.2-0.4,0.4-0.7,0.5C47.3,17.9,47,18,46.5,18h-0.2c-0.7,0-1.3-0.2-1.7-0.5
				S44,16.6,44,15.9v-0.2c0-0.8,0.2-1.3,0.7-1.6s1.1-0.4,2.1-0.4h0.1c0.2,0,0.4,0,0.6,0c0.2,0,0.3,0,0.4,0v-0.3c0-0.1,0-0.3,0-0.4
				c0-0.1-0.1-0.2-0.2-0.3c-0.1-0.1-0.2-0.1-0.3-0.1c-0.1,0-0.3,0-0.5,0c-0.2,0-0.5,0-0.8,0.1c-0.3,0-0.6,0.1-0.8,0.2
				c-0.2,0-0.3,0-0.4,0c-0.1-0.1-0.1-0.1-0.1-0.3l-0.1-0.7c0,0,0-0.1,0-0.2c0-0.1,0-0.1,0-0.1c0-0.1,0-0.2,0.1-0.2s0.1-0.1,0.3-0.1
				c0.3-0.1,0.7-0.2,1.1-0.2c0.4-0.1,0.9-0.1,1.3-0.1c0.6,0,1,0.1,1.4,0.2c0.4,0.1,0.7,0.3,0.9,0.5c0.4,0.4,0.5,0.9,0.5,1.7v4.2
				c0,0.1,0,0.2-0.1,0.3c-0.1,0.1-0.2,0.1-0.4,0.1H49c-0.2,0-0.3,0-0.3-0.1s-0.1-0.1-0.2-0.3L48.3,17.3L48.3,17.3z M47.9,15.1
				c-0.1,0-0.2,0-0.3,0c-0.1,0-0.3,0-0.4,0H47c-0.3,0-0.6,0-0.7,0.1c-0.1,0.1-0.2,0.3-0.2,0.5v0.1c0,0.3,0.1,0.4,0.2,0.5
				c0.1,0.1,0.3,0.1,0.6,0.1H47c0.2,0,0.3,0,0.4-0.1c0.1,0,0.2-0.1,0.3-0.1c0.1-0.1,0.1-0.2,0.2-0.3c0-0.1,0-0.2,0-0.4V15.1z"/>
			<path id="XMLID_215_" class="st1" d="M54.1,12.7c-0.3,0-0.5,0.1-0.6,0.2c-0.1,0.1-0.2,0.3-0.2,0.6v4c0,0.1,0,0.2-0.1,0.3
				c-0.1,0.1-0.2,0.1-0.4,0.1h-1.3c-0.2,0-0.3,0-0.4-0.1c-0.1-0.1-0.1-0.2-0.1-0.3V8.8c0-0.1,0-0.2,0.1-0.3c0.1-0.1,0.2-0.1,0.4-0.1
				h1.3c0.2,0,0.3,0,0.4,0.1c0.1,0.1,0.1,0.2,0.1,0.3v2.5h0c0.4-0.3,0.9-0.4,1.5-0.4h0c0.8,0,1.4,0.2,1.8,0.6
				c0.2,0.2,0.3,0.4,0.4,0.7c0.1,0.3,0.1,0.7,0.1,1.1v4.2c0,0.1,0,0.2-0.1,0.3c-0.1,0.1-0.2,0.1-0.4,0.1h-1.3c-0.2,0-0.3,0-0.4-0.1
				c-0.1-0.1-0.1-0.2-0.1-0.3v-4c0-0.3-0.1-0.5-0.2-0.6C54.7,12.8,54.5,12.7,54.1,12.7L54.1,12.7z"/>
			<path id="XMLID_217_" class="st1" d="M68.4,17.4c0,0.2,0,0.3-0.1,0.4c-0.1,0-0.2,0.1-0.4,0.1h-1.4c-0.2,0-0.4,0-0.4-0.1
				c-0.1,0-0.1-0.2-0.1-0.4v-3.2h-2.7v3.2c0,0.2,0,0.3-0.1,0.4c-0.1,0-0.2,0.1-0.4,0.1h-1.4c-0.2,0-0.3,0-0.4-0.1
				c-0.1,0-0.1-0.2-0.1-0.4V9.3c0-0.2,0-0.3,0.1-0.4c0.1,0,0.2-0.1,0.4-0.1h1.4c0.2,0,0.4,0,0.4,0.1c0.1,0,0.1,0.2,0.1,0.4v3.1h2.7
				V9.3c0-0.2,0-0.3,0.1-0.4c0.1,0,0.2-0.1,0.4-0.1h1.4c0.2,0,0.3,0,0.4,0.1c0.1,0,0.1,0.2,0.1,0.4V17.4z"/>
			<path id="XMLID_375_" class="st1" d="M73.7,17.3c-0.1,0.2-0.4,0.4-0.7,0.5c-0.3,0.1-0.7,0.2-1.1,0.2h-0.2c-0.7,0-1.3-0.2-1.7-0.5
				s-0.6-0.9-0.6-1.6v-0.2c0-0.8,0.2-1.3,0.7-1.6s1.1-0.4,2.1-0.4h0.1c0.2,0,0.4,0,0.6,0c0.2,0,0.3,0,0.4,0v-0.3c0-0.1,0-0.3,0-0.4
				c0-0.1-0.1-0.2-0.2-0.3c-0.1-0.1-0.2-0.1-0.3-0.1c-0.1,0-0.3,0-0.5,0c-0.2,0-0.5,0-0.8,0.1c-0.3,0-0.6,0.1-0.8,0.2
				c-0.2,0-0.3,0-0.4,0c-0.1-0.1-0.1-0.1-0.1-0.3l-0.1-0.7c0,0,0-0.1,0-0.2c0-0.1,0-0.1,0-0.1c0-0.1,0-0.2,0.1-0.2s0.1-0.1,0.3-0.1
				c0.3-0.1,0.7-0.2,1.1-0.2c0.4-0.1,0.9-0.1,1.3-0.1c0.6,0,1,0.1,1.4,0.2c0.4,0.1,0.7,0.3,0.9,0.5c0.4,0.4,0.5,0.9,0.5,1.7v4.2
				c0,0.1,0,0.2-0.1,0.3c-0.1,0.1-0.2,0.1-0.4,0.1h-0.7c-0.2,0-0.3,0-0.3-0.1s-0.1-0.1-0.2-0.3L73.7,17.3L73.7,17.3z M73.2,15.1
				c-0.1,0-0.2,0-0.3,0c-0.1,0-0.3,0-0.4,0h-0.2c-0.3,0-0.6,0-0.7,0.1c-0.1,0.1-0.2,0.3-0.2,0.5v0.1c0,0.3,0.1,0.4,0.2,0.5
				c0.1,0.1,0.3,0.1,0.6,0.1h0.1c0.2,0,0.3,0,0.4-0.1c0.1,0,0.2-0.1,0.3-0.1c0.1-0.1,0.1-0.2,0.2-0.3c0-0.1,0-0.2,0-0.4V15.1z"/>
			<path id="XMLID_378_" class="st1" d="M78.3,11.8c0.2-0.3,0.4-0.5,0.6-0.6c0.2-0.1,0.6-0.2,1-0.2h0.6c0.1,0,0.3,0,0.3,0.1
				c0.1,0.1,0.1,0.2,0.1,0.3v1c0,0.2,0,0.3-0.1,0.3c-0.1,0.1-0.2,0.1-0.3,0.1H80c-0.5,0-0.9,0.1-1.1,0.3c-0.1,0.1-0.2,0.2-0.2,0.4
				c0,0.2,0,0.4,0,0.6v3.4c0,0.1,0,0.2-0.1,0.3c-0.1,0.1-0.2,0.1-0.4,0.1h-1.3c-0.2,0-0.3,0-0.4-0.1c-0.1-0.1-0.1-0.2-0.1-0.3v-6.1
				c0-0.1,0-0.2,0.1-0.3c0.1-0.1,0.2-0.1,0.4-0.1h0.7c0.2,0,0.3,0,0.3,0.1c0.1,0,0.1,0.1,0.2,0.3L78.3,11.8L78.3,11.8z"/>
			<path id="XMLID_380_" class="st1" d="M82.3,10.5c-0.4,0-0.7-0.1-0.9-0.3c-0.2-0.2-0.3-0.5-0.3-0.9V9.3c0-0.4,0.1-0.7,0.3-0.9
				c0.2-0.2,0.5-0.3,0.9-0.3h0.2c0.4,0,0.7,0.1,0.9,0.3c0.2,0.2,0.3,0.5,0.3,0.9v0.1c0,0.4-0.1,0.7-0.3,0.9
				c-0.2,0.2-0.5,0.3-0.9,0.3H82.3z M83.5,17.5c0,0.1,0,0.2-0.1,0.3c-0.1,0.1-0.2,0.1-0.4,0.1h-1.3c-0.2,0-0.3,0-0.4-0.1
				s-0.1-0.2-0.1-0.3v-6c0-0.1,0-0.2,0.1-0.3c0.1-0.1,0.2-0.1,0.4-0.1h1.3c0.2,0,0.3,0,0.4,0.1c0.1,0.1,0.1,0.2,0.1,0.3V17.5z"/>
			<path id="XMLID_396_" class="st1" d="M88.6,17.3c-0.1,0.2-0.4,0.4-0.7,0.5c-0.3,0.1-0.7,0.2-1.1,0.2h-0.2c-0.7,0-1.3-0.2-1.7-0.5
				s-0.6-0.9-0.6-1.6v-0.2c0-0.8,0.2-1.3,0.7-1.6s1.1-0.4,2.1-0.4h0.1c0.2,0,0.4,0,0.6,0c0.2,0,0.3,0,0.4,0v-0.3c0-0.1,0-0.3,0-0.4
				c0-0.1-0.1-0.2-0.2-0.3c-0.1-0.1-0.2-0.1-0.3-0.1c-0.1,0-0.3,0-0.5,0c-0.2,0-0.5,0-0.8,0.1c-0.3,0-0.6,0.1-0.8,0.2
				c-0.2,0-0.3,0-0.4,0c-0.1-0.1-0.1-0.1-0.1-0.3l-0.1-0.7c0,0,0-0.1,0-0.2c0-0.1,0-0.1,0-0.1c0-0.1,0-0.2,0.1-0.2s0.1-0.1,0.3-0.1
				c0.3-0.1,0.7-0.2,1.1-0.2c0.4-0.1,0.9-0.1,1.3-0.1c0.6,0,1,0.1,1.4,0.2c0.4,0.1,0.7,0.3,0.9,0.5c0.4,0.4,0.5,0.9,0.5,1.7v4.2
				c0,0.1,0,0.2-0.1,0.3c-0.1,0.1-0.2,0.1-0.4,0.1h-0.7c-0.2,0-0.3,0-0.3-0.1s-0.1-0.1-0.2-0.3L88.6,17.3L88.6,17.3z M88.2,15.1
				c-0.1,0-0.2,0-0.3,0c-0.1,0-0.3,0-0.4,0h-0.2c-0.3,0-0.6,0-0.7,0.1c-0.1,0.1-0.2,0.3-0.2,0.5v0.1c0,0.3,0.1,0.4,0.2,0.5
				c0.1,0.1,0.3,0.1,0.6,0.1h0.1c0.2,0,0.3,0,0.4-0.1c0.1,0,0.2-0.1,0.3-0.1c0.1-0.1,0.1-0.2,0.2-0.3c0-0.1,0-0.2,0-0.4V15.1z"/>
			<path id="XMLID_399_" class="st1" d="M95.2,10.9c0.8,0,1.4,0.2,1.8,0.6c0.2,0.2,0.3,0.4,0.4,0.7c0.1,0.3,0.1,0.7,0.1,1.1v4.2
				c0,0.1,0,0.2-0.1,0.3c-0.1,0.1-0.2,0.1-0.4,0.1h-1.3c-0.2,0-0.3,0-0.4-0.1c-0.1-0.1-0.1-0.2-0.1-0.3v-4c0-0.3-0.1-0.5-0.2-0.6
				c-0.1-0.1-0.3-0.2-0.6-0.2h-0.1c-0.3,0-0.5,0.1-0.6,0.2c-0.1,0.1-0.2,0.3-0.2,0.6v4c0,0.1,0,0.2-0.1,0.3
				c-0.1,0.1-0.2,0.1-0.4,0.1h-1.3c-0.2,0-0.3,0-0.4-0.1c-0.1-0.1-0.1-0.2-0.1-0.3v-6.1c0-0.1,0-0.2,0.1-0.3
				c0.1-0.1,0.2-0.1,0.4-0.1h0.7c0.2,0,0.3,0,0.3,0.1c0.1,0,0.1,0.1,0.2,0.3l0.1,0.3h0c0.4-0.5,1.1-0.7,1.9-0.7H95.2z"/>
		</g>
		<g id="XMLID_414_">
			<path id="XMLID_418_" class="st2" d="M27.8,23.6c0.4,0.2,0.7,0.4,0.7,0.8c0,0.1,0,0.2,0,0.3s-0.1,0.2-0.1,0.4l-0.5,1.9
				c-0.1,0.4-0.2,0.6-0.4,0.6c-0.2,0.1-0.4,0-0.8-0.1c-0.5-0.2-1-0.3-1.5-0.4c-0.5-0.1-1.1-0.1-1.7-0.1h-0.2c-1.1,0-1.9,0.3-2.6,0.9
				c-0.6,0.6-1,1.6-1.1,3c0.5-0.2,1.1-0.4,1.7-0.6c0.7-0.1,1.4-0.2,2.1-0.2h0.3c2,0,3.5,0.5,4.5,1.4c1,0.9,1.5,2.5,1.5,4.8v0.6
				c0,2.3-0.6,4-1.9,5.2c-1.3,1.2-3,1.7-5.3,1.7h-0.3c-1.6,0-2.8-0.2-3.9-0.6s-1.8-1.1-2.4-1.9c-0.6-0.8-1-1.8-1.2-3
				c-0.2-1.2-0.3-2.5-0.3-4v-0.8c0-3.8,0.8-6.5,2.4-8.2c0.7-0.8,1.6-1.4,2.6-1.8c1-0.4,2.2-0.6,3.4-0.6h0.2c0.8,0,1.7,0.1,2.6,0.2
				C26.5,23.2,27.2,23.4,27.8,23.6z M22.1,34.4c-0.5,0-1,0-1.4,0.1c-0.4,0.1-0.8,0.2-1.2,0.3v0.8c0,0.8,0.1,1.5,0.2,2.1
				c0.1,0.5,0.3,0.9,0.5,1.2c0.2,0.3,0.5,0.5,0.8,0.6c0.3,0.1,0.7,0.2,1.2,0.2h0.1c0.8,0,1.4-0.2,1.8-0.6c0.4-0.4,0.5-1,0.5-1.8
				v-0.7c0-0.8-0.2-1.4-0.5-1.8s-0.9-0.5-1.8-0.5H22.1z"/>
			<path id="XMLID_415_" class="st2" d="M45.3,23.6c0.4,0.2,0.7,0.4,0.7,0.8c0,0.1,0,0.2,0,0.3s-0.1,0.2-0.1,0.4l-0.5,1.9
				c-0.1,0.4-0.2,0.6-0.4,0.6c-0.2,0.1-0.4,0-0.8-0.1c-0.5-0.2-1-0.3-1.5-0.4c-0.5-0.1-1.1-0.1-1.7-0.1h-0.2c-1.1,0-1.9,0.3-2.6,0.9
				c-0.6,0.6-1,1.6-1.1,3c0.5-0.2,1.1-0.4,1.7-0.6c0.7-0.1,1.4-0.2,2.1-0.2h0.3c2,0,3.5,0.5,4.5,1.4c1,0.9,1.5,2.5,1.5,4.8v0.6
				c0,2.3-0.6,4-1.9,5.2c-1.3,1.2-3,1.7-5.3,1.7h-0.3c-1.6,0-2.8-0.2-3.9-0.6s-1.8-1.1-2.4-1.9c-0.6-0.8-1-1.8-1.2-3
				c-0.2-1.2-0.3-2.5-0.3-4v-0.8c0-3.8,0.8-6.5,2.4-8.2c0.7-0.8,1.6-1.4,2.6-1.8c1-0.4,2.2-0.6,3.4-0.6h0.2c0.8,0,1.7,0.1,2.6,0.2
				C44,23.2,44.7,23.4,45.3,23.6z M39.6,34.4c-0.5,0-1,0-1.4,0.1c-0.4,0.1-0.8,0.2-1.2,0.3v0.8c0,0.8,0.1,1.5,0.2,2.1
				c0.1,0.5,0.3,0.9,0.5,1.2c0.2,0.3,0.5,0.5,0.8,0.6c0.3,0.1,0.7,0.2,1.2,0.2h0.1c0.8,0,1.4-0.2,1.8-0.6c0.4-0.4,0.5-1,0.5-1.8
				v-0.7c0-0.8-0.2-1.4-0.5-1.8s-0.9-0.5-1.8-0.5H39.6z"/>
		</g>
		<g id="XMLID_408_">
			<path id="XMLID_409_" class="st3" d="M53.7,31.2c-0.2,0-0.4,0-0.6,0c-0.2,0-0.4,0-0.6-0.1S52,31,51.8,31c-0.2,0-0.4-0.1-0.5-0.1
				c-0.2-0.1-0.3-0.1-0.3-0.2c0-0.1-0.1-0.2,0-0.3l0.2-1c0-0.3,0.2-0.3,0.4-0.3c0.4,0.1,0.7,0.2,1.1,0.3c0.4,0.1,0.7,0.1,0.9,0.1
				h0.1c0.4,0,0.7-0.1,0.8-0.2c0.2-0.1,0.2-0.3,0.2-0.6v-0.1c0-0.3-0.1-0.4-0.2-0.5c-0.1-0.1-0.4-0.2-0.8-0.2l-0.9-0.2
				c-0.4-0.1-0.7-0.2-0.9-0.3c-0.2-0.1-0.4-0.3-0.6-0.5c-0.1-0.2-0.3-0.4-0.3-0.6C51,26,51,25.7,51,25.4v-0.4c0-0.7,0.2-1.3,0.6-1.6
				c0.2-0.2,0.6-0.4,1-0.5c0.4-0.1,0.9-0.2,1.6-0.2h0.1c0.4,0,0.8,0,1.2,0.1c0.4,0.1,0.7,0.1,1,0.2c0.1,0.1,0.2,0.1,0.3,0.2
				c0,0.1,0,0.2,0,0.4l-0.2,0.9c-0.1,0.2-0.2,0.3-0.5,0.2c-0.3-0.1-0.6-0.2-0.8-0.2s-0.5-0.1-0.8-0.1h-0.1c-0.4,0-0.7,0-0.9,0.1
				C53.1,24.8,53,25,53,25.2v0.1c0,0.2,0.1,0.3,0.2,0.4s0.3,0.2,0.7,0.2l1,0.2c0.4,0.1,0.7,0.2,0.9,0.3s0.5,0.2,0.6,0.4
				c0.2,0.2,0.3,0.4,0.3,0.6c0.1,0.3,0.1,0.6,0.1,1v0.3c0,0.8-0.2,1.5-0.7,1.9c-0.5,0.4-1.2,0.6-2.3,0.6H53.7z"/>
			<path id="XMLID_411_" class="st3" d="M61.3,30.6c-0.1,0.2-0.3,0.3-0.6,0.5c-0.3,0.1-0.6,0.2-1,0.2h-0.2c-0.6,0-1.1-0.2-1.5-0.5
				c-0.4-0.3-0.6-0.8-0.6-1.5v-0.1c0-0.7,0.2-1.2,0.6-1.5c0.4-0.3,1-0.4,1.9-0.4H60c0.2,0,0.3,0,0.5,0s0.3,0,0.4,0V27
				c0-0.1,0-0.2,0-0.3c0-0.1-0.1-0.2-0.2-0.2c-0.1-0.1-0.2-0.1-0.3-0.1s-0.3,0-0.5,0c-0.2,0-0.5,0-0.7,0.1c-0.3,0-0.5,0.1-0.8,0.2
				c-0.2,0-0.3,0-0.3,0c-0.1,0-0.1-0.1-0.1-0.2l-0.1-0.7c0,0,0-0.1,0-0.1c0-0.1,0-0.1,0-0.1c0-0.1,0-0.2,0.1-0.2s0.1-0.1,0.2-0.1
				c0.3-0.1,0.6-0.1,1-0.2c0.4-0.1,0.8-0.1,1.2-0.1c0.5,0,0.9,0.1,1.3,0.2s0.6,0.3,0.8,0.5c0.3,0.3,0.5,0.9,0.5,1.6v3.8
				c0,0.1,0,0.2-0.1,0.3c-0.1,0.1-0.2,0.1-0.3,0.1h-0.6c-0.1,0-0.2,0-0.3-0.1s-0.1-0.1-0.2-0.2L61.3,30.6L61.3,30.6z M60.8,28.6
				c-0.1,0-0.2,0-0.3,0c-0.1,0-0.2,0-0.3,0h-0.1c-0.3,0-0.5,0-0.6,0.1c-0.1,0.1-0.2,0.2-0.2,0.5v0.1c0,0.2,0.1,0.4,0.2,0.5
				c0.1,0.1,0.3,0.1,0.5,0.1h0.1c0.1,0,0.3,0,0.4-0.1s0.2-0.1,0.2-0.1c0.1-0.1,0.1-0.1,0.1-0.2c0-0.1,0-0.2,0-0.4V28.6z"/>
			<path id="XMLID_421_" class="st3" d="M69.2,30.7c0,0.1,0,0.2-0.1,0.3s-0.2,0.1-0.3,0.1h-1.2c-0.2,0-0.3,0-0.3-0.1
				c-0.1-0.1-0.1-0.2-0.1-0.3v-3.6c0-0.3,0-0.5-0.1-0.6c-0.1-0.1-0.3-0.2-0.6-0.2h0c-0.3,0-0.5,0.1-0.6,0.2
				c-0.1,0.1-0.1,0.3-0.1,0.6v3.6c0,0.1,0,0.2-0.1,0.3s-0.2,0.1-0.3,0.1h-1.2c-0.2,0-0.3,0-0.3-0.1s-0.1-0.2-0.1-0.3v-5.5
				c0-0.1,0-0.2,0.1-0.3c0.1-0.1,0.2-0.1,0.3-0.1h0.6c0.1,0,0.2,0,0.3,0.1s0.1,0.1,0.2,0.2l0.1,0.2h0c0.4-0.4,1-0.6,1.7-0.6h0.1
				c0.4,0,0.7,0,1,0.1c0.3,0.1,0.5,0.2,0.7,0.5c0.2-0.2,0.5-0.3,0.7-0.4c0.3-0.1,0.6-0.1,1-0.1h0.1c0.7,0,1.3,0.2,1.6,0.5
				c0.2,0.2,0.3,0.4,0.4,0.6c0.1,0.3,0.1,0.6,0.1,1v3.8c0,0.1,0,0.2-0.1,0.3c-0.1,0.1-0.2,0.1-0.3,0.1h-1.2c-0.2,0-0.3,0-0.3-0.1
				c-0.1-0.1-0.1-0.2-0.1-0.3v-3.6c0-0.3,0-0.5-0.1-0.6c-0.1-0.1-0.3-0.2-0.6-0.2h0c-0.3,0-0.5,0.1-0.6,0.2
				c-0.1,0.1-0.1,0.3-0.1,0.6V30.7z"/>
			<path id="XMLID_423_" class="st3" d="M73.4,26.8c0-0.6,0.2-1.1,0.5-1.4c0.4-0.4,1-0.6,1.9-0.6H76c0.1,0,0.3,0,0.5,0
				c0.2,0,0.3,0,0.5,0.1c0.2,0,0.3,0,0.5,0.1c0.2,0,0.3,0.1,0.4,0.1c0.1,0,0.2,0.1,0.2,0.1s0,0.1,0,0.2l-0.1,1
				c0,0.2-0.1,0.2-0.3,0.2c-0.2-0.1-0.4-0.1-0.7-0.1s-0.5-0.1-0.7-0.1h0c-0.3,0-0.5,0-0.6,0.1s-0.2,0.1-0.2,0.3v0
				c0,0.1,0.1,0.2,0.2,0.3c0.1,0.1,0.3,0.1,0.6,0.2l0.6,0.1c0.3,0.1,0.5,0.1,0.7,0.2c0.2,0.1,0.3,0.2,0.5,0.3
				c0.1,0.1,0.2,0.3,0.3,0.5c0.1,0.2,0.1,0.4,0.1,0.7v0.2c0,0.7-0.2,1.2-0.6,1.5c-0.4,0.3-1,0.5-1.9,0.5h-0.1c-0.2,0-0.4,0-0.6,0
				c-0.2,0-0.4,0-0.6-0.1c-0.2,0-0.4-0.1-0.5-0.1c-0.2,0-0.3-0.1-0.5-0.1c-0.1,0-0.2-0.1-0.2-0.2s0-0.2,0-0.3l0.2-0.8
				c0-0.2,0.2-0.3,0.4-0.2c0.2,0.1,0.5,0.1,0.8,0.2c0.3,0.1,0.5,0.1,0.8,0.1h0c0.3,0,0.5,0,0.6-0.1c0.1-0.1,0.2-0.2,0.2-0.3v0
				c0-0.1,0-0.2-0.1-0.2c-0.1-0.1-0.3-0.1-0.6-0.2l-0.6-0.1c-0.5-0.1-0.9-0.3-1.2-0.6c-0.2-0.3-0.4-0.6-0.4-1.2V26.8z"/>
			<path id="XMLID_425_" class="st3" d="M82.3,25.2c0-0.1,0-0.2,0.1-0.3s0.2-0.1,0.3-0.1h1.2c0.2,0,0.3,0,0.3,0.1s0.1,0.2,0.1,0.3
				V29c0,0.4,0,0.7-0.1,1c-0.1,0.3-0.2,0.5-0.4,0.7c-0.2,0.2-0.5,0.3-0.9,0.4s-0.8,0.1-1.3,0.1s-0.9,0-1.3-0.1s-0.6-0.2-0.9-0.4
				c-0.2-0.2-0.3-0.4-0.4-0.7c-0.1-0.3-0.1-0.6-0.1-1v-3.8c0-0.1,0-0.2,0.1-0.3s0.2-0.1,0.3-0.1h1.2c0.2,0,0.3,0,0.3,0.1
				s0.1,0.2,0.1,0.3v3.6c0,0.3,0,0.5,0.1,0.6c0.1,0.1,0.3,0.2,0.6,0.2s0.5-0.1,0.6-0.2c0.1-0.1,0.1-0.3,0.1-0.6V25.2z"/>
			<path id="XMLID_427_" class="st3" d="M88.7,24.8c0.7,0,1.3,0.2,1.6,0.5c0.2,0.2,0.3,0.4,0.4,0.6c0.1,0.3,0.1,0.6,0.1,1v3.8
				c0,0.1,0,0.2-0.1,0.3s-0.2,0.1-0.3,0.1h-1.2c-0.2,0-0.3,0-0.3-0.1c-0.1-0.1-0.1-0.2-0.1-0.3v-3.6c0-0.3,0-0.5-0.1-0.6
				c-0.1-0.1-0.3-0.2-0.6-0.2H88c-0.3,0-0.5,0.1-0.6,0.2c-0.1,0.1-0.1,0.3-0.1,0.6v3.6c0,0.1,0,0.2-0.1,0.3s-0.2,0.1-0.3,0.1h-1.2
				c-0.2,0-0.3,0-0.3-0.1s-0.1-0.2-0.1-0.3v-5.5c0-0.1,0-0.2,0.1-0.3c0.1-0.1,0.2-0.1,0.3-0.1h0.6c0.1,0,0.2,0,0.3,0.1
				s0.1,0.1,0.2,0.2l0.1,0.2h0c0.4-0.4,1-0.6,1.7-0.6H88.7z"/>
			<path id="XMLID_429_" class="st3" d="M94.1,30.5c-0.9,0-1.6-0.2-2-0.6c-0.5-0.4-0.7-1-0.7-1.9v-0.9c0-0.9,0.2-1.5,0.7-1.9
				c0.4-0.4,1.1-0.6,2-0.6h0.2c0.1-0.4,0.3-0.8,0.6-1s0.8-0.4,1.4-0.4h0.6c0.1,0,0.2,0,0.2,0.1c0,0,0.1,0.1,0.1,0.3v0.7
				c0,0.1,0,0.2-0.1,0.2c-0.1,0-0.1,0.1-0.2,0.1h-0.6c-0.2,0-0.3,0-0.4,0c-0.1,0-0.2,0.1-0.2,0.1c0.5,0.1,0.9,0.4,1.1,0.8
				c0.2,0.4,0.3,0.9,0.3,1.5v0.9c0,0.5-0.1,0.8-0.2,1.1s-0.3,0.5-0.6,0.7c0.3,0.2,0.6,0.4,0.8,0.7c0.2,0.3,0.3,0.6,0.3,0.9v0.1
				c0,0.6-0.2,1-0.7,1.4s-1.2,0.5-2.3,0.5h-0.2c-0.2,0-0.4,0-0.6,0c-0.2,0-0.4-0.1-0.7-0.1s-0.4-0.1-0.6-0.1
				c-0.2-0.1-0.4-0.1-0.6-0.2c-0.2-0.1-0.3-0.2-0.3-0.5l0.2-0.8c0-0.1,0.1-0.2,0.1-0.2s0.2,0,0.3,0c0.2,0.1,0.3,0.1,0.5,0.1
				c0.2,0,0.4,0.1,0.5,0.1c0.2,0,0.3,0.1,0.5,0.1c0.2,0,0.3,0,0.4,0h0.2c0.4,0,0.7-0.1,0.9-0.2c0.2-0.1,0.3-0.3,0.3-0.5v0
				c0-0.2-0.1-0.5-0.4-0.7c-0.1,0-0.2,0-0.3,0s-0.2,0-0.3,0H94.1z M94.4,28.9c0.1,0,0.3,0,0.4-0.1c0.1,0,0.2-0.1,0.2-0.1
				c0.1-0.1,0.1-0.2,0.2-0.3c0-0.1,0.1-0.3,0.1-0.6v-0.5c0-0.3,0-0.4-0.1-0.6c0-0.1-0.1-0.2-0.2-0.3c-0.1-0.1-0.1-0.1-0.2-0.1
				c-0.1,0-0.2-0.1-0.4-0.1h-0.1c-0.3,0-0.5,0.1-0.6,0.2c-0.1,0.1-0.1,0.2-0.2,0.3c0,0.1-0.1,0.3-0.1,0.6v0.5c0,0.3,0,0.4,0.1,0.6
				s0.1,0.2,0.2,0.3C93.8,28.9,94,28.9,94.4,28.9L94.4,28.9z"/>
		</g>
		<g id="XMLID_432_">
			<path id="XMLID_433_" class="st3" d="M50.5,38.7c0-0.6,0.1-1.1,0.2-1.5c0.1-0.4,0.3-0.8,0.6-1c0.3-0.3,0.6-0.5,1-0.6
				c0.4-0.1,1-0.2,1.6-0.2h0.1c0.2,0,0.5,0,0.7,0c0.2,0,0.5,0.1,0.7,0.1c0.2,0.1,0.4,0.1,0.7,0.2c0.2,0.1,0.4,0.1,0.5,0.2
				c0.1,0,0.1,0.1,0.2,0.1c0,0,0,0.1,0,0.1c0,0,0,0.1,0,0.1c0,0.1,0,0.1-0.1,0.2l-0.3,0.8c-0.1,0.2-0.2,0.3-0.4,0.2
				c-0.3-0.2-0.6-0.3-0.9-0.4c-0.3-0.1-0.6-0.1-1-0.1h-0.1c-0.6,0-0.9,0.2-1.2,0.5c-0.1,0.2-0.2,0.4-0.2,0.6c0,0.2-0.1,0.5-0.1,0.9
				v0.9c0,0.4,0,0.8,0.1,1c0,0.2,0.1,0.4,0.3,0.6c0.1,0.1,0.2,0.2,0.4,0.2c0.2,0,0.4,0.1,0.6,0.1h0.1c0.1,0,0.2,0,0.3,0
				c0.1,0,0.2,0,0.3,0c0.1,0,0.2,0,0.2-0.1c0,0,0-0.1,0-0.2v-1.1h-0.6c-0.1,0-0.2,0-0.3-0.1c0,0-0.1-0.1-0.1-0.3v-0.8
				c0-0.2,0-0.3,0.1-0.3c0,0,0.1-0.1,0.3-0.1h2.4c0.1,0,0.3,0,0.3,0.1C57,38.9,57,39,57,39.2v3.3c0,0.2,0,0.3-0.1,0.4
				c-0.1,0.1-0.2,0.2-0.3,0.2c-0.2,0.1-0.4,0.1-0.6,0.2c-0.2,0.1-0.4,0.1-0.7,0.1c-0.2,0-0.4,0.1-0.7,0.1c-0.2,0-0.4,0-0.6,0h-0.2
				c-0.7,0-1.2-0.1-1.6-0.2c-0.4-0.1-0.8-0.3-1-0.6c-0.3-0.3-0.5-0.6-0.6-1.1c-0.1-0.4-0.2-1-0.2-1.6V38.7z"/>
			<path id="XMLID_435_" class="st3" d="M61.5,42.9c-0.1,0.2-0.3,0.3-0.6,0.5s-0.6,0.2-1,0.2h-0.2c-0.6,0-1.1-0.2-1.5-0.5
				c-0.4-0.3-0.5-0.8-0.5-1.4v-0.1c0-0.7,0.2-1.2,0.6-1.4c0.4-0.3,1-0.4,1.8-0.4h0.1c0.2,0,0.3,0,0.5,0s0.3,0,0.4,0v-0.3
				c0-0.1,0-0.2,0-0.3c0-0.1-0.1-0.2-0.2-0.2c-0.1,0-0.2-0.1-0.3-0.1c-0.1,0-0.3,0-0.5,0c-0.2,0-0.4,0-0.7,0.1
				c-0.3,0-0.5,0.1-0.7,0.2c-0.2,0-0.3,0-0.3,0s-0.1-0.1-0.1-0.2l-0.1-0.7c0,0,0-0.1,0-0.1c0,0,0-0.1,0-0.1c0-0.1,0-0.1,0.1-0.2
				c0,0,0.1-0.1,0.2-0.1c0.3-0.1,0.6-0.1,0.9-0.2s0.8-0.1,1.2-0.1c0.5,0,0.9,0,1.2,0.1c0.3,0.1,0.6,0.3,0.8,0.5
				c0.3,0.3,0.5,0.8,0.5,1.5v3.7c0,0.1,0,0.2-0.1,0.3c-0.1,0.1-0.2,0.1-0.3,0.1h-0.6c-0.1,0-0.2,0-0.3-0.1c-0.1,0-0.1-0.1-0.2-0.2
				L61.5,42.9L61.5,42.9z M61.1,41c-0.1,0-0.2,0-0.3,0c-0.1,0-0.2,0-0.3,0h-0.1c-0.3,0-0.5,0-0.6,0.1c-0.1,0.1-0.2,0.2-0.2,0.5v0
				c0,0.2,0.1,0.4,0.2,0.5c0.1,0.1,0.3,0.1,0.5,0.1h0.1c0.1,0,0.3,0,0.4-0.1s0.2-0.1,0.2-0.1c0.1-0.1,0.1-0.1,0.1-0.2
				c0-0.1,0-0.2,0-0.4V41z"/>
			<path id="XMLID_438_" class="st3" d="M66.6,41.8c0.1,0,0.2,0,0.3,0.1s0.1,0.2,0.1,0.3V43c0,0.2,0,0.3-0.1,0.3
				c-0.1,0.1-0.1,0.1-0.3,0.1h-0.9c-0.6,0-1.1-0.1-1.3-0.4c-0.1-0.1-0.2-0.3-0.3-0.5C64,42.4,64,42.1,64,41.8v-6.4
				c0-0.1,0-0.2,0.1-0.3c0.1-0.1,0.2-0.1,0.3-0.1h1.1c0.2,0,0.3,0,0.3,0.1c0.1,0.1,0.1,0.2,0.1,0.3v6.2c0,0.1,0,0.2,0,0.2
				c0,0,0.1,0,0.2,0H66.6z"/>
			<path id="XMLID_440_" class="st3" d="M71,42.9c-0.1,0.2-0.3,0.3-0.6,0.5s-0.6,0.2-1,0.2h-0.2c-0.6,0-1.1-0.2-1.5-0.5
				c-0.4-0.3-0.5-0.8-0.5-1.4v-0.1c0-0.7,0.2-1.2,0.6-1.4c0.4-0.3,1-0.4,1.8-0.4h0.1c0.2,0,0.3,0,0.5,0s0.3,0,0.4,0v-0.3
				c0-0.1,0-0.2,0-0.3c0-0.1-0.1-0.2-0.2-0.2c-0.1,0-0.2-0.1-0.3-0.1c-0.1,0-0.3,0-0.5,0c-0.2,0-0.4,0-0.7,0.1
				c-0.3,0-0.5,0.1-0.7,0.2c-0.2,0-0.3,0-0.3,0s-0.1-0.1-0.1-0.2l-0.1-0.7c0,0,0-0.1,0-0.1c0,0,0-0.1,0-0.1c0-0.1,0-0.1,0.1-0.2
				c0,0,0.1-0.1,0.2-0.1c0.3-0.1,0.6-0.1,0.9-0.2s0.8-0.1,1.2-0.1c0.5,0,0.9,0,1.2,0.1c0.3,0.1,0.6,0.3,0.8,0.5
				c0.3,0.3,0.5,0.8,0.5,1.5v3.7c0,0.1,0,0.2-0.1,0.3c-0.1,0.1-0.2,0.1-0.3,0.1h-0.6c-0.1,0-0.2,0-0.3-0.1c-0.1,0-0.1-0.1-0.2-0.2
				L71,42.9L71,42.9z M70.6,41c-0.1,0-0.2,0-0.3,0c-0.1,0-0.2,0-0.3,0h-0.1c-0.3,0-0.5,0-0.6,0.1c-0.1,0.1-0.2,0.2-0.2,0.5v0
				c0,0.2,0.1,0.4,0.2,0.5c0.1,0.1,0.3,0.1,0.5,0.1h0.1c0.1,0,0.3,0,0.4-0.1s0.2-0.1,0.2-0.1c0.1-0.1,0.1-0.1,0.1-0.2
				c0-0.1,0-0.2,0-0.4V41z"/>
			<path id="XMLID_443_" class="st3" d="M75,43.1c-0.1,0.1-0.1,0.2-0.2,0.3c-0.1,0-0.2,0-0.3,0h-1.4c-0.1,0-0.2,0-0.3-0.1
				c0-0.1,0-0.2,0-0.3l1.3-2.4c0-0.1,0.1-0.1,0.1-0.1c0,0,0-0.1,0-0.1c0,0,0-0.1,0-0.1c0,0,0-0.1-0.1-0.1L73,37.8
				c-0.1-0.1-0.1-0.2,0-0.3c0-0.1,0.1-0.1,0.3-0.1h1.4c0.2,0,0.3,0,0.3,0c0.1,0,0.1,0.1,0.2,0.3l0.7,1.7c0,0,0,0,0.1,0h0
				c0,0,0.1,0,0.1,0l0.7-1.7c0.1-0.1,0.1-0.2,0.2-0.3c0.1,0,0.2,0,0.3,0h1.4c0.1,0,0.2,0,0.3,0.1c0,0.1,0,0.2,0,0.3l-1.2,2.3
				c0,0.1-0.1,0.1-0.1,0.1c0,0,0,0.1,0,0.1c0,0,0,0.1,0,0.1c0,0,0,0.1,0.1,0.1l1.3,2.4c0.1,0.1,0.1,0.2,0,0.3c0,0.1-0.1,0.1-0.3,0.1
				h-1.4c-0.2,0-0.3,0-0.3,0c-0.1,0-0.1-0.1-0.2-0.3L76,41.4c0,0,0,0-0.1,0h0c0,0-0.1,0-0.1,0L75,43.1z"/>
			<path id="XMLID_445_" class="st3" d="M84.6,37.7c-0.1,0.6-0.2,1.2-0.4,1.8c-0.2,0.6-0.4,1.3-0.6,2s-0.5,1.4-0.8,2.1
				c-0.3,0.7-0.6,1.4-1,2c0,0.1-0.1,0.2-0.2,0.2s-0.1,0.1-0.2,0.1c-0.1,0-0.2,0-0.4-0.1l-0.6-0.3c-0.2-0.1-0.3-0.2-0.3-0.3
				c0-0.1,0-0.1,0.1-0.2c0.1-0.1,0.1-0.3,0.2-0.4c0.1-0.1,0.1-0.3,0.2-0.4s0.1-0.3,0.2-0.4c0.1-0.1,0.1-0.2,0.1-0.3
				c-0.2-0.1-0.3-0.2-0.4-0.3s-0.2-0.3-0.4-0.6c-0.1-0.3-0.2-0.6-0.4-1c-0.1-0.4-0.3-0.9-0.4-1.3c-0.1-0.5-0.3-0.9-0.4-1.4
				s-0.2-0.9-0.3-1.2c0-0.2,0.1-0.4,0.4-0.4h1.1c0.1,0,0.2,0,0.3,0.1c0.1,0,0.1,0.1,0.1,0.2c0.1,0.3,0.1,0.7,0.2,1.1
				s0.2,0.7,0.2,1.1c0.1,0.4,0.2,0.7,0.3,1.1c0.1,0.3,0.2,0.7,0.3,1h0.1c0.1-0.3,0.2-0.6,0.3-1s0.2-0.7,0.3-1.1
				c0.1-0.4,0.2-0.7,0.2-1.1c0.1-0.4,0.1-0.7,0.2-0.9c0-0.1,0.1-0.2,0.1-0.3c0.1,0,0.2-0.1,0.3-0.1h1.1c0.1,0,0.2,0,0.3,0.1
				C84.6,37.5,84.6,37.6,84.6,37.7z"/>
			<path id="XMLID_447_" class="st3" d="M90.7,40.8c0,0.3,0,0.6,0,0.8c0,0.2,0,0.5-0.1,0.6c0,0.2-0.1,0.3-0.2,0.5S90.2,43,90,43.1
				c-0.2,0.2-0.5,0.3-0.8,0.3c-0.3,0-0.7,0.1-1.1,0.1h-0.8c-0.1,0-0.3,0-0.3-0.1c-0.1-0.1-0.1-0.2-0.1-0.3v-0.8c0-0.2,0-0.3,0.1-0.4
				s0.2-0.1,0.3-0.1h0.6c0.1,0,0.2,0,0.3,0c0.1,0,0.2,0,0.2-0.1c0.1-0.1,0.1-0.1,0.1-0.3c0-0.1,0-0.3,0-0.6v-4.9
				c0-0.2,0-0.3,0.1-0.3s0.2-0.1,0.4-0.1h1.2c0.2,0,0.3,0,0.4,0.1s0.1,0.1,0.1,0.3V40.8z"/>
			<path id="XMLID_449_" class="st3" d="M93.5,40.1c-0.2,0-0.3,0-0.3-0.1c0-0.1-0.1-0.2-0.1-0.3v-0.8c0-0.1,0-0.3,0.1-0.3
				s0.2-0.1,0.3-0.1h0.4c0.5,0,0.9-0.1,1.1-0.2c0.1-0.1,0.2-0.3,0.2-0.6v-0.1c0-0.2-0.1-0.4-0.2-0.5c-0.1-0.1-0.3-0.1-0.6-0.1h-0.1
				c-0.2,0-0.5,0-0.7,0.1c-0.3,0.1-0.6,0.2-1,0.3c-0.1,0-0.2,0-0.3,0c-0.1,0-0.1-0.1-0.1-0.2L92,36.3c0,0,0-0.1,0-0.1
				c0,0,0-0.1,0-0.1c0-0.1,0-0.1,0.1-0.2s0.1-0.1,0.2-0.1c0.1-0.1,0.3-0.1,0.5-0.2c0.2-0.1,0.4-0.1,0.6-0.1c0.2,0,0.4-0.1,0.6-0.1
				c0.2,0,0.4,0,0.6,0h0.1c0.8,0,1.5,0.2,1.9,0.5c0.4,0.3,0.6,0.8,0.6,1.5v0.1c0,0.4-0.1,0.8-0.2,1.1c-0.2,0.3-0.4,0.5-0.8,0.6v0
				c0.4,0.1,0.7,0.3,1,0.6c0.2,0.3,0.3,0.7,0.3,1.2v0.2c0,0.8-0.3,1.4-0.8,1.8c-0.5,0.4-1.3,0.6-2.3,0.6h-0.1c-0.2,0-0.4,0-0.7,0
				c-0.2,0-0.4,0-0.7-0.1s-0.4-0.1-0.6-0.1s-0.4-0.1-0.5-0.1c-0.2-0.1-0.3-0.2-0.3-0.3c0,0,0-0.1,0-0.2c0-0.1,0-0.1,0.1-0.2l0.2-0.6
				c0-0.1,0.1-0.2,0.1-0.2c0.1,0,0.2,0,0.3,0c0.3,0.1,0.7,0.2,1,0.2c0.3,0.1,0.6,0.1,0.9,0.1h0c0.4,0,0.7-0.1,0.9-0.2
				s0.3-0.4,0.3-0.7v-0.1c0-0.3-0.1-0.5-0.3-0.7s-0.5-0.2-0.9-0.2H93.5z"/>
		</g>
	</g>
</g>
</svg>
