<?xml version="1.0" encoding="utf-8"?>
<!-- Generator: Adobe Illustrator 19.0.0, SVG Export Plug-In . SVG Version: 6.00 Build 0)  -->
<svg version="1.1" id="Layer_1" xmlns="http://www.w3.org/2000/svg" xmlns:xlink="http://www.w3.org/1999/xlink" x="0px" y="0px"
	 width="88px" height="70.7px" viewBox="0 0 88 70.7" style="enable-background:new 0 0 88 70.7;" xml:space="preserve">
<style type="text/css">
	.st0{fill:#FFFFFF;}
	.st1{fill:#00D2A0;}
</style>
<g id="XMLID_1_">
	<path id="XMLID_3_" class="st0" d="M36,26.7l-3.4,3.9c0,0-0.2,0.2-0.3,0.2c-0.1,0-0.2,0-0.2-0.2L27,24.8c-3.2-3.7-3.7-4.3-6.9-4.3
		H2.3c-2.2,0-2.9,1.7-1.7,3.3c0.7,0.9,19,21.8,19,21.8c-2.7,3.1-18.2,21-19,21.9C-0.6,69,0,70.7,2.3,70.7h17.8
		c3.2,0,3.7-0.7,6.9-4.3l5.1-5.8c0.1-0.1,0.2-0.2,0.2-0.2h0c0.1,0,0.2,0,0.2,0.2l5.1,5.8c3.2,3.7,3.7,4.3,6.9,4.3h17.8
		c2.2,0,2.9-1.7,1.7-3.3c-0.1-0.2-0.9-1.1-2.1-2.5C62,65,39.9,50.6,36,26.7z"/>
	<path id="XMLID_2_" class="st1" d="M56.7,33.3V2.1C56.6,0,55.1-0.6,53,0.6L40.4,9.2c0,0-2.9,2-2.9,6.8C39.6,51.2,62,65,62,65
		c-0.9-1.7-1.6-2.8-2.3-4.1c-2.7-4.9-1.5-7.1,3.1-7.1H71c5.2,0,6.1,0,8.3-2.5c0,0,4.9-8.4,8.1-14.4c1.1-2.1,0.7-3.5-1.5-3.6H56.7z"
		/>
</g>
</svg>
