<?xml version="1.0" encoding="utf-8"?>
<!-- Generator: Adobe Illustrator 19.0.0, SVG Export Plug-In . SVG Version: 6.00 Build 0)  -->
<svg version="1.1" id="Layer_1" xmlns="http://www.w3.org/2000/svg" xmlns:xlink="http://www.w3.org/1999/xlink" x="0px" y="0px"
	 width="129px" height="38.7px" viewBox="-415 326.8 129 38.7" style="enable-background:new -415 326.8 129 38.7;"
	 xml:space="preserve">
<style type="text/css">
	.st0{fill:#FFF200;}
	.st1{fill:#002DBB;}
</style>
<g>
	<path id="XMLID_110_" class="st0" d="M-291,365.4h-119c-2.8,0-5-2.7-5-5.9v-26.9c0-3.3,2.3-5.9,5-5.9h119c2.8,0,5,2.7,5,5.9v26.9
		C-286,362.8-288.2,365.4-291,365.4z"/>
	<g id="XMLID_113_">
		<path id="XMLID_114_" class="st1" d="M-398.5,353.8h-3.1v-15.2h3.1v6.7l2.1-0.2l2.4-6.5h3.5l-3.3,7.6l3.4,7.6h-3.5l-2.5-6
			l-2.1,0.2V353.8z"/>
		<path id="XMLID_116_" class="st1" d="M-388.1,353.8v-15.6h3v15.6H-388.1z"/>
		<path id="XMLID_118_" class="st1" d="M-381.7,341.2v-3h3v3H-381.7z M-381.7,353.8v-11.2h3v11.2H-381.7z"/>
		<path id="XMLID_207_" class="st1" d="M-372.5,353.8h-3v-15.6h3v8.9l1.1-0.2l2.2-4.2h3.3l-2.9,5.3l3.1,5.9h-3.3l-2.3-4.4l-1.2,0.1
			V353.8z"/>
		<path id="XMLID_209_" class="st1" d="M-348.7,338.2v15.6h-3v-0.5c-1,0.5-1.9,0.7-2.7,0.7c-1.6,0-2.8-0.5-3.4-1.4s-1-2.4-1-4.5
			c0-2,0.4-3.5,1.1-4.4c0.8-0.9,1.9-1.4,3.5-1.4c0.5,0,1.1,0.1,2,0.2l0.4,0.1v-4.4H-348.7z M-352,351.1l0.3-0.1v-5.9
			c-0.8-0.1-1.5-0.2-2.2-0.2c-1.2,0-1.8,1.1-1.8,3.2c0,1.2,0.1,2,0.4,2.5c0.3,0.5,0.7,0.7,1.3,0.7S-352.7,351.3-352,351.1z"/>
		<path id="XMLID_212_" class="st1" d="M-345.5,341.2v-3h3v3H-345.5z M-345.5,353.8v-11.2h3v11.2H-345.5z"/>
		<path id="XMLID_215_" class="st1" d="M-329,341c-1.6,0-2.4,0.5-2.4,1.6c0,0.5,0.2,0.8,0.6,1.1c0.4,0.3,1.3,0.6,2.8,1.1
			s2.5,1,3.1,1.6s0.9,1.5,0.9,2.8c0,1.6-0.5,2.8-1.5,3.6c-1,0.8-2.2,1.2-3.8,1.2c-1.2,0-2.6-0.2-4.3-0.5l-0.8-0.2l0.3-2.4
			c2,0.3,3.5,0.4,4.6,0.4c1.6,0,2.4-0.7,2.4-2c0-0.5-0.2-0.8-0.5-1.1c-0.4-0.3-1.1-0.6-2.2-0.9c-1.7-0.5-2.9-1.1-3.6-1.8
			c-0.7-0.7-1.1-1.6-1.1-2.8c0-1.5,0.5-2.6,1.4-3.4c0.9-0.7,2.2-1.1,3.8-1.1c1.1,0,2.5,0.1,4.2,0.4l0.8,0.2l-0.2,2.4
			C-326.7,341.1-328.2,341-329,341z"/>
		<path id="XMLID_217_" class="st1" d="M-321.4,341.2v-3h3v3H-321.4z M-321.4,353.8v-11.2h3v11.2H-321.4z"/>
		<path id="XMLID_376_" class="st1" d="M-312.2,353.8h-3v-11.2h3v0.6c1-0.6,1.9-0.9,2.8-0.9c1.5,0,2.5,0.4,3.1,1.3
			c0.6,0.9,0.8,2.2,0.8,4.1v6h-3v-6c0-1-0.1-1.7-0.3-2.1c-0.2-0.5-0.7-0.7-1.3-0.7c-0.6,0-1.2,0.1-1.8,0.3l-0.3,0.1
			C-312.2,345.3-312.2,353.8-312.2,353.8z"/>
		<path id="XMLID_378_" class="st1" d="M-302.4,341.2v-3h3v3H-302.4z M-302.4,353.8v-11.2h3v11.2H-302.4z"/>
	</g>
</g>
</svg>
