<?xml version="1.0" encoding="utf-8"?>
<!-- Generator: Adobe Illustrator 19.0.0, SVG Export Plug-In . SVG Version: 6.00 Build 0)  -->
<svg version="1.1" id="Layer_1" xmlns="http://www.w3.org/2000/svg" xmlns:xlink="http://www.w3.org/1999/xlink" x="0px" y="0px"
	 width="267.6px" height="32.5px" viewBox="0 0 267.6 32.5" style="enable-background:new 0 0 267.6 32.5;" xml:space="preserve">
<style type="text/css">
	.st0{fill:#FFFFFF;}
</style>
<g id="XMLID_59_">
	<path id="XMLID_60_" class="st0" d="M20.2,10.4c-0.7,2.3-1.4,4.3-2,6.3c-0.6,1.9-1.2,3.6-1.7,5.1c-0.2,0.6-0.5,1-0.8,1.1
		c-0.3,0.2-0.8,0.2-1.4,0.2h-2.3c-0.6,0-1.1-0.1-1.4-0.2c-0.3-0.2-0.6-0.5-0.8-1.1c-0.5-1.4-1-3.1-1.7-5.1c-0.6-2-1.3-4.1-1.9-6.3
		H6.2c0,1.2-0.1,2.5-0.1,3.7c0,1.3,0,2.5-0.1,3.7c0,1.2,0,2.4,0,3.5c0,1.1,0,2.2,0,3.1c0,0.5-0.1,0.9-0.3,1
		c-0.2,0.2-0.6,0.2-1.2,0.2H1.5c-0.6,0-1-0.1-1.2-0.3c-0.2-0.2-0.3-0.5-0.3-1c0-1.7,0-3.5,0.1-5.3c0.1-1.8,0.1-3.7,0.2-5.5
		c0.1-1.8,0.2-3.7,0.2-5.5c0.1-1.8,0.2-3.5,0.3-5.1C0.9,2.3,1,1.8,1.3,1.5c0.3-0.3,0.7-0.4,1.4-0.4h3.6c0.9,0,1.5,0.1,1.9,0.4
		C8.7,1.8,9,2.3,9.2,3c0.4,1.4,0.8,2.7,1.1,3.9c0.3,1.2,0.6,2.3,1,3.4c0.3,1.1,0.6,2.1,0.9,3.1c0.3,1,0.6,2,0.9,3h0.3
		c0.3-1,0.6-2,0.9-3c0.3-1,0.6-2.1,1-3.1c0.3-1.1,0.7-2.2,1-3.4C16.6,5.6,17,4.3,17.4,3c0.2-0.7,0.5-1.2,0.9-1.4
		c0.4-0.3,1.1-0.4,1.9-0.4h3.7c0.7,0,1.2,0.1,1.4,0.4c0.3,0.3,0.4,0.8,0.5,1.6c0.1,1.6,0.2,3.3,0.3,5.1s0.2,3.6,0.2,5.5
		c0.1,1.8,0.1,3.7,0.2,5.5c0.1,1.8,0.1,3.6,0.1,5.3c0,0.5-0.1,0.8-0.3,1c-0.2,0.2-0.6,0.3-1.2,0.3H22c-0.6,0-1-0.1-1.2-0.2
		c-0.2-0.2-0.3-0.5-0.3-1c0-1,0-2,0-3.1c0-1.1,0-2.3,0-3.5c0-1.2,0-2.5-0.1-3.7c0-1.3-0.1-2.5-0.1-3.7H20.2z"/>
	<path id="XMLID_62_" class="st0" d="M42.3,24.2c-0.4,0.6-1,1-1.9,1.4c-0.9,0.3-1.9,0.5-3.1,0.5h-0.6c-1.9,0-3.4-0.5-4.5-1.5
		c-1.1-1-1.7-2.4-1.7-4.4v-0.4c0-2.1,0.6-3.6,1.8-4.4c1.2-0.8,3.1-1.2,5.7-1.2h0.3c0.5,0,1,0,1.5,0c0.5,0,0.9,0.1,1.2,0.1v-0.8
		c0-0.4,0-0.7-0.1-1s-0.3-0.5-0.5-0.7c-0.2-0.2-0.5-0.3-0.8-0.3c-0.3-0.1-0.8-0.1-1.4-0.1c-0.7,0-1.4,0.1-2.1,0.2
		c-0.8,0.1-1.5,0.3-2.3,0.5c-0.5,0.1-0.8,0.1-1,0c-0.2-0.1-0.3-0.4-0.3-0.7l-0.3-2c0-0.1,0-0.3-0.1-0.4c0-0.2,0-0.3,0-0.3
		c0-0.3,0.1-0.4,0.2-0.6c0.1-0.1,0.4-0.3,0.7-0.4c0.8-0.2,1.8-0.4,2.9-0.6c1.1-0.2,2.3-0.2,3.6-0.2c1.5,0,2.8,0.2,3.8,0.5
		c1,0.3,1.8,0.8,2.4,1.4c1,1,1.4,2.6,1.4,4.8v11.3c0,0.4-0.1,0.7-0.3,0.8c-0.2,0.2-0.5,0.2-1,0.2H44c-0.4,0-0.7-0.1-0.9-0.2
		c-0.2-0.1-0.3-0.3-0.5-0.7L42.3,24.2L42.3,24.2z M41,18.2c-0.2-0.1-0.5-0.1-0.9-0.1c-0.4,0-0.7,0-1,0h-0.4c-0.9,0-1.5,0.1-1.9,0.3
		c-0.4,0.2-0.6,0.7-0.6,1.4V20c0,0.7,0.2,1.2,0.6,1.4c0.4,0.2,0.9,0.3,1.6,0.3h0.3c0.4,0,0.8-0.1,1.1-0.2c0.3-0.1,0.5-0.2,0.7-0.4
		c0.2-0.2,0.3-0.4,0.4-0.7c0.1-0.3,0.1-0.7,0.1-1.2V18.2z"/>
	<path id="XMLID_65_" class="st0" d="M61.5,8.2c0-0.4,0.1-0.6,0.3-0.8c0.2-0.2,0.5-0.3,1-0.3h3.5c0.5,0,0.8,0.1,1,0.3
		c0.2,0.2,0.3,0.5,0.3,0.8v11.2c0,1.2-0.1,2.2-0.4,3c-0.3,0.8-0.7,1.5-1.3,2c-0.7,0.6-1.6,1-2.6,1.3c-1.1,0.2-2.3,0.3-3.9,0.3
		s-2.8-0.1-3.9-0.3s-1.9-0.6-2.6-1.3c-0.6-0.5-1-1.2-1.3-2s-0.4-1.8-0.4-3V8.2c0-0.4,0.1-0.6,0.3-0.8c0.2-0.2,0.5-0.3,1-0.3H56
		c0.5,0,0.8,0.1,1,0.3s0.3,0.5,0.3,0.8v10.7c0,0.9,0.1,1.4,0.4,1.7c0.3,0.3,0.9,0.5,1.7,0.5c0.8,0,1.4-0.2,1.7-0.5
		c0.3-0.3,0.4-0.9,0.4-1.7V8.2z"/>
	<path id="XMLID_67_" class="st0" d="M101.5,24.5c0,0.5-0.1,0.9-0.2,1c-0.2,0.1-0.5,0.2-1.1,0.2h-3.7c-0.6,0-1-0.1-1.1-0.2
		c-0.2-0.1-0.2-0.5-0.2-1V16h-7.3v8.6c0,0.5-0.1,0.9-0.2,1c-0.2,0.1-0.5,0.2-1.1,0.2h-3.8c-0.6,0-0.9-0.1-1.1-0.2
		c-0.1-0.1-0.2-0.5-0.2-1V2.3c0-0.5,0.1-0.9,0.2-1c0.2-0.1,0.5-0.2,1.1-0.2h3.7c0.6,0,1,0.1,1.1,0.2c0.2,0.1,0.2,0.5,0.2,1v8.5h7.3
		V2.3c0-0.5,0.1-0.9,0.2-1c0.2-0.1,0.5-0.2,1.1-0.2h3.7c0.6,0,0.9,0.1,1.1,0.2c0.2,0.1,0.2,0.5,0.2,1V24.5z"/>
	<path id="XMLID_69_" class="st0" d="M117.6,24.2c-0.4,0.6-1,1-1.9,1.4c-0.9,0.3-1.9,0.5-3.1,0.5H112c-1.9,0-3.4-0.5-4.5-1.5
		c-1.1-1-1.7-2.4-1.7-4.4v-0.4c0-2.1,0.6-3.6,1.8-4.4c1.2-0.8,3.1-1.2,5.7-1.2h0.3c0.5,0,1,0,1.5,0c0.5,0,0.9,0.1,1.2,0.1v-0.8
		c0-0.4,0-0.7-0.1-1s-0.3-0.5-0.5-0.7c-0.2-0.2-0.5-0.3-0.8-0.3c-0.3-0.1-0.8-0.1-1.4-0.1c-0.7,0-1.4,0.1-2.1,0.2
		c-0.8,0.1-1.5,0.3-2.3,0.5c-0.5,0.1-0.8,0.1-1,0c-0.2-0.1-0.3-0.4-0.3-0.7l-0.3-2c0-0.1,0-0.3-0.1-0.4c0-0.2,0-0.3,0-0.3
		c0-0.3,0.1-0.4,0.2-0.6c0.1-0.1,0.4-0.3,0.7-0.4c0.8-0.2,1.8-0.4,2.9-0.6c1.1-0.2,2.3-0.2,3.6-0.2c1.5,0,2.8,0.2,3.8,0.5
		c1,0.3,1.8,0.8,2.4,1.4c1,1,1.4,2.6,1.4,4.8v11.3c0,0.4-0.1,0.7-0.3,0.8c-0.2,0.2-0.5,0.2-1,0.2h-1.8c-0.4,0-0.7-0.1-0.9-0.2
		c-0.2-0.1-0.3-0.3-0.5-0.7L117.6,24.2L117.6,24.2z M116.3,18.2c-0.2-0.1-0.5-0.1-0.9-0.1c-0.4,0-0.7,0-1,0H114
		c-0.9,0-1.5,0.1-1.9,0.3c-0.4,0.2-0.6,0.7-0.6,1.4V20c0,0.7,0.2,1.2,0.6,1.4c0.4,0.2,0.9,0.3,1.6,0.3h0.3c0.4,0,0.8-0.1,1.1-0.2
		c0.3-0.1,0.5-0.2,0.7-0.4c0.2-0.2,0.3-0.4,0.4-0.7c0.1-0.3,0.1-0.7,0.1-1.2V18.2z"/>
	<path id="XMLID_72_" class="st0" d="M137.1,6.8c2.2,0,3.8,0.5,4.8,1.6c0.5,0.5,0.9,1.2,1.1,1.9c0.2,0.8,0.3,1.8,0.3,3.1v11.3
		c0,0.4-0.1,0.6-0.3,0.8c-0.2,0.2-0.5,0.3-1,0.3h-3.5c-0.5,0-0.8-0.1-1-0.3s-0.3-0.5-0.3-0.8V13.9c0-0.9-0.1-1.4-0.4-1.7
		c-0.3-0.3-0.9-0.5-1.7-0.5h-0.2c-0.8,0-1.4,0.2-1.7,0.5c-0.3,0.3-0.4,0.9-0.4,1.7v10.8c0,0.4-0.1,0.6-0.3,0.8
		c-0.2,0.2-0.5,0.3-1,0.3H128c-0.5,0-0.8-0.1-1-0.3c-0.2-0.2-0.3-0.5-0.3-0.8V8.2c0-0.4,0.1-0.7,0.3-0.8c0.2-0.2,0.5-0.2,1-0.2h1.8
		c0.4,0,0.7,0.1,0.9,0.2c0.2,0.1,0.3,0.3,0.5,0.7l0.2,0.7h0.1c1.2-1.3,3-1.9,5.2-1.9H137.1z"/>
	<path id="XMLID_74_" class="st0" d="M158.1,7.4V1.1c0-0.4,0.1-0.6,0.3-0.8c0.2-0.2,0.5-0.3,1-0.3h3.5c0.5,0,0.8,0.1,1,0.3
		c0.2,0.2,0.2,0.5,0.2,0.8v17.3c0,1.5-0.1,2.7-0.4,3.5c-0.3,0.8-0.6,1.5-1.1,2.1c-0.7,0.7-1.5,1.3-2.6,1.6c-1,0.3-2.5,0.5-4.3,0.5
		h-0.6c-1.6,0-2.9-0.1-3.8-0.4c-0.9-0.3-1.7-0.7-2.3-1.3c-0.7-0.6-1.2-1.4-1.5-2.5c-0.3-1.1-0.5-2.4-0.5-3.9v-3
		c0-1.6,0.1-2.9,0.4-3.9c0.3-1,0.8-1.8,1.5-2.5c0.5-0.5,1.2-0.9,2.1-1.3s1.9-0.5,2.9-0.5h0.5c0.7,0,1.4,0.1,2,0.2
		C157.1,7.1,157.6,7.2,158.1,7.4L158.1,7.4z M158.1,14.2c0-0.6,0-1-0.1-1.3c-0.1-0.3-0.2-0.5-0.3-0.7c-0.3-0.4-0.9-0.6-1.8-0.6h-0.4
		c-0.8,0-1.4,0.2-1.7,0.6c-0.3,0.3-0.4,0.7-0.5,1.2c-0.1,0.5-0.1,1.3-0.1,2.4v1.7c0,1,0,1.7,0.1,2.2c0.1,0.5,0.2,0.9,0.5,1.2
		c0.3,0.4,0.9,0.5,1.7,0.5h0.4c0.7,0,1.3-0.2,1.6-0.5c0.4-0.4,0.5-1,0.5-1.8V14.2z"/>
	<path id="XMLID_77_" class="st0" d="M173.2,8.7c0.7-0.7,1.5-1.2,2.4-1.5c0.9-0.3,2-0.4,3.2-0.4h0.3c1.2,0,2.2,0.2,3.1,0.6
		c0.9,0.4,1.5,0.8,2,1.4c0.5,0.6,0.8,1.3,1,2.2c0.2,0.9,0.3,2.2,0.3,4v2.9c0,1.5-0.1,2.8-0.3,3.8s-0.7,1.9-1.4,2.6
		c-0.7,0.7-1.5,1.2-2.3,1.4c-0.8,0.3-1.8,0.4-3,0.4h-0.4c-0.7,0-1.3-0.1-1.9-0.2c-0.6-0.1-1.2-0.3-1.6-0.6v5.9
		c0,0.6-0.1,0.9-0.3,1.1c-0.2,0.2-0.6,0.2-1.3,0.2h-2.9c-0.6,0-1.1-0.1-1.3-0.2c-0.2-0.2-0.3-0.5-0.3-1.1V8.3c0-0.5,0.1-0.8,0.3-1
		c0.2-0.2,0.5-0.3,1-0.3h1.6c0.5,0,0.8,0.1,1,0.2c0.2,0.1,0.3,0.3,0.4,0.6L173.2,8.7L173.2,8.7z M174.6,19c0,0.9,0.2,1.5,0.5,1.8
		c0.4,0.3,0.9,0.5,1.7,0.5h0.3c0.5,0,0.9-0.1,1.2-0.2c0.3-0.1,0.5-0.3,0.7-0.6c0.2-0.3,0.3-0.7,0.4-1.2c0.1-0.5,0.1-1.2,0.1-2.1
		v-1.6c0-0.9,0-1.6-0.1-2.1c0-0.5-0.2-1-0.4-1.3c-0.2-0.2-0.4-0.4-0.7-0.5c-0.3-0.1-0.7-0.2-1.2-0.2h-0.3c-0.5,0-0.8,0-1.1,0.1
		c-0.3,0.1-0.5,0.2-0.7,0.4c-0.2,0.2-0.3,0.4-0.4,0.7c-0.1,0.3-0.1,0.7-0.1,1.3V19z"/>
	<path id="XMLID_80_" class="st0" d="M197.8,11.6c-0.8,0-1.4,0.2-1.7,0.5c-0.3,0.3-0.4,0.9-0.4,1.7v10.8c0,0.4-0.1,0.6-0.3,0.8
		c-0.2,0.2-0.5,0.3-1,0.3h-3.5c-0.5,0-0.8-0.1-1-0.3c-0.2-0.2-0.3-0.5-0.3-0.8V1.1c0-0.4,0.1-0.6,0.3-0.8c0.2-0.2,0.5-0.3,1-0.3h3.5
		c0.5,0,0.8,0.1,1,0.3c0.2,0.2,0.3,0.5,0.3,0.8v6.7h0.1c1.1-0.7,2.5-1,4.1-1h0.1c2.2,0,3.8,0.5,4.8,1.6c0.5,0.5,0.9,1.2,1.1,1.9
		c0.2,0.8,0.3,1.8,0.3,3.1v11.3c0,0.4-0.1,0.6-0.3,0.8c-0.2,0.2-0.5,0.3-1,0.3h-3.5c-0.5,0-0.8-0.1-1-0.3s-0.3-0.5-0.3-0.8V13.9
		c0-0.9-0.1-1.4-0.4-1.7c-0.3-0.3-0.9-0.5-1.7-0.5H197.8z"/>
	<path id="XMLID_82_" class="st0" d="M226.9,17.6c0,1-0.1,1.8-0.2,2.5c-0.1,0.7-0.3,1.4-0.5,1.9c-0.2,0.5-0.5,1-0.7,1.4
		c-0.3,0.4-0.6,0.8-1,1.1c-0.6,0.4-1.3,0.8-2.3,1.1c-1,0.3-2.2,0.4-3.5,0.4h-0.5c-1.4,0-2.5-0.1-3.5-0.4c-1-0.3-1.8-0.6-2.3-1.1
		c-0.4-0.3-0.8-0.7-1-1.1c-0.3-0.4-0.5-0.9-0.7-1.4c-0.2-0.5-0.4-1.2-0.5-1.9c-0.1-0.7-0.2-1.6-0.2-2.5v-2.4c0-1,0.1-1.8,0.2-2.5
		c0.1-0.7,0.3-1.4,0.5-1.9c0.2-0.5,0.4-1,0.7-1.4c0.3-0.4,0.6-0.8,1-1.1c0.6-0.4,1.3-0.8,2.3-1.1c1-0.3,2.2-0.4,3.5-0.4h0.5
		c1.4,0,2.5,0.1,3.5,0.4c1,0.3,1.8,0.6,2.3,1.1c0.4,0.3,0.8,0.7,1,1.1c0.3,0.4,0.5,0.9,0.7,1.4c0.2,0.5,0.4,1.2,0.5,1.9
		c0.1,0.7,0.2,1.6,0.2,2.5V17.6z M216.1,17.9c0,0.8,0,1.5,0.1,1.9c0.1,0.4,0.3,0.7,0.6,1c0.4,0.4,0.9,0.5,1.6,0.5h0.2
		c0.7,0,1.2-0.2,1.6-0.5c0.3-0.3,0.5-0.6,0.6-1c0.1-0.4,0.1-1,0.1-1.9v-3c0-0.8,0-1.5-0.1-1.9c-0.1-0.4-0.3-0.7-0.6-1
		c-0.4-0.4-0.9-0.5-1.6-0.5h-0.2c-0.7,0-1.2,0.2-1.6,0.5c-0.3,0.3-0.5,0.6-0.6,1c-0.1,0.4-0.1,1-0.1,1.9V17.9z"/>
	<path id="XMLID_85_" class="st0" d="M241.3,6.8c2.2,0,3.8,0.5,4.8,1.6c0.5,0.5,0.9,1.2,1.1,1.9c0.2,0.8,0.3,1.8,0.3,3.1v11.3
		c0,0.4-0.1,0.6-0.3,0.8c-0.2,0.2-0.5,0.3-1,0.3h-3.5c-0.5,0-0.8-0.1-1-0.3s-0.3-0.5-0.3-0.8V13.9c0-0.9-0.1-1.4-0.4-1.7
		c-0.3-0.3-0.9-0.5-1.7-0.5h-0.2c-0.8,0-1.4,0.2-1.7,0.5c-0.3,0.3-0.4,0.9-0.4,1.7v10.8c0,0.4-0.1,0.6-0.3,0.8
		c-0.2,0.2-0.5,0.3-1,0.3h-3.5c-0.5,0-0.8-0.1-1-0.3c-0.2-0.2-0.3-0.5-0.3-0.8V8.2c0-0.4,0.1-0.7,0.3-0.8c0.2-0.2,0.5-0.2,1-0.2h1.8
		c0.4,0,0.7,0.1,0.9,0.2c0.2,0.1,0.3,0.3,0.5,0.7l0.2,0.7h0.1c1.2-1.3,3-1.9,5.2-1.9H241.3z"/>
	<path id="XMLID_87_" class="st0" d="M261.4,21.2c0.6,0,1.3-0.1,2.1-0.2c0.8-0.1,1.4-0.2,1.9-0.3c0.1,0,0.2-0.1,0.3-0.1
		c0.1,0,0.3,0,0.4,0c0.4,0,0.6,0.2,0.7,0.6l0.3,1.9c0.1,0.2,0.1,0.4,0.1,0.6c0,0.2,0,0.3,0,0.5c0,0.3-0.1,0.5-0.2,0.6
		c-0.1,0.2-0.4,0.3-0.8,0.4c-0.8,0.3-1.7,0.5-2.7,0.7c-1.1,0.2-2.1,0.2-3,0.2h-0.7c-1.5,0-2.8-0.2-4-0.5c-1.1-0.3-2-0.8-2.7-1.5
		c-0.8-0.8-1.3-1.7-1.5-2.7c-0.3-1-0.4-2.3-0.4-3.9v-2.1c0-1.9,0.2-3.4,0.6-4.5c0.4-1.1,1-1.9,1.6-2.5c1.3-1.1,3.3-1.7,6-1.7h0.5
		c1.4,0,2.5,0.2,3.5,0.5c1,0.3,1.7,0.8,2.2,1.4c0.7,0.7,1.1,1.6,1.4,2.7c0.3,1.1,0.4,2.4,0.4,4.1v2c0,0.4-0.1,0.7-0.3,0.8
		c-0.2,0.2-0.5,0.2-0.8,0.2h-9.1v0.3c0,0.9,0.3,1.5,0.8,1.8c0.5,0.3,1.4,0.5,2.8,0.5H261.4z M261.6,14.6c0.3,0,0.5-0.2,0.5-0.5v-0.6
		c0-0.8-0.1-1.3-0.4-1.7c-0.3-0.5-0.9-0.7-1.7-0.7h-0.3c-0.7,0-1.3,0.2-1.6,0.5c-0.4,0.4-0.6,1.1-0.6,2.1v1H261.6z"/>
</g>
</svg>
