<?xml version="1.0" encoding="utf-8"?>
<!-- Generator: Adobe Illustrator 19.0.0, SVG Export Plug-In . SVG Version: 6.00 Build 0)  -->
<svg version="1.1" id="Layer_1" xmlns="http://www.w3.org/2000/svg" xmlns:xlink="http://www.w3.org/1999/xlink" x="0px" y="0px"
	 width="215.7px" height="31.7px" viewBox="0 0 215.7 31.7" style="enable-background:new 0 0 215.7 31.7;" xml:space="preserve">
<style type="text/css">
	.st0{fill:#FFFFFF;}
</style>
<g id="XMLID_112_">
	<path id="XMLID_228_" class="st0" d="M6.4,23.8c0,0.5-0.1,0.9-0.2,1c-0.2,0.1-0.5,0.2-1.1,0.2H1.3c-0.6,0-0.9-0.1-1.1-0.2
		c-0.1-0.1-0.2-0.5-0.2-1v-22c0-0.5,0.1-0.9,0.3-1.1c0.2-0.2,0.5-0.3,1-0.4C2,0.2,2.9,0.1,4,0.1C5.1,0,6.3,0,7.6,0h0.8
		c2,0,3.6,0.2,4.9,0.5c1.3,0.3,2.4,0.9,3.2,1.7c0.6,0.6,1,1.3,1.3,2.1c0.3,0.8,0.5,1.8,0.5,3.1v0.8c0,1.3-0.1,2.4-0.4,3.3
		c-0.3,0.9-0.7,1.7-1.3,2.3c-0.7,0.8-1.7,1.4-2.9,1.8l4.8,8.1c0.2,0.4,0.2,0.7,0.1,0.9c-0.1,0.2-0.5,0.4-1,0.4H14
		c-0.7,0-1.1-0.1-1.4-0.2c-0.3-0.1-0.5-0.4-0.7-0.9l-3.8-7.3c-0.1-0.2-0.2-0.3-0.2-0.3c-0.1-0.1-0.2-0.1-0.4-0.1H6.4V23.8z M8.1,5.2
		c-0.2,0-0.4,0-0.6,0c-0.2,0-0.3,0-0.5,0c-0.2,0-0.4,0.1-0.5,0.2S6.4,5.6,6.4,5.9v5.2h2.5c0.7,0,1.2,0,1.5-0.1
		c0.4-0.1,0.7-0.2,0.9-0.5c0.4-0.4,0.6-1.2,0.6-2.2V7.8c0-0.5,0-0.8-0.1-1.1c-0.1-0.3-0.2-0.6-0.4-0.8c-0.4-0.5-1.3-0.7-2.6-0.7H8.1
		z"/>
	<path id="XMLID_231_" class="st0" d="M27.4,7.9c0.7-0.7,1.5-1.2,2.4-1.5c0.9-0.3,2-0.4,3.2-0.4h0.3c1.2,0,2.2,0.2,3.1,0.6
		c0.9,0.4,1.5,0.8,2,1.4c0.5,0.6,0.8,1.3,1,2.2c0.2,0.9,0.3,2.2,0.3,4V17c0,1.5-0.1,2.8-0.3,3.8s-0.7,1.9-1.4,2.6
		c-0.7,0.7-1.5,1.2-2.3,1.4c-0.8,0.3-1.8,0.4-3,0.4h-0.4c-0.7,0-1.3-0.1-1.9-0.2c-0.6-0.1-1.2-0.3-1.6-0.6v5.9
		c0,0.6-0.1,0.9-0.3,1.1c-0.2,0.2-0.6,0.2-1.3,0.2h-2.9c-0.6,0-1.1-0.1-1.3-0.2c-0.2-0.2-0.3-0.5-0.3-1.1V7.5c0-0.5,0.1-0.8,0.3-1
		c0.2-0.2,0.5-0.3,1-0.3h1.6c0.5,0,0.8,0.1,1,0.2c0.2,0.1,0.3,0.3,0.4,0.6L27.4,7.9L27.4,7.9z M28.8,18.2c0,0.9,0.2,1.5,0.5,1.8
		c0.4,0.3,0.9,0.5,1.7,0.5h0.3c0.5,0,0.9-0.1,1.2-0.2c0.3-0.1,0.5-0.3,0.7-0.6c0.2-0.3,0.3-0.7,0.4-1.2c0.1-0.5,0.1-1.2,0.1-2.1
		v-1.6c0-0.9,0-1.6-0.1-2.1c0-0.5-0.2-1-0.4-1.3c-0.2-0.2-0.4-0.4-0.7-0.5c-0.3-0.1-0.7-0.2-1.2-0.2h-0.3c-0.5,0-0.8,0-1.1,0.1
		c-0.3,0.1-0.5,0.2-0.7,0.4c-0.2,0.2-0.3,0.4-0.4,0.7c-0.1,0.3-0.1,0.7-0.1,1.3V18.2z"/>
	<path id="XMLID_234_" class="st0" d="M60.3,5.4c-0.4,0-0.5,0.2-0.5,0.5l-0.1,3.5c0.5-0.2,1.1-0.3,1.8-0.4c0.7-0.1,1.3-0.2,2-0.2
		h0.4c2.4,0,4.2,0.6,5.4,1.7c0.7,0.6,1.1,1.4,1.4,2.4c0.3,0.9,0.4,2.2,0.4,3.7v0.5c0,1.5-0.2,2.8-0.6,3.8c-0.4,1-1,1.8-1.8,2.5
		c-0.8,0.6-1.7,1.1-3,1.4c-1.2,0.3-2.6,0.5-4.1,0.5h-0.4c-0.6,0-1.2,0-1.8-0.1s-1.3-0.2-2-0.3c-0.7-0.1-1.3-0.3-2-0.4
		c-0.6-0.2-1.2-0.3-1.8-0.6c-0.5-0.2-0.8-0.5-0.8-0.9c0-0.1,0-0.3,0.1-0.4c0-0.2,0.1-0.4,0.1-0.6l0.5-1.9c0.2-0.6,0.4-0.9,0.6-1
		c0.3-0.1,0.6-0.1,0.9,0.1c0.9,0.3,1.9,0.6,2.9,0.8s2,0.3,2.9,0.3h0.4c1.1,0,2-0.2,2.7-0.7c0.3-0.2,0.5-0.5,0.7-0.9
		c0.2-0.4,0.2-0.9,0.2-1.6v-0.3c0-0.6-0.1-1-0.2-1.4c-0.1-0.4-0.3-0.7-0.6-1c-0.5-0.4-1.2-0.6-2.2-0.6h-0.2c-0.6,0-1.3,0.1-2.1,0.2
		c-0.8,0.2-1.6,0.4-2.3,0.7c-0.1,0.1-0.3,0.1-0.4,0.1c-0.1,0-0.3,0.1-0.4,0.1c-0.1,0-0.3,0-0.4-0.1c-0.2-0.1-0.3-0.2-0.4-0.2
		l-1.2-0.8c-0.2-0.1-0.3-0.3-0.4-0.4c-0.1-0.1-0.1-0.3-0.1-0.6c0-0.1,0-0.2,0-0.4s0-0.6,0.1-1.2l0.5-9.7c0-0.4,0.1-0.7,0.3-0.9
		c0.2-0.2,0.5-0.2,1-0.2H68c0.5,0,0.8,0.1,1,0.2c0.2,0.1,0.2,0.4,0.2,0.9v2.9c0,0.4-0.1,0.7-0.3,0.8c-0.2,0.1-0.5,0.2-1,0.2H60.3z"
		/>
	<path id="XMLID_236_" class="st0" d="M94.5,14.3c0,1.7-0.2,3.2-0.5,4.5c-0.3,1.4-0.9,2.5-1.6,3.5c-0.8,1-1.8,1.7-3,2.2
		s-2.8,0.8-4.6,0.8c-1.8,0-3.4-0.3-4.6-0.8c-1.3-0.5-2.3-1.3-3-2.2c-0.8-0.9-1.3-2.1-1.6-3.5C75.1,17.5,75,16,75,14.3V11
		c0-1.7,0.2-3.2,0.5-4.5c0.3-1.4,0.9-2.5,1.6-3.5c0.8-1,1.8-1.7,3-2.2C81.4,0.3,82.9,0,84.7,0c1.8,0,3.4,0.3,4.6,0.8
		c1.2,0.5,2.2,1.3,3,2.2c0.8,0.9,1.3,2.1,1.6,3.5c0.3,1.4,0.5,2.9,0.5,4.5V14.3z M88,11.6c0-1.2,0-2.2-0.1-3c-0.1-0.8-0.2-1.5-0.4-2
		c-0.2-0.5-0.6-0.9-1-1.1c-0.4-0.2-1-0.4-1.7-0.4h-0.2c-0.7,0-1.3,0.1-1.7,0.4c-0.4,0.3-0.7,0.6-1,1.2c-0.2,0.5-0.4,1.2-0.4,2
		c-0.1,0.8-0.1,1.8-0.1,3v2c0,1.2,0,2.2,0.1,3c0.1,0.8,0.2,1.5,0.4,2c0.2,0.5,0.6,0.9,1,1.2c0.4,0.3,1,0.4,1.7,0.4h0.2
		c0.7,0,1.3-0.1,1.7-0.4c0.4-0.2,0.7-0.6,1-1.1c0.2-0.5,0.4-1.2,0.4-2c0.1-0.8,0.1-1.8,0.1-3V11.6z"/>
	<path id="XMLID_239_" class="st0" d="M117.3,14.3c0,1.7-0.2,3.2-0.5,4.5c-0.3,1.4-0.9,2.5-1.6,3.5c-0.8,1-1.8,1.7-3,2.2
		s-2.8,0.8-4.6,0.8c-1.8,0-3.4-0.3-4.6-0.8c-1.3-0.5-2.3-1.3-3-2.2c-0.8-0.9-1.3-2.1-1.6-3.5c-0.3-1.4-0.5-2.9-0.5-4.5V11
		c0-1.7,0.2-3.2,0.5-4.5c0.3-1.4,0.9-2.5,1.6-3.5c0.8-1,1.8-1.7,3-2.2c1.3-0.5,2.8-0.8,4.6-0.8c1.8,0,3.4,0.3,4.6,0.8
		c1.2,0.5,2.2,1.3,3,2.2c0.8,0.9,1.3,2.1,1.6,3.5c0.3,1.4,0.5,2.9,0.5,4.5V14.3z M110.8,11.6c0-1.2,0-2.2-0.1-3
		c-0.1-0.8-0.2-1.5-0.4-2c-0.2-0.5-0.6-0.9-1-1.1c-0.4-0.2-1-0.4-1.7-0.4h-0.2c-0.7,0-1.3,0.1-1.7,0.4c-0.4,0.3-0.7,0.6-1,1.2
		c-0.2,0.5-0.4,1.2-0.4,2c-0.1,0.8-0.1,1.8-0.1,3v2c0,1.2,0,2.2,0.1,3c0.1,0.8,0.2,1.5,0.4,2c0.2,0.5,0.6,0.9,1,1.2
		c0.4,0.3,1,0.4,1.7,0.4h0.2c0.7,0,1.3-0.1,1.7-0.4c0.4-0.2,0.7-0.6,1-1.1c0.2-0.5,0.4-1.2,0.4-2c0.1-0.8,0.1-1.8,0.1-3V11.6z"/>
	<path id="XMLID_242_" class="st0" d="M140.4,16.8c0,1,0,1.9-0.1,2.6c-0.1,0.7-0.1,1.4-0.3,1.9c-0.1,0.5-0.3,1-0.6,1.4
		c-0.3,0.4-0.6,0.7-1,1c-0.7,0.5-1.6,0.8-2.6,1c-1,0.1-2.1,0.2-3.4,0.2h-2.5c-0.5,0-0.8-0.1-1-0.3c-0.2-0.2-0.3-0.5-0.3-1v-2.6
		c0-0.6,0.1-1,0.3-1.1c0.2-0.2,0.5-0.2,1-0.2h1.8c0.4,0,0.7,0,1,0c0.3,0,0.5-0.1,0.7-0.3c0.2-0.2,0.3-0.4,0.3-0.8
		c0-0.4,0.1-1,0.1-1.9V1.5c0-0.5,0.1-0.9,0.2-1c0.2-0.1,0.5-0.2,1.1-0.2h3.7c0.6,0,0.9,0.1,1.1,0.2c0.1,0.1,0.2,0.5,0.2,1V16.8z"/>
	<path id="XMLID_244_" class="st0" d="M155.3,7.4c0-0.4,0.1-0.6,0.3-0.8c0.2-0.2,0.5-0.3,1-0.3h3.5c0.5,0,0.8,0.1,1,0.3
		c0.2,0.2,0.3,0.5,0.3,0.8v11.2c0,1.2-0.1,2.2-0.4,3c-0.3,0.8-0.7,1.5-1.3,2c-0.7,0.6-1.6,1-2.6,1.3c-1.1,0.2-2.3,0.3-3.9,0.3
		s-2.8-0.1-3.9-0.3s-1.9-0.6-2.6-1.3c-0.6-0.5-1-1.2-1.3-2s-0.4-1.8-0.4-3V7.4c0-0.4,0.1-0.6,0.3-0.8c0.2-0.2,0.5-0.3,1-0.3h3.5
		c0.5,0,0.8,0.1,1,0.3s0.3,0.5,0.3,0.8v10.7c0,0.9,0.1,1.4,0.4,1.7c0.3,0.3,0.9,0.5,1.7,0.5c0.8,0,1.4-0.2,1.7-0.5
		c0.3-0.3,0.4-0.9,0.4-1.7V7.4z"/>
	<path id="XMLID_246_" class="st0" d="M177.6,23.5c0,0.6-0.1,0.9-0.2,1.1s-0.5,0.3-1,0.3h-3c-1.5,0-2.7-0.1-3.5-0.3
		c-0.8-0.2-1.4-0.6-1.9-1.1c-0.4-0.4-0.7-1-0.9-1.7c-0.2-0.7-0.2-1.7-0.2-2.9v-7.9h-2.1c-0.4,0-0.6-0.1-0.7-0.2
		c-0.1-0.1-0.2-0.4-0.2-0.7V8.2c0-0.5,0.1-0.8,0.2-0.9c0.1-0.1,0.4-0.3,0.8-0.4l2-0.5V2.7c0-0.4,0.1-0.6,0.3-0.8
		c0.2-0.2,0.5-0.3,1-0.3h3.5c0.5,0,0.8,0.1,1,0.3c0.2,0.2,0.3,0.5,0.3,0.8v3.6h3.2c0.4,0,0.6,0.1,0.8,0.2c0.2,0.1,0.2,0.4,0.2,0.9
		V10c0,0.5-0.1,0.8-0.2,0.9c-0.2,0.1-0.4,0.2-0.8,0.2h-3.2v7.2c0,0.3,0,0.6,0.1,0.8c0,0.2,0.1,0.4,0.2,0.5c0.1,0.1,0.3,0.2,0.5,0.3
		c0.2,0.1,0.5,0.1,1,0.1h1.7c0.5,0,0.8,0.1,1,0.3s0.2,0.6,0.2,1.1V23.5z"/>
	<path id="XMLID_248_" class="st0" d="M192.2,23.4c-0.4,0.6-1,1-1.9,1.4c-0.9,0.3-1.9,0.5-3.1,0.5h-0.6c-1.9,0-3.4-0.5-4.5-1.5
		c-1.1-1-1.7-2.4-1.7-4.4V19c0-2.1,0.6-3.6,1.8-4.4c1.2-0.8,3.1-1.2,5.7-1.2h0.3c0.5,0,1,0,1.5,0c0.5,0,0.9,0.1,1.2,0.1v-0.8
		c0-0.4,0-0.7-0.1-1s-0.3-0.5-0.5-0.7c-0.2-0.2-0.5-0.3-0.8-0.3c-0.3-0.1-0.8-0.1-1.4-0.1c-0.7,0-1.4,0.1-2.1,0.2
		c-0.8,0.1-1.5,0.3-2.3,0.5c-0.5,0.1-0.8,0.1-1,0c-0.2-0.1-0.3-0.4-0.3-0.7l-0.3-2c0-0.1,0-0.3-0.1-0.4c0-0.2,0-0.3,0-0.3
		c0-0.3,0.1-0.4,0.2-0.6c0.1-0.1,0.4-0.3,0.7-0.4c0.8-0.2,1.8-0.4,2.9-0.6C186.8,6,188,6,189.3,6c1.5,0,2.8,0.2,3.8,0.5
		c1,0.3,1.8,0.8,2.4,1.4c1,1,1.4,2.6,1.4,4.8v11.3c0,0.4-0.1,0.7-0.3,0.8c-0.2,0.2-0.5,0.2-1,0.2h-1.8c-0.4,0-0.7-0.1-0.9-0.2
		c-0.2-0.1-0.3-0.3-0.5-0.7L192.2,23.4L192.2,23.4z M190.9,17.4c-0.2-0.1-0.5-0.1-0.9-0.1c-0.4,0-0.7,0-1,0h-0.4
		c-0.9,0-1.5,0.1-1.9,0.3c-0.4,0.2-0.6,0.7-0.6,1.4v0.2c0,0.7,0.2,1.2,0.6,1.4c0.4,0.2,0.9,0.3,1.6,0.3h0.3c0.4,0,0.8-0.1,1.1-0.2
		c0.3-0.1,0.5-0.2,0.7-0.4c0.2-0.2,0.3-0.4,0.4-0.7c0.1-0.3,0.1-0.7,0.1-1.2V17.4z"/>
	<path id="XMLID_251_" class="st0" d="M208.6,16.9c0,0.5-0.3,0.7-0.9,0.7h-3c-0.6,0-0.9-0.3-0.9-0.8v-0.9c0-0.7,0-1.4,0.1-1.9
		c0.1-0.5,0.2-1,0.4-1.3s0.5-0.7,0.8-1c0.4-0.3,0.8-0.7,1.4-1l0.9-0.6c0.9-0.5,1.4-1,1.7-1.4c0.3-0.4,0.4-0.9,0.4-1.5V7
		c0-1.4-0.8-2.1-2.5-2.1H207c-0.7,0-1.4,0.1-2.3,0.3c-0.8,0.2-1.6,0.4-2.3,0.7c-0.3,0.1-0.6,0.1-0.7,0.1c-0.2-0.1-0.3-0.3-0.5-0.7
		l-0.7-2.2c-0.1-0.1-0.1-0.3-0.1-0.4c0-0.1,0-0.3,0-0.4c0-0.4,0.3-0.7,0.8-1c0.4-0.2,0.8-0.3,1.4-0.5c0.5-0.2,1.1-0.3,1.7-0.4
		c0.6-0.1,1.2-0.2,1.8-0.3c0.6-0.1,1.2-0.1,1.7-0.1h0.3c2.5,0,4.5,0.5,5.8,1.5c1.3,1,2,2.5,2,4.5v0.3c0,1.4-0.2,2.6-0.7,3.5
		c-0.5,0.9-1.4,1.8-2.7,2.6l-1.1,0.7c-1,0.6-1.6,1.1-2,1.5c-0.4,0.4-0.6,1-0.6,1.7V16.9z M206.2,25.3c-0.4,0-0.8-0.1-1.2-0.2
		c-0.4-0.1-0.7-0.3-1-0.5c-0.3-0.2-0.5-0.5-0.7-0.9c-0.2-0.4-0.3-0.8-0.3-1.4V22c0-1.2,0.3-2,1-2.4c0.6-0.4,1.4-0.6,2.3-0.6h0.1
		c0.4,0,0.8,0.1,1.2,0.2c0.4,0.1,0.7,0.3,1,0.5c0.3,0.2,0.5,0.5,0.7,0.9c0.2,0.4,0.3,0.9,0.3,1.5v0.3c0,0.6-0.1,1-0.3,1.4
		c-0.2,0.4-0.4,0.7-0.7,0.9c-0.3,0.2-0.6,0.4-1,0.5c-0.4,0.1-0.8,0.2-1.2,0.2H206.2z"/>
</g>
</svg>
