<?xml version="1.0" encoding="utf-8"?>
<!-- Generator: Adobe Illustrator 19.0.0, SVG Export Plug-In . SVG Version: 6.00 Build 0)  -->
<svg version="1.1" id="Layer_1" xmlns="http://www.w3.org/2000/svg" xmlns:xlink="http://www.w3.org/1999/xlink" x="0px" y="0px"
	 width="155.7px" height="26.9px" viewBox="0 0 155.7 26.9" style="enable-background:new 0 0 155.7 26.9;" xml:space="preserve">
<style type="text/css">
	.st0{fill:#FFFFFF;}
</style>
<g id="XMLID_110_">
	<path id="XMLID_113_" class="st0" d="M6.4,25.4c0,0.5-0.1,0.9-0.2,1c-0.2,0.1-0.5,0.2-1.1,0.2H1.3c-0.6,0-0.9-0.1-1.1-0.2
		c-0.2-0.1-0.2-0.5-0.2-1V3.2c0-0.5,0.1-0.9,0.2-1C0.4,2,0.7,2,1.3,2h3.7C5.6,2,6,2,6.2,2.2c0.2,0.1,0.2,0.5,0.2,1V25.4z"/>
	<path id="XMLID_115_" class="st0" d="M17.7,25.5c0,0.4-0.1,0.6-0.3,0.8c-0.2,0.2-0.5,0.3-1,0.3h-3.5c-0.5,0-0.8-0.1-1-0.3
		c-0.2-0.2-0.3-0.5-0.3-0.8V1.9c0-0.4,0.1-0.6,0.3-0.8c0.2-0.2,0.5-0.3,1-0.3h3.5c0.5,0,0.8,0.1,1,0.3c0.2,0.2,0.3,0.5,0.3,0.8v12.4
		h0.3l3.6-5.5c0.2-0.4,0.4-0.6,0.6-0.7c0.2-0.1,0.5-0.2,1-0.2h4.4c0.4,0,0.6,0.2,0.6,0.5c0,0.2-0.1,0.4-0.3,0.7l-4.4,6.5
		c-0.3,0.5-0.5,0.9-0.5,1.1c0,0.2,0,0.3,0.1,0.5c0.1,0.2,0.2,0.4,0.4,0.6l4.7,7.4c0.1,0.1,0.1,0.2,0.2,0.3c0,0.1,0.1,0.2,0.1,0.3
		c0,0.4-0.3,0.6-0.8,0.6h-4.2c-0.5,0-0.9-0.1-1.2-0.2c-0.2-0.1-0.5-0.4-0.7-0.8l-3.6-6.4h-0.3V25.5z"/>
	<path id="XMLID_117_" class="st0" d="M41.1,9c0-0.4,0.1-0.6,0.3-0.8c0.2-0.2,0.5-0.3,1-0.3h3.5c0.5,0,0.8,0.1,1,0.3
		c0.2,0.2,0.3,0.5,0.3,0.8v11.2c0,1.2-0.1,2.2-0.4,3c-0.3,0.8-0.7,1.5-1.3,2c-0.7,0.6-1.6,1-2.6,1.3c-1.1,0.2-2.3,0.3-3.9,0.3
		s-2.8-0.1-3.9-0.3s-1.9-0.6-2.6-1.3c-0.6-0.5-1-1.2-1.3-2s-0.4-1.8-0.4-3V9c0-0.4,0.1-0.6,0.3-0.8c0.2-0.2,0.5-0.3,1-0.3h3.5
		c0.5,0,0.8,0.1,1,0.3s0.3,0.5,0.3,0.8v10.7c0,0.9,0.1,1.4,0.4,1.7c0.3,0.3,0.9,0.5,1.7,0.5c0.8,0,1.4-0.2,1.7-0.5
		c0.3-0.3,0.4-0.9,0.4-1.7V9z"/>
	<path id="XMLID_205_" class="st0" d="M63.5,25.2c0,0.6-0.1,0.9-0.2,1.1s-0.5,0.3-1,0.3h-3c-1.5,0-2.7-0.1-3.5-0.3
		c-0.8-0.2-1.4-0.6-1.9-1.1c-0.4-0.4-0.7-1-0.9-1.7c-0.2-0.7-0.2-1.7-0.2-2.9v-7.9h-2.1c-0.4,0-0.6-0.1-0.7-0.2
		c-0.1-0.1-0.2-0.4-0.2-0.7V9.8c0-0.5,0.1-0.8,0.2-0.9c0.1-0.1,0.4-0.3,0.8-0.4l2-0.5V4.3c0-0.4,0.1-0.6,0.3-0.8
		c0.2-0.2,0.5-0.3,1-0.3h3.5c0.5,0,0.8,0.1,1,0.3c0.2,0.2,0.3,0.5,0.3,0.8v3.6h3.2c0.4,0,0.6,0.1,0.8,0.2c0.2,0.1,0.2,0.4,0.2,0.9
		v2.5c0,0.5-0.1,0.8-0.2,0.9c-0.2,0.1-0.4,0.2-0.8,0.2h-3.2v7.2c0,0.3,0,0.6,0.1,0.8c0,0.2,0.1,0.4,0.2,0.5c0.1,0.1,0.3,0.2,0.5,0.3
		c0.2,0.1,0.5,0.1,1,0.1h1.7c0.5,0,0.8,0.1,1,0.3s0.2,0.6,0.2,1.1V25.2z"/>
	<path id="XMLID_207_" class="st0" d="M70,6.5c-1.1,0-1.9-0.3-2.4-0.8c-0.5-0.5-0.7-1.3-0.7-2.3V3.2c0-1,0.2-1.8,0.7-2.3
		C68.1,0.3,68.9,0,70,0h0.5c1.1,0,1.9,0.3,2.4,0.8c0.5,0.5,0.7,1.3,0.7,2.3v0.2c0,1-0.2,1.8-0.7,2.3c-0.5,0.5-1.3,0.8-2.4,0.8H70z
		 M73.3,25.5c0,0.4-0.1,0.6-0.3,0.8c-0.2,0.2-0.5,0.3-1,0.3h-3.5c-0.5,0-0.8-0.1-1-0.3s-0.3-0.5-0.3-0.8V9c0-0.4,0.1-0.6,0.3-0.8
		s0.5-0.3,1-0.3H72c0.5,0,0.8,0.1,1,0.3c0.2,0.2,0.3,0.5,0.3,0.8V25.5z"/>
	<path id="XMLID_210_" class="st0" d="M93.9,25.4c0,0.5-0.1,0.9-0.2,1c-0.2,0.1-0.5,0.2-1.1,0.2h-3.7c-0.6,0-1-0.1-1.1-0.2
		c-0.2-0.1-0.2-0.5-0.2-1V3.2c0-0.5,0.1-0.9,0.2-1C87.9,2,88.2,2,88.8,2h3.7c0.6,0,1,0.1,1.1,0.2c0.2,0.1,0.2,0.5,0.2,1v8.3H94
		c0.2,0,0.3,0,0.4-0.1c0.1-0.1,0.2-0.2,0.3-0.4l5.2-7.9c0.2-0.4,0.5-0.6,0.7-0.7c0.3-0.1,0.7-0.2,1.2-0.2h4.2c1.3,0,1.6,0.5,1,1.4
		L100,13c-0.2,0.2-0.3,0.4-0.4,0.5c-0.1,0.1-0.1,0.2-0.1,0.4c0,0.1,0.1,0.3,0.2,0.4c0.1,0.1,0.2,0.3,0.3,0.5l7.1,10.7
		c0.5,0.8,0.1,1.2-1,1.2h-4c-0.7,0-1.1-0.1-1.4-0.2c-0.3-0.1-0.5-0.3-0.7-0.7l-5.1-8.5c-0.2-0.3-0.3-0.5-0.4-0.5
		c-0.1-0.1-0.2-0.1-0.4-0.1h-0.2V25.4z"/>
	<path id="XMLID_212_" class="st0" d="M120.3,9c0-0.4,0.1-0.6,0.3-0.8c0.2-0.2,0.5-0.3,1-0.3h3.5c0.5,0,0.8,0.1,1,0.3
		c0.2,0.2,0.3,0.5,0.3,0.8v11.2c0,1.2-0.1,2.2-0.4,3c-0.3,0.8-0.7,1.5-1.3,2c-0.7,0.6-1.6,1-2.6,1.3c-1.1,0.2-2.3,0.3-3.9,0.3
		s-2.8-0.1-3.9-0.3s-1.9-0.6-2.6-1.3c-0.6-0.5-1-1.2-1.3-2s-0.4-1.8-0.4-3V9c0-0.4,0.1-0.6,0.3-0.8c0.2-0.2,0.5-0.3,1-0.3h3.5
		c0.5,0,0.8,0.1,1,0.3s0.3,0.5,0.3,0.8v10.7c0,0.9,0.1,1.4,0.4,1.7c0.3,0.3,0.9,0.5,1.7,0.5c0.8,0,1.4-0.2,1.7-0.5
		c0.3-0.3,0.4-0.9,0.4-1.7V9z"/>
	<path id="XMLID_214_" class="st0" d="M133.7,6.5c-1.1,0-1.9-0.3-2.4-0.8c-0.5-0.5-0.7-1.3-0.7-2.3V3.2c0-1,0.2-1.8,0.7-2.3
		c0.5-0.5,1.3-0.8,2.4-0.8h0.5c1.1,0,1.9,0.3,2.4,0.8c0.5,0.5,0.7,1.3,0.7,2.3v0.2c0,1-0.2,1.8-0.7,2.3c-0.5,0.5-1.3,0.8-2.4,0.8
		H133.7z M136.9,25.5c0,0.4-0.1,0.6-0.3,0.8c-0.2,0.2-0.5,0.3-1,0.3h-3.5c-0.5,0-0.8-0.1-1-0.3s-0.3-0.5-0.3-0.8V9
		c0-0.4,0.1-0.6,0.3-0.8s0.5-0.3,1-0.3h3.5c0.5,0,0.8,0.1,1,0.3c0.2,0.2,0.3,0.5,0.3,0.8V25.5z"/>
	<path id="XMLID_217_" class="st0" d="M141.2,13.6c0-1.9,0.5-3.3,1.5-4.3c1.2-1.1,3.1-1.7,5.8-1.7h0.4c0.4,0,0.9,0,1.4,0.1
		c0.5,0,1,0.1,1.5,0.2c0.5,0.1,1,0.1,1.4,0.2s0.8,0.2,1.2,0.3c0.3,0.1,0.5,0.2,0.6,0.4c0.1,0.1,0.1,0.3,0,0.6l-0.4,3.1
		c-0.1,0.5-0.4,0.6-1,0.5c-0.7-0.2-1.3-0.3-2-0.4c-0.7-0.1-1.4-0.2-2-0.2h0c-0.8,0-1.4,0.1-1.7,0.2c-0.3,0.2-0.5,0.4-0.5,0.8v0.1
		c0,0.4,0.2,0.6,0.5,0.8c0.3,0.2,0.9,0.3,1.7,0.5l1.8,0.4c0.8,0.2,1.5,0.4,2.1,0.7c0.6,0.3,1,0.6,1.4,1c0.4,0.4,0.6,0.9,0.8,1.5
		c0.2,0.6,0.2,1.3,0.2,2.1v0.6c0,2-0.6,3.5-1.8,4.5c-1.2,1-3.1,1.5-5.6,1.5h-0.4c-0.5,0-1.1,0-1.7-0.1c-0.6-0.1-1.1-0.1-1.7-0.2
		c-0.6-0.1-1.1-0.2-1.6-0.3c-0.5-0.1-1-0.3-1.3-0.4c-0.4-0.1-0.6-0.3-0.6-0.5c-0.1-0.2-0.1-0.5,0-0.9l0.5-2.5c0.1-0.7,0.6-1,1.3-0.7
		c0.6,0.2,1.4,0.4,2.3,0.6c0.9,0.2,1.6,0.3,2.3,0.3h0.1c0.9,0,1.5-0.1,1.8-0.3c0.3-0.2,0.5-0.5,0.5-0.9v-0.1c0-0.3-0.1-0.6-0.4-0.7
		c-0.3-0.2-0.9-0.3-1.8-0.6l-1.7-0.4c-1.6-0.4-2.8-0.9-3.5-1.7c-0.7-0.8-1.1-1.9-1.1-3.5V13.6z"/>
</g>
</svg>
