<?xml version="1.0" encoding="utf-8"?>
<!-- Generator: Adobe Illustrator 19.0.0, SVG Export Plug-In . SVG Version: 6.00 Build 0)  -->
<svg version="1.1" id="Layer_1" xmlns="http://www.w3.org/2000/svg" xmlns:xlink="http://www.w3.org/1999/xlink" x="0px" y="0px"
	 width="207.9px" height="31.7px" viewBox="0 0 207.9 31.7" style="enable-background:new 0 0 207.9 31.7;" xml:space="preserve">
<style type="text/css">
	.st0{fill:#FFFFFF;}
</style>
<g id="XMLID_112_">
	<path id="XMLID_219_" class="st0" d="M10.6,15h-0.2l-3.6,8.4c-0.2,0.5-0.4,0.8-0.7,0.9c-0.3,0.2-0.7,0.2-1.3,0.2H1
		c-0.6,0-0.9-0.1-1-0.4c-0.1-0.3,0-0.6,0.2-1L5.4,13c0.1-0.2,0.2-0.3,0.2-0.5c0.1-0.2,0.1-0.3,0.1-0.4c0-0.2-0.1-0.5-0.3-0.8L0.2,1
		c-0.2-0.3-0.2-0.5,0-0.7C0.4,0.1,0.7,0,1.2,0h3.8C5.6,0,6,0.1,6.2,0.2c0.3,0.1,0.4,0.3,0.6,0.6l3.6,8.4h0.2l3.8-8.4
		c0.1-0.3,0.3-0.5,0.6-0.6C15.2,0.1,15.6,0,16.1,0H20c0.6,0,0.9,0.1,1,0.3c0.1,0.2,0.1,0.4,0,0.7l-5.2,10.2
		c-0.2,0.4-0.3,0.6-0.3,0.8c0,0.1,0,0.3,0.1,0.4c0.1,0.2,0.1,0.3,0.2,0.5l5.1,10.1c0.2,0.4,0.3,0.7,0.2,1c-0.1,0.3-0.4,0.4-1,0.4
		h-3.8c-0.6,0-1-0.1-1.3-0.2c-0.3-0.1-0.5-0.4-0.7-0.9L10.6,15z"/>
	<path id="XMLID_221_" class="st0" d="M35.8,23.2c0,0.6-0.1,0.9-0.2,1.1s-0.5,0.3-1,0.3h-3c-1.5,0-2.7-0.1-3.5-0.3
		c-0.8-0.2-1.4-0.6-1.9-1.1c-0.4-0.4-0.7-1-0.9-1.7c-0.2-0.7-0.2-1.7-0.2-2.9v-7.9H23c-0.4,0-0.6-0.1-0.7-0.2
		c-0.1-0.1-0.2-0.4-0.2-0.7V7.8c0-0.5,0.1-0.8,0.2-0.9c0.1-0.1,0.4-0.3,0.8-0.4l2-0.5V2.3c0-0.4,0.1-0.6,0.3-0.8
		c0.2-0.2,0.5-0.3,1-0.3h3.5c0.5,0,0.8,0.1,1,0.3c0.2,0.2,0.3,0.5,0.3,0.8V6h3.2c0.4,0,0.6,0.1,0.8,0.2c0.2,0.1,0.2,0.4,0.2,0.9v2.5
		c0,0.5-0.1,0.8-0.2,0.9c-0.2,0.1-0.4,0.2-0.8,0.2h-3.2v7.2c0,0.3,0,0.6,0.1,0.8c0,0.2,0.1,0.4,0.2,0.5c0.1,0.1,0.3,0.2,0.5,0.3
		c0.2,0.1,0.5,0.1,1,0.1h1.7c0.5,0,0.8,0.1,1,0.3s0.2,0.6,0.2,1.1V23.2z"/>
	<path id="XMLID_223_" class="st0" d="M44.2,8c0.5-0.7,1-1.3,1.7-1.6C46.5,6.1,47.4,6,48.4,6h1.5c0.4,0,0.7,0.1,0.9,0.2
		C51,6.3,51,6.6,51,7v2.8c0,0.4-0.1,0.7-0.2,0.9c-0.2,0.1-0.4,0.2-0.8,0.2h-1.1c-1.4,0-2.4,0.3-2.9,0.8c-0.3,0.3-0.4,0.6-0.5,1
		c-0.1,0.4-0.1,1-0.1,1.6v9.2c0,0.4-0.1,0.6-0.3,0.8c-0.2,0.2-0.5,0.3-1,0.3h-3.5c-0.5,0-0.8-0.1-1-0.3c-0.2-0.2-0.3-0.5-0.3-0.8V7
		c0-0.4,0.1-0.7,0.3-0.8C39.7,6,40,6,40.5,6h1.8c0.4,0,0.7,0.1,0.9,0.2c0.2,0.1,0.3,0.3,0.4,0.7L44,8H44.2z"/>
	<path id="XMLID_225_" class="st0" d="M64.3,23c-0.4,0.6-1,1-1.9,1.4c-0.9,0.3-1.9,0.5-3.1,0.5h-0.6c-1.9,0-3.4-0.5-4.5-1.5
		c-1.1-1-1.7-2.4-1.7-4.4v-0.4c0-2.1,0.6-3.6,1.8-4.4c1.2-0.8,3.1-1.2,5.7-1.2h0.3c0.5,0,1,0,1.5,0c0.5,0,0.9,0.1,1.2,0.1v-0.8
		c0-0.4,0-0.7-0.1-1s-0.3-0.5-0.5-0.7c-0.2-0.2-0.5-0.3-0.8-0.3c-0.3-0.1-0.8-0.1-1.4-0.1c-0.7,0-1.4,0.1-2.1,0.2
		c-0.8,0.1-1.5,0.3-2.3,0.5c-0.5,0.1-0.8,0.1-1,0c-0.2-0.1-0.3-0.4-0.3-0.7l-0.3-2c0-0.1,0-0.3-0.1-0.4c0-0.2,0-0.3,0-0.3
		c0-0.3,0.1-0.4,0.2-0.6c0.1-0.1,0.4-0.3,0.7-0.4c0.8-0.2,1.8-0.4,2.9-0.6c1.1-0.2,2.3-0.2,3.6-0.2c1.5,0,2.8,0.2,3.8,0.5
		c1,0.3,1.8,0.8,2.4,1.4c1,1,1.4,2.6,1.4,4.8v11.3c0,0.4-0.1,0.7-0.3,0.8c-0.2,0.2-0.5,0.2-1,0.2H66c-0.4,0-0.7-0.1-0.9-0.2
		c-0.2-0.1-0.3-0.3-0.5-0.7L64.3,23L64.3,23z M63,17.1C62.8,17,62.6,17,62.2,17c-0.4,0-0.7,0-1,0h-0.4c-0.9,0-1.5,0.1-1.9,0.3
		c-0.4,0.2-0.6,0.7-0.6,1.4v0.2c0,0.7,0.2,1.2,0.6,1.4c0.4,0.2,0.9,0.3,1.6,0.3h0.3c0.4,0,0.8-0.1,1.1-0.2c0.3-0.1,0.5-0.2,0.7-0.4
		c0.2-0.2,0.3-0.4,0.4-0.7c0.1-0.3,0.1-0.7,0.1-1.2V17.1z"/>
	<path id="XMLID_228_" class="st0" d="M89.8,7.1c-0.4,1.3-0.8,2.7-1.2,4.2s-0.9,3.1-1.4,4.6c-0.5,1.5-1,3-1.5,4.4
		c-0.5,1.4-1,2.6-1.4,3.6c-0.1,0.3-0.3,0.4-0.5,0.6c-0.2,0.1-0.5,0.2-0.9,0.2h-4.1c-0.4,0-0.7-0.1-0.9-0.2c-0.2-0.1-0.4-0.3-0.5-0.6
		c-0.4-1-0.9-2.2-1.4-3.5c-0.5-1.4-1.1-2.8-1.6-4.3c-0.5-1.5-1-3-1.5-4.6c-0.5-1.5-0.9-3-1.2-4.3C71.5,6.3,71.8,6,72.7,6h3.5
		C76.7,6,77,6,77.2,6.1c0.2,0.1,0.3,0.3,0.4,0.7c0.3,1,0.5,2,0.8,3.1c0.3,1.1,0.6,2.1,0.9,3.1c0.3,1,0.6,2,0.8,2.8
		c0.3,0.9,0.5,1.6,0.7,2.1H81c0.2-0.6,0.4-1.3,0.7-2.2c0.3-0.9,0.5-1.8,0.8-2.8c0.3-1,0.5-2,0.8-3.1C83.5,9,83.8,8,84,7
		c0.1-0.4,0.2-0.7,0.4-0.8C84.5,6,84.8,6,85.2,6h3.6C89.7,6,90,6.3,89.8,7.1z"/>
	<path id="XMLID_230_" class="st0" d="M103.4,23c-0.4,0.6-1,1-1.9,1.4c-0.9,0.3-1.9,0.5-3.1,0.5h-0.6c-1.9,0-3.4-0.5-4.5-1.5
		c-1.1-1-1.7-2.4-1.7-4.4v-0.4c0-2.1,0.6-3.6,1.8-4.4c1.2-0.8,3.1-1.2,5.7-1.2h0.3c0.5,0,1,0,1.5,0c0.5,0,0.9,0.1,1.2,0.1v-0.8
		c0-0.4,0-0.7-0.1-1s-0.3-0.5-0.5-0.7c-0.2-0.2-0.5-0.3-0.8-0.3c-0.3-0.1-0.8-0.1-1.4-0.1c-0.7,0-1.4,0.1-2.1,0.2
		c-0.8,0.1-1.5,0.3-2.3,0.5c-0.5,0.1-0.8,0.1-1,0c-0.2-0.1-0.3-0.4-0.3-0.7l-0.3-2c0-0.1,0-0.3-0.1-0.4c0-0.2,0-0.3,0-0.3
		c0-0.3,0.1-0.4,0.2-0.6c0.1-0.1,0.4-0.3,0.7-0.4c0.8-0.2,1.8-0.4,2.9-0.6c1.1-0.2,2.3-0.2,3.6-0.2c1.5,0,2.8,0.2,3.8,0.5
		c1,0.3,1.8,0.8,2.4,1.4c1,1,1.4,2.6,1.4,4.8v11.3c0,0.4-0.1,0.7-0.3,0.8c-0.2,0.2-0.5,0.2-1,0.2h-1.8c-0.4,0-0.7-0.1-0.9-0.2
		c-0.2-0.1-0.3-0.3-0.5-0.7L103.4,23L103.4,23z M102.1,17.1c-0.2-0.1-0.5-0.1-0.9-0.1c-0.4,0-0.7,0-1,0h-0.4c-0.9,0-1.5,0.1-1.9,0.3
		c-0.4,0.2-0.6,0.7-0.6,1.4v0.2c0,0.7,0.2,1.2,0.6,1.4c0.4,0.2,0.9,0.3,1.6,0.3h0.3c0.4,0,0.8-0.1,1.1-0.2c0.3-0.1,0.5-0.2,0.7-0.4
		c0.2-0.2,0.3-0.4,0.4-0.7c0.1-0.3,0.1-0.7,0.1-1.2V17.1z"/>
	<path id="XMLID_233_" class="st0" d="M120,22.8c-2.7,0-4.7-0.6-6-1.7c-1.4-1.2-2-3-2-5.6V13c0-2.6,0.7-4.4,2-5.6
		c1.3-1.2,3.3-1.7,6-1.7h0.5c0.3-1.3,0.9-2.4,1.9-3.1c1-0.7,2.4-1.1,4.2-1.1h1.9c0.4,0,0.6,0.1,0.7,0.2c0.1,0.1,0.2,0.4,0.2,0.8v2.1
		c0,0.4-0.1,0.6-0.2,0.7c-0.2,0.1-0.4,0.2-0.7,0.2h-1.8c-0.5,0-0.8,0-1.1,0.1c-0.3,0.1-0.5,0.2-0.7,0.4c1.5,0.4,2.6,1.2,3.3,2.3
		c0.7,1.1,1,2.7,1,4.6v2.5c0,1.4-0.2,2.5-0.5,3.4c-0.3,0.9-0.9,1.6-1.7,2.1c1,0.5,1.7,1.2,2.3,2c0.6,0.8,0.9,1.7,0.9,2.7v0.3
		c0,1.7-0.7,3.1-2.1,4.1c-1.4,1-3.7,1.5-6.9,1.5h-0.7c-0.6,0-1.2,0-1.9-0.1c-0.7-0.1-1.3-0.2-2-0.3c-0.6-0.1-1.3-0.3-1.9-0.4
		c-0.6-0.2-1.2-0.3-1.7-0.6c-0.7-0.3-0.9-0.7-0.8-1.4l0.7-2.4c0.1-0.4,0.2-0.6,0.4-0.7c0.2-0.1,0.5-0.1,0.9,0c0.5,0.2,1,0.3,1.5,0.4
		c0.5,0.1,1.1,0.3,1.6,0.4c0.5,0.1,1,0.2,1.5,0.2c0.5,0.1,0.9,0.1,1.3,0.1h0.5c1.2,0,2-0.2,2.5-0.5c0.5-0.3,0.8-0.8,0.8-1.4v-0.1
		c0-0.7-0.4-1.4-1.1-2c-0.2,0-0.5,0-0.8,0.1c-0.3,0-0.7,0-1,0H120z M120.6,18.1c0.4,0,0.8-0.1,1.1-0.2c0.3-0.1,0.5-0.2,0.7-0.4
		c0.2-0.2,0.4-0.5,0.5-0.9c0.1-0.4,0.2-0.9,0.2-1.7v-1.5c0-0.8-0.1-1.3-0.2-1.7c-0.1-0.4-0.3-0.7-0.5-0.9c-0.2-0.2-0.4-0.3-0.7-0.4
		c-0.3-0.1-0.7-0.2-1.1-0.2h-0.3c-0.8,0-1.4,0.2-1.8,0.5c-0.2,0.2-0.4,0.5-0.5,0.9c-0.1,0.4-0.2,0.9-0.2,1.7V15
		c0,0.8,0.1,1.3,0.2,1.7c0.1,0.4,0.3,0.7,0.5,0.9c0.4,0.4,1,0.5,1.8,0.5H120.6z"/>
	<path id="XMLID_236_" class="st0" d="M144.1,23c-0.4,0.6-1,1-1.9,1.4c-0.9,0.3-1.9,0.5-3.1,0.5h-0.6c-1.9,0-3.4-0.5-4.5-1.5
		c-1.1-1-1.7-2.4-1.7-4.4v-0.4c0-2.1,0.6-3.6,1.8-4.4c1.2-0.8,3.1-1.2,5.7-1.2h0.3c0.5,0,1,0,1.5,0c0.5,0,0.9,0.1,1.2,0.1v-0.8
		c0-0.4,0-0.7-0.1-1s-0.3-0.5-0.5-0.7c-0.2-0.2-0.5-0.3-0.8-0.3c-0.3-0.1-0.8-0.1-1.4-0.1c-0.7,0-1.4,0.1-2.1,0.2
		c-0.8,0.1-1.5,0.3-2.3,0.5c-0.5,0.1-0.8,0.1-1,0c-0.2-0.1-0.3-0.4-0.3-0.7l-0.3-2c0-0.1,0-0.3-0.1-0.4c0-0.2,0-0.3,0-0.3
		c0-0.3,0.1-0.4,0.2-0.6c0.1-0.1,0.4-0.3,0.7-0.4c0.8-0.2,1.8-0.4,2.9-0.6c1.1-0.2,2.3-0.2,3.6-0.2c1.5,0,2.8,0.2,3.8,0.5
		c1,0.3,1.8,0.8,2.4,1.4c1,1,1.4,2.6,1.4,4.8v11.3c0,0.4-0.1,0.7-0.3,0.8c-0.2,0.2-0.5,0.2-1,0.2h-1.8c-0.4,0-0.7-0.1-0.9-0.2
		c-0.2-0.1-0.3-0.3-0.5-0.7L144.1,23L144.1,23z M142.8,17.1c-0.2-0.1-0.5-0.1-0.9-0.1c-0.4,0-0.7,0-1,0h-0.4c-0.9,0-1.5,0.1-1.9,0.3
		c-0.4,0.2-0.6,0.7-0.6,1.4v0.2c0,0.7,0.2,1.2,0.6,1.4c0.4,0.2,0.9,0.3,1.6,0.3h0.3c0.4,0,0.8-0.1,1.1-0.2c0.3-0.1,0.5-0.2,0.7-0.4
		c0.2-0.2,0.3-0.4,0.4-0.7c0.1-0.3,0.1-0.7,0.1-1.2V17.1z"/>
	<path id="XMLID_239_" class="st0" d="M163.6,5.6c2.2,0,3.8,0.5,4.8,1.6c0.5,0.5,0.9,1.2,1.1,1.9c0.2,0.8,0.3,1.8,0.3,3.1v11.3
		c0,0.4-0.1,0.6-0.3,0.8c-0.2,0.2-0.5,0.3-1,0.3H165c-0.5,0-0.8-0.1-1-0.3s-0.3-0.5-0.3-0.8V12.7c0-0.9-0.1-1.4-0.4-1.7
		c-0.3-0.3-0.9-0.5-1.7-0.5h-0.2c-0.8,0-1.4,0.2-1.7,0.5c-0.3,0.3-0.4,0.9-0.4,1.7v10.8c0,0.4-0.1,0.6-0.3,0.8
		c-0.2,0.2-0.5,0.3-1,0.3h-3.5c-0.5,0-0.8-0.1-1-0.3c-0.2-0.2-0.3-0.5-0.3-0.8V7c0-0.4,0.1-0.7,0.3-0.8c0.2-0.2,0.5-0.2,1-0.2h1.8
		c0.4,0,0.7,0.1,0.9,0.2c0.2,0.1,0.3,0.3,0.5,0.7l0.2,0.7h0.1c1.2-1.3,3-1.9,5.2-1.9H163.6z"/>
	<path id="XMLID_241_" class="st0" d="M173.7,11.6c0-1.9,0.5-3.3,1.5-4.3c1.2-1.1,3.1-1.7,5.8-1.7h0.4c0.4,0,0.9,0,1.4,0.1
		c0.5,0,1,0.1,1.5,0.2c0.5,0.1,1,0.1,1.4,0.2s0.8,0.2,1.2,0.3c0.3,0.1,0.5,0.2,0.6,0.4c0.1,0.1,0.1,0.3,0,0.6l-0.4,3.1
		c-0.1,0.5-0.4,0.6-1,0.5c-0.7-0.2-1.3-0.3-2-0.4c-0.7-0.1-1.4-0.2-2-0.2h0c-0.8,0-1.4,0.1-1.7,0.2c-0.3,0.2-0.5,0.4-0.5,0.8v0.1
		c0,0.4,0.2,0.6,0.5,0.8c0.3,0.2,0.9,0.3,1.7,0.5l1.8,0.4c0.8,0.2,1.5,0.4,2.1,0.7c0.6,0.3,1,0.6,1.4,1c0.4,0.4,0.6,0.9,0.8,1.5
		c0.2,0.6,0.2,1.3,0.2,2.1V19c0,2-0.6,3.5-1.8,4.5c-1.2,1-3.1,1.5-5.6,1.5h-0.4c-0.5,0-1.1,0-1.7-0.1c-0.6-0.1-1.1-0.1-1.7-0.2
		c-0.6-0.1-1.1-0.2-1.6-0.3c-0.5-0.1-1-0.3-1.3-0.4c-0.4-0.1-0.6-0.3-0.6-0.5c-0.1-0.2-0.1-0.5,0-0.9l0.5-2.5c0.1-0.7,0.6-1,1.3-0.7
		c0.6,0.2,1.4,0.4,2.3,0.6c0.9,0.2,1.6,0.3,2.3,0.3h0.1c0.9,0,1.5-0.1,1.8-0.3c0.3-0.2,0.5-0.5,0.5-0.9V19c0-0.3-0.1-0.6-0.4-0.7
		c-0.3-0.2-0.9-0.3-1.8-0.6l-1.7-0.4c-1.6-0.4-2.8-0.9-3.5-1.7c-0.7-0.8-1.1-1.9-1.1-3.5V11.6z"/>
	<path id="XMLID_243_" class="st0" d="M203.1,23c-0.4,0.6-1,1-1.9,1.4c-0.9,0.3-1.9,0.5-3.1,0.5h-0.6c-1.9,0-3.4-0.5-4.5-1.5
		c-1.1-1-1.7-2.4-1.7-4.4v-0.4c0-2.1,0.6-3.6,1.8-4.4c1.2-0.8,3.1-1.2,5.7-1.2h0.3c0.5,0,1,0,1.5,0c0.5,0,0.9,0.1,1.2,0.1v-0.8
		c0-0.4,0-0.7-0.1-1s-0.3-0.5-0.5-0.7c-0.2-0.2-0.5-0.3-0.8-0.3c-0.3-0.1-0.8-0.1-1.4-0.1c-0.7,0-1.4,0.1-2.1,0.2
		c-0.8,0.1-1.5,0.3-2.3,0.5c-0.5,0.1-0.8,0.1-1,0c-0.2-0.1-0.3-0.4-0.3-0.7l-0.3-2c0-0.1,0-0.3-0.1-0.4c0-0.2,0-0.3,0-0.3
		c0-0.3,0.1-0.4,0.2-0.6c0.1-0.1,0.4-0.3,0.7-0.4c0.8-0.2,1.8-0.4,2.9-0.6c1.1-0.2,2.3-0.2,3.6-0.2c1.5,0,2.8,0.2,3.8,0.5
		c1,0.3,1.8,0.8,2.4,1.4c1,1,1.4,2.6,1.4,4.8v11.3c0,0.4-0.1,0.7-0.3,0.8c-0.2,0.2-0.5,0.2-1,0.2h-1.8c-0.4,0-0.7-0.1-0.9-0.2
		c-0.2-0.1-0.3-0.3-0.5-0.7L203.1,23L203.1,23z M201.8,17.1c-0.2-0.1-0.5-0.1-0.9-0.1c-0.4,0-0.7,0-1,0h-0.4c-0.9,0-1.5,0.1-1.9,0.3
		c-0.4,0.2-0.6,0.7-0.6,1.4v0.2c0,0.7,0.2,1.2,0.6,1.4c0.4,0.2,0.9,0.3,1.6,0.3h0.3c0.4,0,0.8-0.1,1.1-0.2c0.3-0.1,0.5-0.2,0.7-0.4
		c0.2-0.2,0.3-0.4,0.4-0.7c0.1-0.3,0.1-0.7,0.1-1.2V17.1z"/>
</g>
</svg>
