<?xml version="1.0" encoding="utf-8"?>
<!-- Generator: Adobe Illustrator 19.0.0, SVG Export Plug-In . SVG Version: 6.00 Build 0)  -->
<svg version="1.1" id="Layer_1" xmlns="http://www.w3.org/2000/svg" xmlns:xlink="http://www.w3.org/1999/xlink" x="0px" y="0px"
	 width="114px" height="54px" viewBox="0 0 114 54" style="enable-background:new 0 0 114 54;" xml:space="preserve">
<style type="text/css">
	.st0{fill:#034EA1;}
	.st1{fill:#FFF100;}
</style>
<g id="XMLID_185_">
	<path id="XMLID_474_" class="st0" d="M9.4,54C4.2,54,0,49.8,0,44.6V9.4C0,4.2,4.2,0,9.4,0h95.2c5.2,0,9.4,4.2,9.4,9.4v35.3
		c0,5.2-4.2,9.4-9.4,9.4H9.4z"/>
	<path id="XMLID_471_" class="st1" d="M111.8,44.6c0,4-3.2,7.2-7.2,7.2H9.4c-4,0-7.2-3.2-7.2-7.2V9.4c0-4,3.2-7.2,7.2-7.2h95.2
		c4,0,7.2,3.2,7.2,7.2V44.6z"/>
	<g id="XMLID_465_">
		<path id="XMLID_469_" class="st0" d="M17.1,26.4c-0.7,0-1.6,0.1-2.5,0.3c-0.9,0.2-1.9,0.4-2.8,0.7c-0.6,0.2-1,0-1.2-0.6L10,24.1
			c-0.1-0.4-0.1-0.7,0-0.9c0.1-0.2,0.3-0.4,0.7-0.5c1.1-0.4,2.3-0.8,3.7-1.1c1.4-0.3,2.8-0.4,4.2-0.4h0.1c2.5,0,4.4,0.5,5.8,1.6
			c1.4,1.1,2.1,2.8,2.1,5.1v0.5c0,1-0.1,1.9-0.3,2.7c-0.2,0.8-0.5,1.5-1,2.1c-0.4,0.6-1,1.2-1.6,1.6c-0.7,0.5-1.4,0.9-2.2,1.3l-2,1
			c-0.9,0.4-1.7,0.8-2.2,1.1c-0.6,0.3-1,0.6-1.3,0.9c-0.3,0.3-0.5,0.6-0.6,0.9c-0.1,0.3-0.2,0.6-0.2,1v0.4h10c0.6,0,1,0.1,1.1,0.2
			c0.1,0.2,0.2,0.5,0.2,1v2.5c0,0.4-0.1,0.7-0.2,0.9c-0.2,0.2-0.5,0.3-1.1,0.3H10.3c-0.5,0-0.9-0.1-1-0.2C9.1,45.9,9,45.6,9,45.2
			v-2.5c0-1.3,0.1-2.4,0.3-3.3c0.2-0.9,0.6-1.8,1-2.5c0.5-0.7,1.1-1.4,1.8-1.9c0.8-0.6,1.7-1.1,2.7-1.6l1.6-0.7
			c0.7-0.3,1.2-0.6,1.7-0.8c0.4-0.3,0.8-0.5,1.1-0.8c0.3-0.3,0.5-0.6,0.6-0.9c0.1-0.3,0.2-0.7,0.2-1.2v-0.3c0-1.5-0.9-2.2-2.7-2.2
			H17.1z"/>
		<path id="XMLID_466_" class="st0" d="M47.1,41v4c0,0.6-0.1,0.9-0.3,1.1c-0.2,0.1-0.6,0.2-1.1,0.2h-3.4c-0.6,0-0.9-0.1-1.2-0.2
			c-0.2-0.1-0.3-0.5-0.3-1.1v-4h-9.8c-0.5,0-0.9-0.1-1-0.2c-0.2-0.2-0.2-0.5-0.2-1v-0.9c0-0.4,0-0.7,0-1c0-0.3,0.1-0.5,0.1-0.7
			c0.1-0.2,0.1-0.5,0.2-0.7c0.1-0.2,0.3-0.5,0.5-0.8l8-12.9c0.3-0.5,0.6-0.8,0.9-1c0.3-0.2,0.7-0.2,1.2-0.2h4.6
			c0.7,0,1.1,0.1,1.3,0.3c0.2,0.2,0.3,0.6,0.3,1.3v13.1h2c0.5,0,0.8,0.1,0.9,0.2c0.1,0.1,0.2,0.4,0.2,0.8V40c0,0.4-0.1,0.7-0.2,0.8
			C49.8,41,49.5,41,49,41H47.1z M40.8,36.2v-8.6h0l-5.3,8.6H40.8z"/>
	</g>
	<g id="XMLID_428_">
		<path id="XMLID_463_" class="st0" d="M15.7,15.8c0,0.2,0,0.3-0.1,0.3c-0.1,0-0.2,0.1-0.4,0.1H14c-0.2,0-0.3,0-0.4-0.1
			c-0.1,0-0.1-0.2-0.1-0.3v-3H11v3c0,0.2,0,0.3-0.1,0.3c-0.1,0-0.2,0.1-0.4,0.1H9.2c-0.2,0-0.3,0-0.4-0.1c0,0-0.1-0.2-0.1-0.3V8.1
			c0-0.2,0-0.3,0.1-0.3c0.1,0,0.2-0.1,0.4-0.1h1.3c0.2,0,0.3,0,0.4,0.1C11,7.8,11,7.9,11,8.1V11h2.5V8.1c0-0.2,0-0.3,0.1-0.3
			c0.1,0,0.2-0.1,0.4-0.1h1.3c0.2,0,0.3,0,0.4,0.1c0.1,0,0.1,0.2,0.1,0.3V15.8z"/>
		<path id="XMLID_460_" class="st0" d="M21,15.6c-0.1,0.2-0.3,0.4-0.6,0.5c-0.3,0.1-0.7,0.2-1.1,0.2h-0.2c-0.7,0-1.2-0.2-1.6-0.5
			c-0.4-0.3-0.6-0.8-0.6-1.5v-0.1c0-0.7,0.2-1.2,0.6-1.5c0.4-0.3,1.1-0.4,2-0.4h0.1c0.2,0,0.3,0,0.5,0c0.2,0,0.3,0,0.4,0V12
			c0-0.1,0-0.2,0-0.3c0-0.1-0.1-0.2-0.2-0.2c-0.1-0.1-0.2-0.1-0.3-0.1c-0.1,0-0.3,0-0.5,0c-0.2,0-0.5,0-0.7,0.1
			c-0.3,0-0.5,0.1-0.8,0.2c-0.2,0-0.3,0-0.3,0c-0.1,0-0.1-0.1-0.1-0.2l-0.1-0.7c0,0,0-0.1,0-0.1c0-0.1,0-0.1,0-0.1
			c0-0.1,0-0.2,0.1-0.2c0,0,0.1-0.1,0.3-0.1c0.3-0.1,0.6-0.1,1-0.2c0.4-0.1,0.8-0.1,1.2-0.1c0.5,0,1,0.1,1.3,0.2
			c0.3,0.1,0.6,0.3,0.8,0.5c0.3,0.3,0.5,0.9,0.5,1.6v3.9c0,0.1,0,0.2-0.1,0.3c-0.1,0.1-0.2,0.1-0.4,0.1h-0.6c-0.1,0-0.3,0-0.3-0.1
			c-0.1,0-0.1-0.1-0.2-0.2L21,15.6L21,15.6z M20.6,13.6c-0.1,0-0.2,0-0.3,0c-0.1,0-0.2,0-0.3,0h-0.1c-0.3,0-0.5,0-0.7,0.1
			c-0.1,0.1-0.2,0.2-0.2,0.5v0.1c0,0.2,0.1,0.4,0.2,0.5c0.1,0.1,0.3,0.1,0.5,0.1h0.1c0.1,0,0.3,0,0.4-0.1c0.1,0,0.2-0.1,0.2-0.1
			c0.1-0.1,0.1-0.2,0.1-0.2c0-0.1,0-0.2,0-0.4V13.6z"/>
		<path id="XMLID_457_" class="st0" d="M27.5,9.9V7.7c0-0.1,0-0.2,0.1-0.3c0.1-0.1,0.2-0.1,0.4-0.1h1.2c0.2,0,0.3,0,0.3,0.1
			c0.1,0.1,0.1,0.2,0.1,0.3v6c0,0.5,0,0.9-0.1,1.2c-0.1,0.3-0.2,0.5-0.4,0.7c-0.2,0.3-0.5,0.4-0.9,0.6c-0.4,0.1-0.9,0.2-1.5,0.2
			h-0.2c-0.6,0-1-0.1-1.3-0.2c-0.3-0.1-0.6-0.2-0.8-0.4c-0.2-0.2-0.4-0.5-0.5-0.9c-0.1-0.4-0.2-0.8-0.2-1.3v-1c0-0.5,0-1,0.1-1.3
			c0.1-0.3,0.3-0.6,0.5-0.9c0.2-0.2,0.4-0.3,0.7-0.4c0.3-0.1,0.6-0.2,1-0.2h0.2c0.3,0,0.5,0,0.7,0.1C27.1,9.7,27.3,9.8,27.5,9.9
			L27.5,9.9z M27.5,12.2c0-0.2,0-0.3,0-0.4c0-0.1-0.1-0.2-0.1-0.2c-0.1-0.1-0.3-0.2-0.6-0.2h-0.1c-0.3,0-0.5,0.1-0.6,0.2
			c-0.1,0.1-0.1,0.2-0.2,0.4c0,0.2,0,0.5,0,0.8v0.6c0,0.3,0,0.6,0,0.8c0,0.2,0.1,0.3,0.2,0.4c0.1,0.1,0.3,0.2,0.6,0.2h0.1
			c0.3,0,0.4-0.1,0.6-0.2c0.1-0.1,0.2-0.3,0.2-0.6V12.2z"/>
		<path id="XMLID_454_" class="st0" d="M31.8,9.3c-0.4,0-0.7-0.1-0.8-0.3c-0.2-0.2-0.2-0.5-0.2-0.8V8.1c0-0.3,0.1-0.6,0.2-0.8
			C31.2,7.1,31.5,7,31.8,7H32c0.4,0,0.7,0.1,0.8,0.3c0.2,0.2,0.2,0.5,0.2,0.8v0.1c0,0.3-0.1,0.6-0.2,0.8c-0.2,0.2-0.4,0.3-0.8,0.3
			H31.8z M33,15.8c0,0.1,0,0.2-0.1,0.3c-0.1,0.1-0.2,0.1-0.4,0.1h-1.2c-0.2,0-0.3,0-0.4-0.1c-0.1-0.1-0.1-0.2-0.1-0.3v-5.7
			c0-0.1,0-0.2,0.1-0.3c0.1-0.1,0.2-0.1,0.4-0.1h1.2c0.2,0,0.3,0,0.4,0.1C32.9,9.9,33,10,33,10.1V15.8z"/>
		<path id="XMLID_451_" class="st0" d="M38.1,15.6c-0.1,0.2-0.3,0.4-0.6,0.5c-0.3,0.1-0.7,0.2-1.1,0.2h-0.2c-0.7,0-1.2-0.2-1.6-0.5
			c-0.4-0.3-0.6-0.8-0.6-1.5v-0.1c0-0.7,0.2-1.2,0.6-1.5c0.4-0.3,1.1-0.4,2-0.4h0.1c0.2,0,0.3,0,0.5,0c0.2,0,0.3,0,0.4,0V12
			c0-0.1,0-0.2,0-0.3c0-0.1-0.1-0.2-0.2-0.2c-0.1-0.1-0.2-0.1-0.3-0.1c-0.1,0-0.3,0-0.5,0c-0.2,0-0.5,0-0.7,0.1
			c-0.3,0-0.5,0.1-0.8,0.2c-0.2,0-0.3,0-0.3,0c-0.1,0-0.1-0.1-0.1-0.2l-0.1-0.7c0,0,0-0.1,0-0.1c0-0.1,0-0.1,0-0.1
			c0-0.1,0-0.2,0.1-0.2c0,0,0.1-0.1,0.3-0.1c0.3-0.1,0.6-0.1,1-0.2c0.4-0.1,0.8-0.1,1.2-0.1c0.5,0,1,0.1,1.3,0.2
			c0.3,0.1,0.6,0.3,0.8,0.5c0.3,0.3,0.5,0.9,0.5,1.6v3.9c0,0.1,0,0.2-0.1,0.3c-0.1,0.1-0.2,0.1-0.4,0.1h-0.6c-0.1,0-0.3,0-0.3-0.1
			c-0.1,0-0.1-0.1-0.2-0.2L38.1,15.6L38.1,15.6z M37.6,13.6c-0.1,0-0.2,0-0.3,0c-0.1,0-0.2,0-0.3,0h-0.1c-0.3,0-0.5,0-0.7,0.1
			c-0.1,0.1-0.2,0.2-0.2,0.5v0.1c0,0.2,0.1,0.4,0.2,0.5c0.1,0.1,0.3,0.1,0.5,0.1h0.1c0.1,0,0.3,0,0.4-0.1c0.1,0,0.2-0.1,0.2-0.1
			c0.1-0.1,0.1-0.2,0.1-0.2c0-0.1,0-0.2,0-0.4V13.6z"/>
		<path id="XMLID_449_" class="st0" d="M43.8,11.3c-0.3,0-0.5,0.1-0.6,0.2c-0.1,0.1-0.1,0.3-0.1,0.6v3.7c0,0.1,0,0.2-0.1,0.3
			c-0.1,0.1-0.2,0.1-0.4,0.1h-1.2c-0.2,0-0.3,0-0.4-0.1C41,16,41,15.9,41,15.8V7.7c0-0.1,0-0.2,0.1-0.3c0.1-0.1,0.2-0.1,0.4-0.1h1.2
			c0.2,0,0.3,0,0.4,0.1c0.1,0.1,0.1,0.2,0.1,0.3V10h0c0.4-0.2,0.9-0.4,1.4-0.4h0c0.8,0,1.3,0.2,1.7,0.5c0.2,0.2,0.3,0.4,0.4,0.7
			c0.1,0.3,0.1,0.6,0.1,1.1v3.9c0,0.1,0,0.2-0.1,0.3c-0.1,0.1-0.2,0.1-0.4,0.1h-1.2c-0.2,0-0.3,0-0.4-0.1c-0.1-0.1-0.1-0.2-0.1-0.3
			v-3.7c0-0.3,0-0.5-0.1-0.6C44.4,11.4,44.2,11.3,43.8,11.3L43.8,11.3z"/>
		<path id="XMLID_447_" class="st0" d="M57.8,10.9c-0.2,0.8-0.5,1.5-0.7,2.2c-0.2,0.7-0.4,1.3-0.6,1.8c-0.1,0.2-0.2,0.3-0.3,0.4
			c-0.1,0.1-0.3,0.1-0.5,0.1H55c-0.2,0-0.4,0-0.5-0.1c-0.1-0.1-0.2-0.2-0.3-0.4c-0.2-0.5-0.4-1.1-0.6-1.8c-0.2-0.7-0.4-1.4-0.6-2.2
			H53c0,0.4,0,0.8,0,1.3c0,0.4,0,0.9,0,1.3c0,0.4,0,0.8,0,1.2c0,0.4,0,0.7,0,1.1c0,0.2,0,0.3-0.1,0.4c-0.1,0.1-0.2,0.1-0.4,0.1h-1.1
			c-0.2,0-0.4,0-0.4-0.1c-0.1-0.1-0.1-0.2-0.1-0.4c0-0.6,0-1.2,0-1.8c0-0.6,0-1.3,0.1-1.9c0-0.6,0.1-1.3,0.1-1.9
			c0-0.6,0.1-1.2,0.1-1.8c0-0.3,0.1-0.5,0.2-0.6c0.1-0.1,0.3-0.1,0.5-0.1h1.3c0.3,0,0.5,0,0.7,0.1C53.9,7.9,54,8.1,54,8.3
			c0.1,0.5,0.3,0.9,0.4,1.3c0.1,0.4,0.2,0.8,0.3,1.2c0.1,0.4,0.2,0.7,0.3,1.1c0.1,0.3,0.2,0.7,0.3,1h0.1c0.1-0.3,0.2-0.7,0.3-1
			c0.1-0.3,0.2-0.7,0.3-1.1c0.1-0.4,0.2-0.8,0.3-1.2c0.1-0.4,0.2-0.9,0.4-1.3c0.1-0.2,0.2-0.4,0.3-0.5c0.1-0.1,0.4-0.1,0.7-0.1h1.3
			c0.2,0,0.4,0,0.5,0.1c0.1,0.1,0.1,0.3,0.2,0.6c0,0.6,0.1,1.1,0.1,1.8c0,0.6,0.1,1.2,0.1,1.9c0,0.6,0.1,1.3,0.1,1.9
			c0,0.6,0,1.2,0,1.8c0,0.2,0,0.3-0.1,0.4c-0.1,0.1-0.2,0.1-0.4,0.1h-1.1c-0.2,0-0.4,0-0.4-0.1c-0.1-0.1-0.1-0.2-0.1-0.4
			c0-0.3,0-0.7,0-1.1c0-0.4,0-0.8,0-1.2c0-0.4,0-0.8,0-1.3C57.9,11.7,57.9,11.3,57.8,10.9L57.8,10.9z"/>
		<path id="XMLID_444_" class="st0" d="M62.4,9.3c-0.4,0-0.7-0.1-0.8-0.3c-0.2-0.2-0.2-0.5-0.2-0.8V8.1c0-0.3,0.1-0.6,0.2-0.8
			C61.8,7.1,62,7,62.4,7h0.2c0.4,0,0.7,0.1,0.8,0.3c0.2,0.2,0.2,0.5,0.2,0.8v0.1c0,0.3-0.1,0.6-0.2,0.8c-0.2,0.2-0.4,0.3-0.8,0.3
			H62.4z M63.6,15.8c0,0.1,0,0.2-0.1,0.3c-0.1,0.1-0.2,0.1-0.4,0.1h-1.2c-0.2,0-0.3,0-0.4-0.1c-0.1-0.1-0.1-0.2-0.1-0.3v-5.7
			c0-0.1,0-0.2,0.1-0.3c0.1-0.1,0.2-0.1,0.4-0.1h1.2c0.2,0,0.3,0,0.4,0.1c0.1,0.1,0.1,0.2,0.1,0.3V15.8z"/>
		<path id="XMLID_442_" class="st0" d="M68.5,9.6c0.8,0,1.3,0.2,1.7,0.5c0.2,0.2,0.3,0.4,0.4,0.7c0.1,0.3,0.1,0.6,0.1,1.1v3.9
			c0,0.1,0,0.2-0.1,0.3c-0.1,0.1-0.2,0.1-0.4,0.1H69c-0.2,0-0.3,0-0.4-0.1c-0.1-0.1-0.1-0.2-0.1-0.3v-3.7c0-0.3,0-0.5-0.1-0.6
			c-0.1-0.1-0.3-0.2-0.6-0.2h-0.1c-0.3,0-0.5,0.1-0.6,0.2c-0.1,0.1-0.1,0.3-0.1,0.6v3.7c0,0.1,0,0.2-0.1,0.3
			c-0.1,0.1-0.2,0.1-0.4,0.1h-1.2c-0.2,0-0.3,0-0.4-0.1c-0.1-0.1-0.1-0.2-0.1-0.3v-5.7c0-0.1,0-0.2,0.1-0.3c0.1-0.1,0.2-0.1,0.4-0.1
			H66c0.1,0,0.3,0,0.3,0.1c0.1,0,0.1,0.1,0.2,0.2l0.1,0.2h0c0.4-0.4,1-0.7,1.8-0.7H68.5z"/>
		<path id="XMLID_439_" class="st0" d="M74.4,15.6c-0.9,0-1.6-0.2-2.1-0.6c-0.5-0.4-0.7-1-0.7-1.9v-0.9c0-0.9,0.2-1.5,0.7-1.9
			c0.5-0.4,1.1-0.6,2.1-0.6h0.2c0.1-0.5,0.3-0.8,0.7-1.1c0.3-0.2,0.8-0.4,1.4-0.4h0.6c0.1,0,0.2,0,0.3,0.1c0,0,0.1,0.1,0.1,0.3v0.7
			c0,0.1,0,0.2-0.1,0.3c-0.1,0-0.1,0.1-0.3,0.1h-0.6c-0.2,0-0.3,0-0.4,0c-0.1,0-0.2,0.1-0.2,0.2c0.5,0.1,0.9,0.4,1.1,0.8
			c0.2,0.4,0.4,0.9,0.4,1.6V13c0,0.5-0.1,0.9-0.2,1.2c-0.1,0.3-0.3,0.6-0.6,0.7c0.3,0.2,0.6,0.4,0.8,0.7c0.2,0.3,0.3,0.6,0.3,0.9
			v0.1c0,0.6-0.2,1.1-0.7,1.4c-0.5,0.3-1.3,0.5-2.4,0.5h-0.2c-0.2,0-0.4,0-0.7,0c-0.2,0-0.5-0.1-0.7-0.1c-0.2,0-0.4-0.1-0.7-0.1
			c-0.2-0.1-0.4-0.1-0.6-0.2c-0.2-0.1-0.3-0.3-0.3-0.5l0.2-0.8c0-0.1,0.1-0.2,0.2-0.3c0.1,0,0.2-0.1,0.3,0c0.2,0.1,0.3,0.1,0.5,0.2
			c0.2,0,0.4,0.1,0.6,0.1c0.2,0,0.4,0.1,0.5,0.1c0.2,0,0.3,0,0.4,0h0.2c0.4,0,0.7-0.1,0.9-0.2c0.2-0.1,0.3-0.3,0.3-0.5v0
			c0-0.3-0.1-0.5-0.4-0.7c-0.1,0-0.2,0-0.3,0c-0.1,0-0.2,0-0.4,0H74.4z M74.6,13.9c0.1,0,0.3,0,0.4-0.1c0.1,0,0.2-0.1,0.2-0.1
			c0.1-0.1,0.1-0.2,0.2-0.3c0-0.1,0.1-0.3,0.1-0.6v-0.5c0-0.3,0-0.5-0.1-0.6c0-0.1-0.1-0.2-0.2-0.3c-0.1-0.1-0.1-0.1-0.2-0.1
			c-0.1,0-0.2-0.1-0.4-0.1h-0.1c-0.3,0-0.5,0.1-0.6,0.2c-0.1,0.1-0.1,0.2-0.2,0.3c0,0.1-0.1,0.3-0.1,0.6v0.5c0,0.3,0,0.5,0.1,0.6
			c0,0.1,0.1,0.2,0.2,0.3C74.1,13.9,74.3,13.9,74.6,13.9L74.6,13.9z"/>
		<path id="XMLID_436_" class="st0" d="M81.3,15.6c-0.9,0-1.6-0.2-2.1-0.6c-0.5-0.4-0.7-1-0.7-1.9v-0.9c0-0.9,0.2-1.5,0.7-1.9
			c0.5-0.4,1.1-0.6,2.1-0.6h0.2c0.1-0.5,0.3-0.8,0.7-1.1c0.3-0.2,0.8-0.4,1.4-0.4h0.6c0.1,0,0.2,0,0.3,0.1c0,0,0.1,0.1,0.1,0.3v0.7
			c0,0.1,0,0.2-0.1,0.3c-0.1,0-0.1,0.1-0.3,0.1h-0.6c-0.2,0-0.3,0-0.4,0c-0.1,0-0.2,0.1-0.2,0.2c0.5,0.1,0.9,0.4,1.1,0.8
			c0.2,0.4,0.4,0.9,0.4,1.6V13c0,0.5-0.1,0.9-0.2,1.2c-0.1,0.3-0.3,0.6-0.6,0.7c0.3,0.2,0.6,0.4,0.8,0.7c0.2,0.3,0.3,0.6,0.3,0.9
			v0.1c0,0.6-0.2,1.1-0.7,1.4c-0.5,0.3-1.3,0.5-2.4,0.5h-0.2c-0.2,0-0.4,0-0.7,0c-0.2,0-0.5-0.1-0.7-0.1c-0.2,0-0.4-0.1-0.7-0.1
			c-0.2-0.1-0.4-0.1-0.6-0.2c-0.2-0.1-0.3-0.3-0.3-0.5l0.2-0.8c0-0.1,0.1-0.2,0.2-0.3c0.1,0,0.2-0.1,0.3,0c0.2,0.1,0.3,0.1,0.5,0.2
			c0.2,0,0.4,0.1,0.6,0.1c0.2,0,0.4,0.1,0.5,0.1c0.2,0,0.3,0,0.4,0h0.2c0.4,0,0.7-0.1,0.9-0.2c0.2-0.1,0.3-0.3,0.3-0.5v0
			c0-0.3-0.1-0.5-0.4-0.7c-0.1,0-0.2,0-0.3,0c-0.1,0-0.2,0-0.4,0H81.3z M81.5,13.9c0.1,0,0.3,0,0.4-0.1c0.1,0,0.2-0.1,0.2-0.1
			c0.1-0.1,0.1-0.2,0.2-0.3c0-0.1,0.1-0.3,0.1-0.6v-0.5c0-0.3,0-0.5-0.1-0.6c0-0.1-0.1-0.2-0.2-0.3c-0.1-0.1-0.1-0.1-0.2-0.1
			c-0.1,0-0.2-0.1-0.4-0.1h-0.1c-0.3,0-0.5,0.1-0.6,0.2c-0.1,0.1-0.1,0.2-0.2,0.3c0,0.1-0.1,0.3-0.1,0.6v0.5c0,0.3,0,0.5,0.1,0.6
			c0,0.1,0.1,0.2,0.2,0.3C80.9,13.9,81.1,13.9,81.5,13.9L81.5,13.9z"/>
		<path id="XMLID_434_" class="st0" d="M89,10.1c0-0.1,0-0.2,0.1-0.3c0.1-0.1,0.2-0.1,0.4-0.1h1.2c0.2,0,0.3,0,0.4,0.1
			c0.1,0.1,0.1,0.2,0.1,0.3V14c0,0.4,0,0.8-0.1,1c-0.1,0.3-0.2,0.5-0.4,0.7c-0.2,0.2-0.5,0.4-0.9,0.4s-0.8,0.1-1.3,0.1s-1,0-1.3-0.1
			s-0.7-0.2-0.9-0.4c-0.2-0.2-0.3-0.4-0.4-0.7c-0.1-0.3-0.1-0.6-0.1-1v-3.9c0-0.1,0-0.2,0.1-0.3c0.1-0.1,0.2-0.1,0.4-0.1h1.2
			c0.2,0,0.3,0,0.4,0.1c0.1,0.1,0.1,0.2,0.1,0.3v3.7c0,0.3,0,0.5,0.1,0.6c0.1,0.1,0.3,0.2,0.6,0.2c0.3,0,0.5-0.1,0.6-0.2
			c0.1-0.1,0.1-0.3,0.1-0.6V10.1z"/>
		<path id="XMLID_431_" class="st0" d="M96.1,15.6c-0.1,0.2-0.3,0.4-0.6,0.5c-0.3,0.1-0.7,0.2-1.1,0.2h-0.2c-0.7,0-1.2-0.2-1.6-0.5
			c-0.4-0.3-0.6-0.8-0.6-1.5v-0.1c0-0.7,0.2-1.2,0.6-1.5c0.4-0.3,1.1-0.4,2-0.4h0.1c0.2,0,0.3,0,0.5,0c0.2,0,0.3,0,0.4,0V12
			c0-0.1,0-0.2,0-0.3c0-0.1-0.1-0.2-0.2-0.2c-0.1-0.1-0.2-0.1-0.3-0.1c-0.1,0-0.3,0-0.5,0c-0.2,0-0.5,0-0.7,0.1
			c-0.3,0-0.5,0.1-0.8,0.2c-0.2,0-0.3,0-0.3,0c-0.1,0-0.1-0.1-0.1-0.2l-0.1-0.7c0,0,0-0.1,0-0.1c0-0.1,0-0.1,0-0.1
			c0-0.1,0-0.2,0.1-0.2c0,0,0.1-0.1,0.3-0.1c0.3-0.1,0.6-0.1,1-0.2c0.4-0.1,0.8-0.1,1.2-0.1c0.5,0,1,0.1,1.3,0.2
			c0.3,0.1,0.6,0.3,0.8,0.5c0.3,0.3,0.5,0.9,0.5,1.6v3.9c0,0.1,0,0.2-0.1,0.3c-0.1,0.1-0.2,0.1-0.4,0.1h-0.6c-0.1,0-0.3,0-0.3-0.1
			c-0.1,0-0.1-0.1-0.2-0.2L96.1,15.6L96.1,15.6z M95.7,13.6c-0.1,0-0.2,0-0.3,0c-0.1,0-0.2,0-0.3,0h-0.1c-0.3,0-0.5,0-0.7,0.1
			c-0.1,0.1-0.2,0.2-0.2,0.5v0.1c0,0.2,0.1,0.4,0.2,0.5c0.1,0.1,0.3,0.1,0.5,0.1h0.1c0.1,0,0.3,0,0.4-0.1c0.1,0,0.2-0.1,0.2-0.1
			c0.1-0.1,0.1-0.2,0.1-0.2c0-0.1,0-0.2,0-0.4V13.6z"/>
		<path id="XMLID_429_" class="st0" d="M102.6,9.6c0.8,0,1.3,0.2,1.7,0.5c0.2,0.2,0.3,0.4,0.4,0.7c0.1,0.3,0.1,0.6,0.1,1.1v3.9
			c0,0.1,0,0.2-0.1,0.3c-0.1,0.1-0.2,0.1-0.4,0.1h-1.2c-0.2,0-0.3,0-0.4-0.1c-0.1-0.1-0.1-0.2-0.1-0.3v-3.7c0-0.3,0-0.5-0.1-0.6
			c-0.1-0.1-0.3-0.2-0.6-0.2h-0.1c-0.3,0-0.5,0.1-0.6,0.2c-0.1,0.1-0.1,0.3-0.1,0.6v3.7c0,0.1,0,0.2-0.1,0.3
			c-0.1,0.1-0.2,0.1-0.4,0.1h-1.2c-0.2,0-0.3,0-0.4-0.1C99.1,16,99,15.9,99,15.8v-5.7c0-0.1,0-0.2,0.1-0.3c0.1-0.1,0.2-0.1,0.4-0.1
			h0.6c0.1,0,0.3,0,0.3,0.1c0.1,0,0.1,0.1,0.2,0.2l0.1,0.2h0c0.4-0.4,1-0.7,1.8-0.7H102.6z"/>
	</g>
	<g id="XMLID_412_">
		<path id="XMLID_426_" class="st0" d="M55.7,29.9c-0.2,0-0.3,0-0.4-0.1c-0.1-0.1-0.1-0.2-0.1-0.4V27c-0.2-0.4-0.5-0.9-0.7-1.4
			c-0.2-0.5-0.5-1.1-0.7-1.6c-0.2-0.6-0.5-1.1-0.7-1.7c-0.2-0.6-0.4-1.1-0.5-1.7c-0.1-0.3,0-0.5,0.3-0.5h1.6c0.2,0,0.4,0,0.5,0
			c0.1,0,0.1,0.1,0.2,0.3c0.1,0.3,0.2,0.7,0.3,1.1c0.1,0.4,0.2,0.8,0.4,1.2c0.1,0.4,0.2,0.8,0.4,1.1s0.2,0.7,0.4,1h0.1
			c0.1-0.3,0.2-0.6,0.4-1c0.1-0.4,0.2-0.7,0.4-1.1c0.1-0.4,0.2-0.8,0.3-1.2c0.1-0.4,0.2-0.7,0.3-1.1c0.1-0.2,0.1-0.3,0.2-0.3
			c0.1,0,0.2,0,0.5,0h1.6c0.3,0,0.4,0.2,0.3,0.5c-0.2,0.5-0.3,1.1-0.5,1.7c-0.2,0.6-0.4,1.1-0.7,1.7c-0.2,0.6-0.5,1.1-0.7,1.6
			c-0.2,0.5-0.5,1-0.7,1.4v2.5c0,0.2,0,0.3-0.1,0.4c-0.1,0.1-0.2,0.1-0.4,0.1H55.7z"/>
		<path id="XMLID_423_" class="st0" d="M64.9,29.3c-0.2,0.2-0.4,0.4-0.7,0.6c-0.3,0.1-0.8,0.2-1.3,0.2h-0.2c-0.8,0-1.4-0.2-1.8-0.6
			c-0.4-0.4-0.7-1-0.7-1.8v-0.2c0-0.9,0.2-1.4,0.7-1.8c0.5-0.3,1.2-0.5,2.3-0.5h0.1c0.2,0,0.4,0,0.6,0c0.2,0,0.4,0,0.5,0V25
			c0-0.2,0-0.3,0-0.4c0-0.1-0.1-0.2-0.2-0.3c-0.1-0.1-0.2-0.1-0.3-0.1c-0.1,0-0.3,0-0.6,0c-0.3,0-0.6,0-0.9,0.1
			c-0.3,0-0.6,0.1-0.9,0.2c-0.2,0.1-0.3,0-0.4,0c-0.1-0.1-0.1-0.1-0.1-0.3l-0.1-0.8c0-0.1,0-0.1,0-0.2c0-0.1,0-0.1,0-0.1
			c0-0.1,0-0.2,0.1-0.2c0-0.1,0.1-0.1,0.3-0.2c0.3-0.1,0.7-0.2,1.2-0.2c0.4-0.1,0.9-0.1,1.4-0.1c0.6,0,1.1,0.1,1.5,0.2
			c0.4,0.1,0.7,0.3,1,0.6c0.4,0.4,0.6,1,0.6,1.9v4.5c0,0.2,0,0.3-0.1,0.3c-0.1,0.1-0.2,0.1-0.4,0.1h-0.7c-0.2,0-0.3,0-0.4-0.1
			c-0.1,0-0.1-0.1-0.2-0.3L64.9,29.3L64.9,29.3z M64.4,26.9c-0.1,0-0.2,0-0.3,0c-0.1,0-0.3,0-0.4,0h-0.2c-0.4,0-0.6,0-0.8,0.1
			c-0.2,0.1-0.2,0.3-0.2,0.6v0.1c0,0.3,0.1,0.5,0.2,0.6c0.2,0.1,0.4,0.1,0.6,0.1h0.1c0.2,0,0.3,0,0.4-0.1c0.1,0,0.2-0.1,0.3-0.2
			c0.1-0.1,0.1-0.2,0.2-0.3c0-0.1,0-0.3,0-0.5V26.9z"/>
		<path id="XMLID_421_" class="st0" d="M74.9,29.5c0,0.1,0,0.3-0.1,0.3c-0.1,0.1-0.2,0.1-0.4,0.1h-1.4c-0.2,0-0.3,0-0.4-0.1
			c-0.1-0.1-0.1-0.2-0.1-0.3v-4.3c0-0.3-0.1-0.6-0.2-0.7c-0.1-0.1-0.3-0.2-0.7-0.2h0c-0.3,0-0.5,0.1-0.7,0.2
			c-0.1,0.1-0.2,0.4-0.2,0.7v4.3c0,0.1,0,0.3-0.1,0.3c-0.1,0.1-0.2,0.1-0.4,0.1h-1.4c-0.2,0-0.3,0-0.4-0.1c-0.1-0.1-0.1-0.2-0.1-0.3
			v-6.6c0-0.2,0-0.3,0.1-0.3c0.1-0.1,0.2-0.1,0.4-0.1h0.7c0.2,0,0.3,0,0.4,0.1c0.1,0,0.1,0.1,0.2,0.3l0.1,0.3h0
			c0.5-0.5,1.2-0.8,2.1-0.8h0.1c0.4,0,0.8,0.1,1.1,0.2c0.3,0.1,0.6,0.3,0.9,0.5c0.2-0.2,0.5-0.4,0.9-0.5c0.4-0.1,0.7-0.2,1.2-0.2
			h0.1c0.9,0,1.5,0.2,1.9,0.6c0.2,0.2,0.3,0.5,0.4,0.8C79,24,79,24.4,79,25v4.5c0,0.1,0,0.3-0.1,0.3c-0.1,0.1-0.2,0.1-0.4,0.1h-1.4
			c-0.2,0-0.3,0-0.4-0.1c-0.1-0.1-0.1-0.2-0.1-0.3v-4.3c0-0.3-0.1-0.6-0.2-0.7c-0.1-0.1-0.3-0.2-0.7-0.2h0c-0.3,0-0.5,0.1-0.7,0.2
			c-0.1,0.1-0.2,0.4-0.2,0.7V29.5z"/>
		<path id="XMLID_418_" class="st0" d="M84.8,29.3c-0.2,0.2-0.4,0.4-0.7,0.6c-0.3,0.1-0.8,0.2-1.3,0.2h-0.2c-0.8,0-1.4-0.2-1.8-0.6
			c-0.4-0.4-0.7-1-0.7-1.8v-0.2c0-0.9,0.2-1.4,0.7-1.8c0.5-0.3,1.2-0.5,2.3-0.5h0.1c0.2,0,0.4,0,0.6,0c0.2,0,0.4,0,0.5,0V25
			c0-0.2,0-0.3,0-0.4c0-0.1-0.1-0.2-0.2-0.3c-0.1-0.1-0.2-0.1-0.3-0.1c-0.1,0-0.3,0-0.6,0c-0.3,0-0.6,0-0.9,0.1
			c-0.3,0-0.6,0.1-0.9,0.2c-0.2,0.1-0.3,0-0.4,0c-0.1-0.1-0.1-0.1-0.1-0.3l-0.1-0.8c0-0.1,0-0.1,0-0.2c0-0.1,0-0.1,0-0.1
			c0-0.1,0-0.2,0.1-0.2c0-0.1,0.1-0.1,0.3-0.2c0.3-0.1,0.7-0.2,1.2-0.2c0.4-0.1,0.9-0.1,1.4-0.1c0.6,0,1.1,0.1,1.5,0.2
			c0.4,0.1,0.7,0.3,1,0.6c0.4,0.4,0.6,1,0.6,1.9v4.5c0,0.2,0,0.3-0.1,0.3c-0.1,0.1-0.2,0.1-0.4,0.1h-0.7c-0.2,0-0.3,0-0.4-0.1
			c-0.1,0-0.1-0.1-0.2-0.3L84.8,29.3L84.8,29.3z M84.3,26.9c-0.1,0-0.2,0-0.3,0c-0.1,0-0.3,0-0.4,0h-0.2c-0.4,0-0.6,0-0.8,0.1
			c-0.2,0.1-0.2,0.3-0.2,0.6v0.1c0,0.3,0.1,0.5,0.2,0.6c0.2,0.1,0.4,0.1,0.6,0.1h0.1c0.2,0,0.3,0,0.4-0.1c0.1,0,0.2-0.1,0.3-0.2
			c0.1-0.1,0.1-0.2,0.2-0.3c0-0.1,0-0.3,0-0.5V26.9z"/>
		<path id="XMLID_416_" class="st0" d="M91.5,24.3c-0.3,0-0.5,0.1-0.7,0.2c-0.1,0.1-0.2,0.4-0.2,0.7v4.3c0,0.1,0,0.3-0.1,0.3
			c-0.1,0.1-0.2,0.1-0.4,0.1h-1.4c-0.2,0-0.3,0-0.4-0.1c-0.1-0.1-0.1-0.2-0.1-0.3v-9.4c0-0.1,0-0.3,0.1-0.3c0.1-0.1,0.2-0.1,0.4-0.1
			h1.4c0.2,0,0.3,0,0.4,0.1c0.1,0.1,0.1,0.2,0.1,0.3v2.7h0c0.4-0.3,1-0.4,1.6-0.4h0c0.9,0,1.5,0.2,1.9,0.6c0.2,0.2,0.3,0.5,0.4,0.8
			c0.1,0.3,0.1,0.7,0.1,1.2v4.5c0,0.1,0,0.3-0.1,0.3c-0.1,0.1-0.2,0.1-0.4,0.1h-1.4c-0.2,0-0.3,0-0.4-0.1c-0.1-0.1-0.1-0.2-0.1-0.3
			v-4.3c0-0.3-0.1-0.6-0.2-0.7C92.1,24.3,91.9,24.3,91.5,24.3L91.5,24.3z"/>
		<path id="XMLID_413_" class="st0" d="M100.7,29.3c-0.2,0.2-0.4,0.4-0.7,0.6c-0.3,0.1-0.8,0.2-1.3,0.2h-0.2c-0.8,0-1.4-0.2-1.8-0.6
			c-0.4-0.4-0.7-1-0.7-1.8v-0.2c0-0.9,0.2-1.4,0.7-1.8c0.5-0.3,1.2-0.5,2.3-0.5h0.1c0.2,0,0.4,0,0.6,0c0.2,0,0.4,0,0.5,0V25
			c0-0.2,0-0.3,0-0.4c0-0.1-0.1-0.2-0.2-0.3c-0.1-0.1-0.2-0.1-0.3-0.1c-0.1,0-0.3,0-0.6,0c-0.3,0-0.6,0-0.9,0.1
			c-0.3,0-0.6,0.1-0.9,0.2c-0.2,0.1-0.3,0-0.4,0c-0.1-0.1-0.1-0.1-0.1-0.3l-0.1-0.8c0-0.1,0-0.1,0-0.2c0-0.1,0-0.1,0-0.1
			c0-0.1,0-0.2,0.1-0.2c0-0.1,0.1-0.1,0.3-0.2c0.3-0.1,0.7-0.2,1.2-0.2c0.4-0.1,0.9-0.1,1.4-0.1c0.6,0,1.1,0.1,1.5,0.2
			c0.4,0.1,0.7,0.3,1,0.6c0.4,0.4,0.6,1,0.6,1.9v4.5c0,0.2,0,0.3-0.1,0.3c-0.1,0.1-0.2,0.1-0.4,0.1h-0.7c-0.2,0-0.3,0-0.4-0.1
			c-0.1,0-0.1-0.1-0.2-0.3L100.7,29.3L100.7,29.3z M100.2,26.9c-0.1,0-0.2,0-0.3,0c-0.1,0-0.3,0-0.4,0h-0.2c-0.4,0-0.6,0-0.8,0.1
			c-0.2,0.1-0.2,0.3-0.2,0.6v0.1c0,0.3,0.1,0.5,0.2,0.6c0.2,0.1,0.4,0.1,0.6,0.1h0.1c0.2,0,0.3,0,0.4-0.1c0.1,0,0.2-0.1,0.3-0.2
			c0.1-0.1,0.1-0.2,0.2-0.3c0-0.1,0-0.3,0-0.5V26.9z"/>
	</g>
	<g id="XMLID_186_">
		<path id="XMLID_409_" class="st0" d="M56.6,38.1c-0.1,0-0.2,0-0.2,0c-0.1,0-0.1,0-0.1,0c0,0-0.1,0-0.1-0.1c0,0,0-0.1,0-0.1
			L56,37.1h-1.6l-0.2,0.7c0,0,0,0.1,0,0.1c0,0,0,0.1-0.1,0.1c0,0-0.1,0-0.1,0c-0.1,0-0.1,0-0.2,0h-0.7c-0.1,0-0.2,0-0.2,0
			c0,0-0.1-0.1-0.1-0.1c0,0,0-0.1,0-0.1c0-0.1,0-0.2,0.1-0.3c0.2-0.8,0.5-1.5,0.7-2.2c0.2-0.7,0.4-1.4,0.7-2.1
			c0-0.1,0.1-0.2,0.2-0.3c0.1-0.1,0.2-0.1,0.4-0.1h0.8c0.2,0,0.3,0,0.4,0.1c0.1,0.1,0.2,0.2,0.2,0.3c0.2,0.7,0.5,1.4,0.7,2.1
			c0.2,0.7,0.4,1.5,0.7,2.2c0,0.2,0.1,0.3,0.1,0.3c0,0.1,0,0.1,0,0.1c0,0.1,0,0.1-0.1,0.1c0,0-0.1,0-0.2,0H56.6z M55.8,36l-0.5-1.9
			h-0.1c0,0.1-0.1,0.3-0.1,0.5c0,0.2-0.1,0.3-0.1,0.5c0,0.2-0.1,0.3-0.1,0.5c0,0.2-0.1,0.3-0.1,0.4H55.8z"/>
		<path id="XMLID_407_" class="st0" d="M59.7,36.8c0,0.1,0,0.1,0,0.1c0,0,0.1,0,0.2,0h1.3c0.1,0,0.2,0,0.2,0c0,0,0,0.1,0,0.2v0.6
			c0,0.1,0,0.2,0,0.2c0,0-0.1,0.1-0.2,0.1h-2c-0.3,0-0.6-0.1-0.7-0.2c-0.1-0.1-0.2-0.4-0.2-0.7V33c0-0.1,0-0.2,0-0.2
			c0,0,0.1,0,0.2,0h0.8c0.1,0,0.2,0,0.2,0c0,0,0,0.1,0,0.2V36.8z"/>
		<path id="XMLID_405_" class="st0" d="M63.6,36.8c0,0.1,0,0.1,0,0.1c0,0,0.1,0,0.2,0h1.3c0.1,0,0.2,0,0.2,0c0,0,0,0.1,0,0.2v0.6
			c0,0.1,0,0.2,0,0.2c0,0-0.1,0.1-0.2,0.1h-2c-0.3,0-0.6-0.1-0.7-0.2c-0.1-0.1-0.2-0.4-0.2-0.7V33c0-0.1,0-0.2,0-0.2
			c0,0,0.1,0,0.2,0h0.8c0.1,0,0.2,0,0.2,0c0,0,0,0.1,0,0.2V36.8z"/>
		<path id="XMLID_403_" class="st0" d="M69.3,35.3L69.3,35.3l0,2.5c0,0.1,0,0.2-0.1,0.2c0,0-0.1,0.1-0.2,0.1h-0.7
			c-0.1,0-0.2,0-0.2-0.1c0,0-0.1-0.1-0.1-0.2V33c0-0.1,0-0.2,0.1-0.2c0,0,0.1-0.1,0.2-0.1h0.4c0.1,0,0.2,0,0.3,0
			c0.1,0,0.1,0.1,0.2,0.2l1.8,2.7h0V33c0-0.1,0-0.2,0.1-0.2c0,0,0.1-0.1,0.2-0.1H72c0.1,0,0.2,0,0.2,0.1c0,0,0.1,0.1,0.1,0.2v4.8
			c0,0.1,0,0.2-0.1,0.2c0,0-0.1,0.1-0.2,0.1h-0.4c-0.1,0-0.2,0-0.3,0c-0.1,0-0.1-0.1-0.2-0.2L69.3,35.3z"/>
		<path id="XMLID_401_" class="st0" d="M74.6,35.9c0,0.2,0,0.3,0,0.5c0,0.2,0,0.3,0,0.4c0,0.1,0,0.1,0.1,0.1c0,0,0.1,0,0.1,0h1.8
			c0.1,0,0.2,0,0.2,0c0,0,0,0.1,0,0.2v0.6c0,0.1,0,0.2,0,0.2c0,0-0.1,0.1-0.2,0.1h-2c-0.2,0-0.4,0-0.5,0c-0.1,0-0.3-0.1-0.4-0.1
			c-0.1-0.1-0.2-0.2-0.2-0.3c-0.1-0.1-0.1-0.3-0.1-0.4c0-0.3,0-0.5,0-0.8c0-0.3,0-0.5,0-0.8v-0.5c0-0.2,0-0.4,0-0.6
			c0-0.2,0-0.5,0-0.7c0-0.2,0.1-0.4,0.1-0.5c0.1-0.1,0.1-0.2,0.2-0.3s0.2-0.1,0.4-0.2c0.2,0,0.3,0,0.6,0h2c0.1,0,0.2,0,0.2,0
			c0,0,0,0.1,0,0.2v0.6c0,0.1,0,0.2,0,0.2c0,0-0.1,0-0.2,0h-1.8c-0.1,0-0.1,0-0.2,0c0,0,0,0.1,0,0.1l0,0.8h1.8c0.1,0,0.2,0,0.2,0
			c0,0,0.1,0.1,0.1,0.2v0.6c0,0.1,0,0.1-0.1,0.2c0,0-0.1,0-0.2,0H74.6z"/>
		<path id="XMLID_399_" class="st0" d="M80.7,35.1c-0.1,0.5-0.2,1-0.3,1.5c-0.1,0.5-0.2,0.9-0.3,1.3c0,0.1-0.1,0.2-0.1,0.2
			c-0.1,0-0.2,0.1-0.3,0.1h-0.7c-0.2,0-0.3,0-0.3-0.1c-0.1,0-0.1-0.1-0.1-0.2c-0.2-0.8-0.4-1.6-0.6-2.4c-0.2-0.8-0.3-1.7-0.5-2.5
			c0-0.1,0-0.1,0-0.2c0,0,0.1,0,0.2,0h0.8c0.1,0,0.2,0,0.2,0c0.1,0,0.1,0.1,0.1,0.2l0.6,3.7h0l0.7-3.3c0-0.1,0.1-0.1,0.1-0.2
			c0.1,0,0.1,0,0.2,0h0.7c0.1,0,0.2,0,0.2,0c0.1,0,0.1,0.1,0.1,0.2l0.7,3.3h0c0.1-0.5,0.2-1.1,0.2-1.7c0.1-0.6,0.2-1.3,0.3-2
			c0-0.1,0-0.2,0.1-0.2c0.1,0,0.1,0,0.2,0h0.8c0.1,0,0.2,0,0.2,0c0,0,0,0.1,0,0.2c-0.1,0.8-0.3,1.6-0.5,2.5
			c-0.2,0.8-0.4,1.6-0.6,2.4c0,0.1-0.1,0.2-0.1,0.2c-0.1,0-0.2,0.1-0.3,0.1h-0.7c-0.2,0-0.3,0-0.3-0.1c-0.1,0-0.1-0.1-0.1-0.2
			c-0.1-0.4-0.2-0.8-0.3-1.3C80.9,36.1,80.8,35.6,80.7,35.1L80.7,35.1z"/>
		<path id="XMLID_397_" class="st0" d="M88.1,38.2c-0.1,0-0.2,0-0.4,0s-0.3,0-0.4,0c-0.1,0-0.3,0-0.4-0.1c-0.1,0-0.2-0.1-0.3-0.1
			c-0.1,0-0.2-0.1-0.2-0.1c0-0.1,0-0.1,0-0.2l0.1-0.7c0-0.2,0.1-0.2,0.3-0.2c0.2,0.1,0.5,0.1,0.7,0.2c0.2,0,0.4,0.1,0.6,0.1h0
			c0.3,0,0.4,0,0.5-0.1c0.1-0.1,0.2-0.2,0.2-0.4v-0.1c0-0.2,0-0.3-0.1-0.3c-0.1-0.1-0.3-0.1-0.5-0.2l-0.6-0.1
			c-0.2,0-0.4-0.1-0.6-0.2c-0.2-0.1-0.3-0.2-0.4-0.3c-0.1-0.1-0.2-0.3-0.2-0.4c0-0.2-0.1-0.3-0.1-0.5v-0.2c0-0.5,0.1-0.8,0.4-1.1
			c0.2-0.2,0.4-0.3,0.6-0.3c0.3-0.1,0.6-0.1,1-0.1h0.1c0.2,0,0.5,0,0.8,0.1c0.3,0,0.5,0.1,0.6,0.2c0.1,0,0.1,0.1,0.2,0.1
			c0,0.1,0,0.1,0,0.2l-0.1,0.6c0,0.1-0.1,0.2-0.3,0.1c-0.2-0.1-0.4-0.1-0.5-0.1c-0.2,0-0.4,0-0.5,0h0c-0.3,0-0.5,0-0.6,0.1
			c-0.1,0.1-0.2,0.2-0.2,0.3v0.1c0,0.1,0,0.2,0.1,0.3c0.1,0.1,0.2,0.1,0.4,0.1l0.6,0.1c0.2,0,0.4,0.1,0.6,0.2
			c0.2,0.1,0.3,0.2,0.4,0.3c0.1,0.1,0.2,0.3,0.2,0.4c0,0.2,0.1,0.4,0.1,0.6v0.2c0,0.5-0.2,1-0.5,1.2C89.4,38,88.9,38.2,88.1,38.2
			L88.1,38.2z"/>
		<path id="XMLID_394_" class="st0" d="M95.4,35.7c0,0.5-0.1,0.9-0.2,1.2c-0.1,0.3-0.3,0.6-0.5,0.8c-0.2,0.1-0.4,0.2-0.6,0.3
			c-0.2,0.1-0.6,0.1-0.9,0.1h-0.1c-0.4,0-0.7,0-0.9-0.1c-0.2-0.1-0.5-0.2-0.6-0.3c-0.3-0.2-0.4-0.5-0.5-0.8
			c-0.1-0.3-0.2-0.8-0.2-1.2v-0.6c0-0.5,0.1-0.9,0.2-1.2c0.1-0.3,0.3-0.6,0.5-0.8c0.2-0.1,0.4-0.2,0.6-0.3c0.2-0.1,0.6-0.1,0.9-0.1
			h0.1c0.4,0,0.7,0,0.9,0.1c0.2,0.1,0.5,0.2,0.6,0.3c0.3,0.2,0.4,0.5,0.5,0.8c0.1,0.3,0.2,0.8,0.2,1.2V35.7z M93.9,35.2
			c0-0.3,0-0.6,0-0.8c0-0.2-0.1-0.4-0.2-0.5c-0.1-0.1-0.1-0.1-0.2-0.1c-0.1,0-0.2,0-0.3,0H93c-0.1,0-0.2,0-0.3,0
			c-0.1,0-0.2,0.1-0.2,0.1c-0.1,0.1-0.2,0.3-0.2,0.5c0,0.2,0,0.5,0,0.8v0.3c0,0.3,0,0.6,0,0.8c0,0.2,0.1,0.4,0.2,0.5
			c0.1,0.1,0.1,0.1,0.2,0.1c0.1,0,0.2,0,0.3,0h0.1c0.1,0,0.2,0,0.3,0c0.1,0,0.2-0.1,0.2-0.1c0.1-0.1,0.2-0.3,0.2-0.5
			c0-0.2,0-0.5,0-0.8V35.2z"/>
		<path id="XMLID_380_" class="st0" d="M99.1,33c0-0.1,0-0.2,0-0.2c0,0,0.1,0,0.2,0h0.8c0.1,0,0.2,0,0.2,0c0,0,0,0.1,0,0.2v3.2
			c0,0.4,0,0.7-0.1,0.9c-0.1,0.2-0.2,0.4-0.4,0.6c-0.3,0.3-0.9,0.5-1.6,0.5h-0.1c-0.4,0-0.7,0-1-0.1c-0.3-0.1-0.5-0.2-0.6-0.3
			c-0.2-0.2-0.3-0.4-0.4-0.6c-0.1-0.2-0.1-0.5-0.1-0.9V33c0-0.1,0-0.2,0-0.2c0,0,0.1,0,0.2,0h0.8c0.1,0,0.2,0,0.2,0c0,0,0,0.1,0,0.2
			v3.2c0,0.2,0,0.3,0,0.4c0,0.1,0.1,0.2,0.1,0.3c0.1,0.1,0.3,0.2,0.6,0.2h0c0.3,0,0.5-0.1,0.6-0.2c0.1-0.1,0.1-0.1,0.1-0.3
			c0-0.1,0-0.2,0-0.4V33z"/>
		<path id="XMLID_378_" class="st0" d="M102.9,36.8c0,0.1,0,0.1,0,0.1c0,0,0.1,0,0.2,0h1.3c0.1,0,0.2,0,0.2,0c0,0,0,0.1,0,0.2v0.6
			c0,0.1,0,0.2,0,0.2c0,0-0.1,0.1-0.2,0.1h-2c-0.3,0-0.6-0.1-0.7-0.2c-0.1-0.1-0.2-0.4-0.2-0.7V33c0-0.1,0-0.2,0-0.2
			c0,0,0.1,0,0.2,0h0.8c0.1,0,0.2,0,0.2,0c0,0,0,0.1,0,0.2V36.8z"/>
		<path id="XMLID_376_" class="st0" d="M53.1,41.9c0-0.4,0-0.8,0.1-1c0.1-0.3,0.2-0.5,0.4-0.7c0.2-0.2,0.4-0.3,0.7-0.4
			c0.3-0.1,0.6-0.1,1.1-0.1h0.1c0.2,0,0.3,0,0.5,0c0.2,0,0.3,0.1,0.5,0.1c0.2,0,0.3,0.1,0.4,0.1c0.1,0,0.3,0.1,0.4,0.2
			c0.1,0,0.1,0.1,0.1,0.1c0,0,0,0.1,0,0.1c0,0,0,0.1,0,0.1c0,0,0,0.1-0.1,0.2L57.1,41c-0.1,0.1-0.1,0.2-0.3,0.1
			c-0.2-0.1-0.4-0.2-0.6-0.2c-0.2-0.1-0.4-0.1-0.7-0.1h0c-0.4,0-0.6,0.1-0.8,0.3c-0.1,0.1-0.1,0.2-0.1,0.4c0,0.2,0,0.4,0,0.6v0.6
			c0,0.3,0,0.5,0,0.7c0,0.2,0.1,0.3,0.2,0.4c0.1,0.1,0.2,0.1,0.3,0.2c0.1,0,0.2,0,0.4,0h0c0.1,0,0.2,0,0.2,0c0.1,0,0.1,0,0.2,0
			c0.1,0,0.1,0,0.1-0.1c0,0,0-0.1,0-0.1V43h-0.4c-0.1,0-0.2,0-0.2,0c0,0,0-0.1,0-0.2v-0.6c0-0.1,0-0.2,0-0.2c0,0,0.1,0,0.2,0h1.6
			c0.1,0,0.2,0,0.2,0.1c0,0,0.1,0.1,0.1,0.2v2.2c0,0.1,0,0.2-0.1,0.2c0,0.1-0.1,0.1-0.2,0.1c-0.1,0-0.2,0.1-0.4,0.1
			c-0.1,0-0.3,0.1-0.4,0.1c-0.1,0-0.3,0-0.4,0.1c-0.1,0-0.3,0-0.4,0h-0.1c-0.4,0-0.8,0-1.1-0.1c-0.3-0.1-0.5-0.2-0.7-0.4
			c-0.2-0.2-0.3-0.4-0.4-0.7c-0.1-0.3-0.1-0.6-0.1-1.1V41.9z"/>
		<path id="XMLID_218_" class="st0" d="M58.2,40.8c-0.1,0-0.2,0-0.2,0c0,0,0-0.1,0-0.2V40c0-0.1,0-0.2,0-0.2c0,0,0.1,0,0.2,0h3.6
			c0.1,0,0.2,0,0.2,0c0,0,0,0.1,0,0.2v0.6c0,0.1,0,0.2,0,0.2c0,0-0.1,0-0.2,0h-1.1v4c0,0.1,0,0.2-0.1,0.2c0,0-0.1,0.1-0.2,0.1h-0.8
			c-0.1,0-0.2,0-0.2-0.1c0,0-0.1-0.1-0.1-0.2v-4H58.2z"/>
		<path id="XMLID_215_" class="st0" d="M65.1,45.1c-0.1,0-0.2,0-0.2-0.1c0,0-0.1-0.1-0.1-0.2v-0.5c0-0.1,0-0.2,0.1-0.2
			c0,0,0.1-0.1,0.2-0.1h0.9v-2.9h0l-0.7,0.3c-0.1,0-0.1,0-0.2,0c-0.1,0-0.1,0-0.1-0.1l-0.3-0.5c-0.1-0.2,0-0.3,0.1-0.4l1.3-0.6
			c0.1,0,0.2-0.1,0.2-0.1c0.1,0,0.2,0,0.3,0H67c0.1,0,0.2,0,0.2,0.1c0,0,0.1,0.1,0.1,0.2v4h0.7c0.1,0,0.2,0,0.2,0.1
			c0,0,0.1,0.1,0.1,0.2v0.5c0,0.1,0,0.2-0.1,0.2c0,0-0.1,0.1-0.2,0.1H65.1z"/>
		<path id="XMLID_189_" class="st0" d="M71.1,40.8c-0.2,0-0.3,0-0.5,0.1c-0.2,0-0.4,0.1-0.6,0.2c-0.1,0-0.2,0-0.3-0.1l-0.1-0.6
			c0-0.1,0-0.1,0-0.2c0,0,0.1-0.1,0.1-0.1c0.2-0.1,0.5-0.2,0.8-0.2c0.3-0.1,0.6-0.1,0.9-0.1h0c0.5,0,1,0.1,1.3,0.3
			c0.3,0.2,0.5,0.6,0.5,1.1v0.1c0,0.2,0,0.4-0.1,0.6c0,0.2-0.1,0.3-0.2,0.4c-0.1,0.1-0.2,0.3-0.3,0.4c-0.1,0.1-0.3,0.2-0.5,0.3
			l-0.4,0.2c-0.2,0.1-0.4,0.2-0.5,0.2c-0.1,0.1-0.2,0.1-0.3,0.2c-0.1,0.1-0.1,0.1-0.1,0.2c0,0.1,0,0.1,0,0.2V44h2.2
			c0.1,0,0.2,0,0.2,0.1c0,0,0,0.1,0,0.2v0.5c0,0.1,0,0.2-0.1,0.2c0,0-0.1,0.1-0.2,0.1h-3.2c-0.1,0-0.2,0-0.2-0.1
			c0,0-0.1-0.1-0.1-0.2v-0.5c0-0.3,0-0.5,0.1-0.7c0-0.2,0.1-0.4,0.2-0.5c0.1-0.2,0.2-0.3,0.4-0.4c0.2-0.1,0.4-0.2,0.6-0.3l0.4-0.2
			c0.1-0.1,0.3-0.1,0.4-0.2c0.1-0.1,0.2-0.1,0.2-0.2c0.1-0.1,0.1-0.1,0.1-0.2c0-0.1,0-0.2,0-0.2v-0.1C71.7,40.9,71.5,40.8,71.1,40.8
			L71.1,40.8z"/>
		<path id="XMLID_187_" class="st0" d="M75.7,40.8c-0.1,0-0.1,0-0.1,0.1l0,0.8c0.1,0,0.2-0.1,0.4-0.1c0.1,0,0.3,0,0.4,0h0.1
			c0.5,0,0.9,0.1,1.2,0.4c0.1,0.1,0.2,0.3,0.3,0.5c0.1,0.2,0.1,0.5,0.1,0.8v0.1c0,0.3,0,0.6-0.1,0.8c-0.1,0.2-0.2,0.4-0.4,0.5
			c-0.2,0.1-0.4,0.2-0.6,0.3c-0.3,0.1-0.6,0.1-0.9,0.1h-0.1c-0.1,0-0.3,0-0.4,0c-0.1,0-0.3,0-0.4-0.1c-0.1,0-0.3-0.1-0.4-0.1
			c-0.1,0-0.3-0.1-0.4-0.1c-0.1,0-0.2-0.1-0.2-0.2c0,0,0-0.1,0-0.1c0,0,0-0.1,0-0.1l0.1-0.4c0-0.1,0.1-0.2,0.1-0.2
			c0.1,0,0.1,0,0.2,0c0.2,0.1,0.4,0.1,0.6,0.2c0.2,0,0.4,0.1,0.6,0.1h0.1c0.2,0,0.4,0,0.6-0.1c0.1,0,0.1-0.1,0.1-0.2
			c0-0.1,0-0.2,0-0.4v-0.1c0-0.1,0-0.2,0-0.3c0-0.1-0.1-0.2-0.1-0.2c-0.1-0.1-0.3-0.1-0.5-0.1h0c-0.1,0-0.3,0-0.5,0.1
			c-0.2,0-0.3,0.1-0.5,0.1c0,0-0.1,0-0.1,0c0,0-0.1,0-0.1,0c0,0-0.1,0-0.1,0c0,0-0.1,0-0.1,0l-0.3-0.2c0,0-0.1-0.1-0.1-0.1
			c0,0,0-0.1,0-0.1c0,0,0,0,0-0.1c0,0,0-0.1,0-0.3l0.1-2.1c0-0.1,0-0.2,0.1-0.2c0,0,0.1-0.1,0.2-0.1h2.7c0.1,0,0.2,0,0.2,0
			c0,0,0.1,0.1,0.1,0.2v0.6c0,0.1,0,0.1-0.1,0.2c0,0-0.1,0-0.2,0H75.7z"/>
	</g>
</g>
</svg>
