<?xml version="1.0" encoding="utf-8"?>
<!-- Generator: Adobe Illustrator 19.0.0, SVG Export Plug-In . SVG Version: 6.00 Build 0)  -->
<svg version="1.1" id="Layer_1" xmlns="http://www.w3.org/2000/svg" xmlns:xlink="http://www.w3.org/1999/xlink" x="0px" y="0px"
	 width="33.6px" height="11.1px" viewBox="0 0 33.6 11.1" style="enable-background:new 0 0 33.6 11.1;" xml:space="preserve">
<style type="text/css">
	.st0{fill:#FFFFFF;}
</style>
<g id="XMLID_343_">
	<path id="XMLID_344_" class="st0" d="M1.3,5.6v2.9H0V0.3h3.1c1.9,0,2.8,0.9,2.8,2.6c0,1.2-0.4,2-1.3,2.4l1.4,3.2H4.5L3.3,5.6H1.3z
		 M4.5,2.9c0-1-0.5-1.5-1.4-1.5H1.3v3h1.8C3.6,4.4,4,4.3,4.2,4C4.4,3.7,4.5,3.4,4.5,2.9z"/>
	<path id="XMLID_347_" class="st0" d="M11.4,7.4l0.3,0l0,1c-0.9,0.2-1.7,0.3-2.4,0.3c-0.9,0-1.5-0.2-1.9-0.7
		C7.1,7.4,6.9,6.6,6.9,5.6c0-2.1,0.9-3.2,2.6-3.2c1.7,0,2.5,0.9,2.5,2.7L11.9,6H8.2c0,0.5,0.1,0.9,0.3,1.1s0.6,0.3,1.2,0.3
		C10.3,7.5,10.8,7.5,11.4,7.4z M10.7,5c0-0.6-0.1-1-0.3-1.2c-0.2-0.2-0.5-0.4-1-0.4s-0.8,0.1-1,0.4C8.3,4.1,8.2,4.5,8.2,5H10.7z"/>
	<path id="XMLID_388_" class="st0" d="M13.3,11.1V2.5h1.3v0.4c0.6-0.3,1.1-0.5,1.5-0.5c0.8,0,1.4,0.2,1.7,0.7
		c0.4,0.5,0.6,1.3,0.6,2.4c0,1.1-0.2,1.9-0.6,2.4s-1.1,0.7-2.1,0.7c-0.3,0-0.7,0-1.1-0.1v2.6H13.3z M15.9,3.5
		c-0.4,0-0.8,0.1-1.1,0.3l-0.2,0.1v3.5c0.3,0.1,0.7,0.1,1.1,0.1c0.5,0,0.9-0.2,1.1-0.5c0.2-0.3,0.3-0.8,0.3-1.6
		C17.1,4.2,16.7,3.5,15.9,3.5z"/>
	<path id="XMLID_391_" class="st0" d="M19.8,8.5V0h1.3v8.5H19.8z"/>
	<path id="XMLID_393_" class="st0" d="M27.2,4.3v2.7c0,0.2,0.1,0.3,0.1,0.4s0.2,0.1,0.4,0.2l0,1c-0.7,0-1.2-0.1-1.6-0.4
		c-0.6,0.3-1.3,0.4-1.9,0.4c-1.2,0-1.8-0.6-1.8-1.9c0-0.6,0.2-1,0.5-1.3c0.3-0.3,0.8-0.4,1.5-0.5l1.5-0.1V4.3c0-0.3-0.1-0.5-0.2-0.7
		c-0.1-0.1-0.3-0.2-0.6-0.2c-0.5,0-1.2,0-1.9,0.1l-0.4,0l0-0.9c0.9-0.2,1.7-0.3,2.4-0.3s1.3,0.2,1.6,0.5C27,3.2,27.2,3.7,27.2,4.3z
		 M24.5,5.8c-0.6,0-0.8,0.3-0.8,0.9c0,0.6,0.2,0.8,0.7,0.8c0.4,0,0.8-0.1,1.3-0.2l0.2-0.1V5.7L24.5,5.8z"/>
	<path id="XMLID_500_" class="st0" d="M28.2,2.5h1.3l1.3,4.9h0.3l1.3-4.9h1.3l-2.3,8.6h-1.3l0.7-2.6h-1L28.2,2.5z"/>
</g>
</svg>
