<?xml version="1.0" encoding="utf-8"?>
<!-- Generator: Adobe Illustrator 19.0.0, SVG Export Plug-In . SVG Version: 6.00 Build 0)  -->
<svg version="1.1" id="Layer_1" xmlns="http://www.w3.org/2000/svg" xmlns:xlink="http://www.w3.org/1999/xlink" x="0px" y="0px"
	 width="122px" height="48px" viewBox="0 0 122 48" style="enable-background:new 0 0 122 48;" xml:space="preserve">
<style type="text/css">
	.st0{fill:#002DBB;}
	.st1{fill:#FFF300;}
	.st2{fill:#014EA2;}
</style>
<g id="XMLID_236_">
	<path id="XMLID_246_" class="st0" d="M112,48H10C4.5,48,0,43.5,0,38V10C0,4.5,4.5,0,10,0h102c5.5,0,10,4.5,10,10v28
		C122,43.5,117.5,48,112,48z"/>
	<path id="XMLID_111_" class="st1" d="M111,46.5H11c-4.9,0-9-4-9-9V10.5c0-4.9,4-9,9-9H111c4.9,0,9,4,9,9v27.1
		C120,42.5,116,46.5,111,46.5z"/>
	<g id="XMLID_119_">
		<g id="XMLID_120_">
			<path id="XMLID_121_" class="st2" d="M15.9,6.7c0-0.2,0-0.3,0.1-0.4c0,0,0.2-0.1,0.4-0.1h1.3c0.2,0,0.3,0,0.4,0.1
				s0.1,0.2,0.1,0.4v5.3c0,0.6-0.1,1.1-0.2,1.4c-0.1,0.4-0.3,0.7-0.6,1c-0.5,0.5-1.4,0.7-2.6,0.7h-0.2c-0.6,0-1.2-0.1-1.6-0.2
				c-0.4-0.1-0.8-0.3-1-0.6c-0.3-0.3-0.5-0.6-0.6-1s-0.2-0.9-0.2-1.4V6.7c0-0.2,0-0.3,0.1-0.4s0.2-0.1,0.4-0.1h1.3
				c0.2,0,0.4,0,0.4,0.1s0.1,0.2,0.1,0.4v5.2c0,0.3,0,0.5,0.1,0.7c0,0.2,0.1,0.3,0.2,0.4c0.2,0.2,0.5,0.3,0.9,0.3h0.1
				c0.4,0,0.8-0.1,0.9-0.3c0.1-0.1,0.2-0.2,0.2-0.4s0.1-0.4,0.1-0.7V6.7z"/>
			<path id="XMLID_123_" class="st2" d="M23.1,14.4c-0.1,0.2-0.4,0.4-0.7,0.5s-0.7,0.2-1.1,0.2h-0.2c-0.7,0-1.2-0.2-1.6-0.5
				c-0.4-0.4-0.6-0.9-0.6-1.5v-0.1c0-0.8,0.2-1.3,0.6-1.6c0.4-0.3,1.1-0.4,2-0.4h0.1c0.2,0,0.4,0,0.5,0c0.2,0,0.3,0,0.4,0v-0.3
				c0-0.1,0-0.2,0-0.3s-0.1-0.2-0.2-0.2c-0.1-0.1-0.2-0.1-0.3-0.1c-0.1,0-0.3,0-0.5,0c-0.2,0-0.5,0-0.8,0.1c-0.3,0-0.5,0.1-0.8,0.2
				c-0.2,0-0.3,0-0.3,0s-0.1-0.1-0.1-0.2l-0.1-0.7c0,0,0-0.1,0-0.1c0-0.1,0-0.1,0-0.1c0-0.1,0-0.2,0.1-0.2c0,0,0.1-0.1,0.3-0.1
				c0.3-0.1,0.6-0.2,1-0.2c0.4-0.1,0.8-0.1,1.3-0.1c0.5,0,1,0.1,1.3,0.2c0.4,0.1,0.6,0.3,0.9,0.5c0.3,0.4,0.5,0.9,0.5,1.7v4
				c0,0.1,0,0.2-0.1,0.3c-0.1,0.1-0.2,0.1-0.4,0.1h-0.6c-0.2,0-0.3,0-0.3-0.1s-0.1-0.1-0.2-0.2L23.1,14.4L23.1,14.4z M22.6,12.3
				c-0.1,0-0.2,0-0.3,0c-0.1,0-0.2,0-0.3,0h-0.1c-0.3,0-0.5,0-0.7,0.1c-0.1,0.1-0.2,0.2-0.2,0.5v0.1c0,0.3,0.1,0.4,0.2,0.5
				c0.1,0.1,0.3,0.1,0.6,0.1h0.1c0.2,0,0.3,0,0.4-0.1s0.2-0.1,0.2-0.1c0.1-0.1,0.1-0.2,0.1-0.2s0-0.2,0-0.4V12.3z"/>
			<path id="XMLID_126_" class="st2" d="M29.4,8.2c0.8,0,1.4,0.2,1.7,0.6c0.2,0.2,0.3,0.4,0.4,0.7c0.1,0.3,0.1,0.6,0.1,1.1v4
				c0,0.1,0,0.2-0.1,0.3c-0.1,0.1-0.2,0.1-0.4,0.1h-1.2c-0.2,0-0.3,0-0.4-0.1c-0.1-0.1-0.1-0.2-0.1-0.3v-3.8c0-0.3,0-0.5-0.1-0.6
				C29.2,10,29,10,28.7,10h-0.1c-0.3,0-0.5,0.1-0.6,0.2c-0.1,0.1-0.1,0.3-0.1,0.6v3.8c0,0.1,0,0.2-0.1,0.3c-0.1,0.1-0.2,0.1-0.4,0.1
				h-1.2c-0.2,0-0.3,0-0.4-0.1c-0.1-0.1-0.1-0.2-0.1-0.3V8.7c0-0.1,0-0.2,0.1-0.3c0.1-0.1,0.2-0.1,0.4-0.1h0.6c0.2,0,0.3,0,0.3,0.1
				c0.1,0,0.1,0.1,0.2,0.2l0.1,0.3h0c0.4-0.5,1-0.7,1.8-0.7H29.4z"/>
			<path id="XMLID_128_" class="st2" d="M35.1,14.3c-0.9,0-1.7-0.2-2.1-0.6c-0.5-0.4-0.7-1.1-0.7-2v-0.9c0-0.9,0.2-1.6,0.7-2
				s1.2-0.6,2.1-0.6h0.2c0.1-0.5,0.3-0.8,0.7-1.1c0.4-0.3,0.9-0.4,1.5-0.4h0.7c0.1,0,0.2,0,0.3,0.1s0.1,0.1,0.1,0.3v0.7
				c0,0.1,0,0.2-0.1,0.3c-0.1,0-0.1,0.1-0.3,0.1h-0.6c-0.2,0-0.3,0-0.4,0c-0.1,0-0.2,0.1-0.2,0.2c0.5,0.1,0.9,0.4,1.2,0.8
				c0.2,0.4,0.4,0.9,0.4,1.6v0.9c0,0.5-0.1,0.9-0.2,1.2c-0.1,0.3-0.3,0.6-0.6,0.8c0.3,0.2,0.6,0.4,0.8,0.7s0.3,0.6,0.3,1v0.1
				c0,0.6-0.2,1.1-0.7,1.5c-0.5,0.4-1.3,0.5-2.4,0.5h-0.3c-0.2,0-0.4,0-0.7,0s-0.5-0.1-0.7-0.1s-0.5-0.1-0.7-0.1
				c-0.2-0.1-0.4-0.1-0.6-0.2c-0.2-0.1-0.3-0.3-0.3-0.5l0.2-0.9c0-0.1,0.1-0.2,0.2-0.3c0.1,0,0.2-0.1,0.3,0c0.2,0.1,0.4,0.1,0.5,0.2
				c0.2,0,0.4,0.1,0.6,0.1c0.2,0,0.4,0.1,0.5,0.1c0.2,0,0.3,0,0.5,0h0.2c0.4,0,0.7-0.1,0.9-0.2c0.2-0.1,0.3-0.3,0.3-0.5v0
				c0-0.3-0.1-0.5-0.4-0.7c-0.1,0-0.2,0-0.3,0c-0.1,0-0.2,0-0.4,0H35.1z M35.4,12.7c0.2,0,0.3,0,0.4-0.1c0.1,0,0.2-0.1,0.2-0.1
				c0.1-0.1,0.1-0.2,0.2-0.3c0-0.1,0.1-0.3,0.1-0.6V11c0-0.3,0-0.5-0.1-0.6c0-0.1-0.1-0.2-0.2-0.3c-0.1-0.1-0.1-0.1-0.2-0.1
				c-0.1,0-0.2-0.1-0.4-0.1h-0.1c-0.3,0-0.5,0.1-0.6,0.2c-0.1,0.1-0.1,0.2-0.2,0.3c0,0.1-0.1,0.3-0.1,0.6v0.5c0,0.3,0,0.5,0.1,0.6
				c0,0.1,0.1,0.2,0.2,0.3C34.8,12.6,35,12.7,35.4,12.7L35.4,12.7z"/>
			<path id="XMLID_131_" class="st2" d="M41.7,8.1c-0.2,0-0.3,0-0.4-0.1c-0.1-0.1-0.1-0.2-0.1-0.3v-1c0-0.2,0-0.3,0.1-0.3
				c0.1,0,0.2-0.1,0.4-0.1h5.8c0.2,0,0.3,0,0.4,0.1c0.1,0,0.1,0.2,0.1,0.3v1c0,0.2,0,0.3-0.1,0.3c-0.1,0.1-0.2,0.1-0.4,0.1h-1.8v6.5
				c0,0.2,0,0.3-0.1,0.3c-0.1,0.1-0.2,0.1-0.4,0.1H44c-0.2,0-0.3,0-0.4-0.1c-0.1-0.1-0.1-0.2-0.1-0.3V8.1H41.7z"/>
			<path id="XMLID_133_" class="st2" d="M51.2,8.8c0-0.1,0-0.2,0.1-0.3c0.1-0.1,0.2-0.1,0.4-0.1h1.2c0.2,0,0.3,0,0.4,0.1
				s0.1,0.2,0.1,0.3v4c0,0.4,0,0.8-0.1,1.1c-0.1,0.3-0.3,0.5-0.5,0.7c-0.2,0.2-0.5,0.4-0.9,0.4s-0.8,0.1-1.4,0.1c-0.5,0-1,0-1.4-0.1
				s-0.7-0.2-0.9-0.4c-0.2-0.2-0.4-0.4-0.5-0.7c-0.1-0.3-0.1-0.6-0.1-1.1v-4c0-0.1,0-0.2,0.1-0.3c0.1-0.1,0.2-0.1,0.4-0.1h1.2
				c0.2,0,0.3,0,0.4,0.1c0.1,0.1,0.1,0.2,0.1,0.3v3.8c0,0.3,0,0.5,0.1,0.6c0.1,0.1,0.3,0.2,0.6,0.2c0.3,0,0.5-0.1,0.6-0.2
				c0.1-0.1,0.1-0.3,0.1-0.6V8.8z"/>
			<path id="XMLID_135_" class="st2" d="M58,8.2c0.8,0,1.4,0.2,1.7,0.6C59.9,9,60,9.2,60.1,9.5c0.1,0.3,0.1,0.6,0.1,1.1v4
				c0,0.1,0,0.2-0.1,0.3c-0.1,0.1-0.2,0.1-0.4,0.1h-1.2c-0.2,0-0.3,0-0.4-0.1c-0.1-0.1-0.1-0.2-0.1-0.3v-3.8c0-0.3,0-0.5-0.1-0.6
				C57.8,10,57.6,10,57.3,10h-0.1c-0.3,0-0.5,0.1-0.6,0.2c-0.1,0.1-0.1,0.3-0.1,0.6v3.8c0,0.1,0,0.2-0.1,0.3
				C56.3,14.9,56.2,15,56,15h-1.2c-0.2,0-0.3,0-0.4-0.1c-0.1-0.1-0.1-0.2-0.1-0.3V8.7c0-0.1,0-0.2,0.1-0.3c0.1-0.1,0.2-0.1,0.4-0.1
				h0.6c0.2,0,0.3,0,0.3,0.1c0.1,0,0.1,0.1,0.2,0.2L56,8.9h0c0.4-0.5,1-0.7,1.8-0.7H58z"/>
			<path id="XMLID_137_" class="st2" d="M65,14.4c-0.1,0.2-0.4,0.4-0.7,0.5s-0.7,0.2-1.1,0.2h-0.2c-0.7,0-1.2-0.2-1.6-0.5
				c-0.4-0.4-0.6-0.9-0.6-1.5v-0.1c0-0.8,0.2-1.3,0.6-1.6c0.4-0.3,1.1-0.4,2-0.4h0.1c0.2,0,0.4,0,0.5,0c0.2,0,0.3,0,0.4,0v-0.3
				c0-0.1,0-0.2,0-0.3s-0.1-0.2-0.2-0.2C64.3,10,64.2,10,64,9.9c-0.1,0-0.3,0-0.5,0c-0.2,0-0.5,0-0.8,0.1c-0.3,0-0.5,0.1-0.8,0.2
				c-0.2,0-0.3,0-0.3,0s-0.1-0.1-0.1-0.2l-0.1-0.7c0,0,0-0.1,0-0.1c0-0.1,0-0.1,0-0.1c0-0.1,0-0.2,0.1-0.2c0,0,0.1-0.1,0.3-0.1
				c0.3-0.1,0.6-0.2,1-0.2c0.4-0.1,0.8-0.1,1.3-0.1c0.5,0,1,0.1,1.3,0.2c0.4,0.1,0.6,0.3,0.9,0.5c0.3,0.4,0.5,0.9,0.5,1.7v4
				c0,0.1,0,0.2-0.1,0.3c-0.1,0.1-0.2,0.1-0.4,0.1h-0.6c-0.2,0-0.3,0-0.3-0.1s-0.1-0.1-0.2-0.2L65,14.4L65,14.4z M64.6,12.3
				c-0.1,0-0.2,0-0.3,0c-0.1,0-0.2,0-0.3,0h-0.1c-0.3,0-0.5,0-0.7,0.1c-0.1,0.1-0.2,0.2-0.2,0.5v0.1c0,0.3,0.1,0.4,0.2,0.5
				c0.1,0.1,0.3,0.1,0.6,0.1h0.1c0.2,0,0.3,0,0.4-0.1s0.2-0.1,0.2-0.1c0.1-0.1,0.1-0.2,0.1-0.2s0-0.2,0-0.4V12.3z"/>
			<path id="XMLID_140_" class="st2" d="M68.7,7.9c-0.4,0-0.7-0.1-0.8-0.3c-0.2-0.2-0.2-0.5-0.2-0.8V6.7c0-0.4,0.1-0.6,0.2-0.8
				s0.4-0.3,0.8-0.3h0.2c0.4,0,0.7,0.1,0.8,0.3c0.2,0.2,0.2,0.5,0.2,0.8v0.1c0,0.4-0.1,0.6-0.2,0.8c-0.2,0.2-0.4,0.3-0.8,0.3H68.7z
				 M69.8,14.6c0,0.1,0,0.2-0.1,0.3c-0.1,0.1-0.2,0.1-0.4,0.1h-1.2c-0.2,0-0.3,0-0.4-0.1c-0.1-0.1-0.1-0.2-0.1-0.3V8.8
				c0-0.1,0-0.2,0.1-0.3c0.1-0.1,0.2-0.1,0.4-0.1h1.2c0.2,0,0.3,0,0.4,0.1c0.1,0.1,0.1,0.2,0.1,0.3V14.6z"/>
		</g>
		<g id="XMLID_143_">
			<path id="XMLID_203_" class="st2" d="M16.7,38.5c0,0.4-0.1,0.6-0.2,0.7c-0.1,0.1-0.4,0.1-0.8,0.1h-2.8c-0.4,0-0.7,0-0.8-0.1
				C12,39.1,12,38.9,12,38.5V22c0-0.4,0.1-0.7,0.2-0.8c0.2-0.2,0.4-0.3,0.7-0.3c0.5-0.1,1.2-0.1,2-0.1c0.8,0,1.7-0.1,2.7-0.1h0.6
				c1.5,0,2.7,0.1,3.7,0.4s1.8,0.7,2.4,1.3c0.4,0.4,0.8,1,1,1.6c0.2,0.6,0.4,1.4,0.4,2.3v0.6c0,1-0.1,1.8-0.3,2.4
				c-0.2,0.7-0.5,1.2-0.9,1.7c-0.6,0.6-1.3,1.1-2.2,1.3l3.6,6.1c0.2,0.3,0.2,0.5,0.1,0.7c-0.1,0.2-0.4,0.3-0.8,0.3h-2.8
				c-0.5,0-0.8-0.1-1-0.2c-0.2-0.1-0.4-0.3-0.5-0.6l-2.8-5.5C18,33,18,32.9,17.9,32.9c-0.1,0-0.2-0.1-0.3-0.1h-0.8V38.5z M18,24.6
				c-0.2,0-0.3,0-0.4,0s-0.3,0-0.4,0c-0.2,0-0.3,0.1-0.3,0.1c-0.1,0.1-0.1,0.2-0.1,0.4V29h1.9c0.5,0,0.9,0,1.2-0.1
				c0.3-0.1,0.5-0.2,0.7-0.4c0.3-0.3,0.5-0.9,0.5-1.7v-0.4c0-0.3,0-0.6-0.1-0.9c-0.1-0.2-0.2-0.4-0.3-0.6c-0.3-0.3-1-0.5-1.9-0.5H18
				z"/>
			<path id="XMLID_220_" class="st2" d="M31.2,26.7c0.6-0.6,1.2-0.9,1.8-1.2c0.7-0.2,1.5-0.3,2.4-0.3h0.3c0.9,0,1.7,0.1,2.3,0.4
				c0.6,0.3,1.1,0.6,1.5,1.1s0.6,1,0.8,1.7c0.2,0.7,0.3,1.7,0.3,3v2.1c0,1.1-0.1,2.1-0.3,2.9c-0.2,0.8-0.5,1.4-1.1,1.9
				c-0.5,0.5-1.1,0.9-1.8,1.1c-0.6,0.2-1.4,0.3-2.2,0.3h-0.3c-0.5,0-1-0.1-1.5-0.2s-0.9-0.3-1.2-0.4v4.4c0,0.4-0.1,0.7-0.2,0.8
				c-0.2,0.1-0.5,0.2-1,0.2h-2.2c-0.5,0-0.8-0.1-1-0.2c-0.2-0.1-0.2-0.4-0.2-0.8V26.3c0-0.3,0.1-0.6,0.2-0.7
				c0.2-0.1,0.4-0.2,0.8-0.2h1.2c0.4,0,0.6,0,0.7,0.1c0.1,0.1,0.2,0.2,0.3,0.5L31.2,26.7L31.2,26.7z M32.3,34.3
				c0,0.6,0.1,1.1,0.4,1.4c0.3,0.2,0.7,0.4,1.3,0.4h0.3c0.4,0,0.7,0,0.9-0.1c0.2-0.1,0.4-0.2,0.5-0.4c0.2-0.2,0.2-0.6,0.3-0.9
				s0.1-0.9,0.1-1.6v-1.2c0-0.7,0-1.2,0-1.6c0-0.4-0.1-0.7-0.3-0.9c-0.1-0.2-0.3-0.3-0.5-0.4s-0.5-0.1-0.9-0.1H34
				c-0.3,0-0.6,0-0.8,0.1c-0.2,0.1-0.4,0.2-0.5,0.3s-0.3,0.3-0.3,0.5c0,0.2-0.1,0.5-0.1,1V34.3z"/>
			<path id="XMLID_223_" class="st2" d="M53.3,24.7c-0.3,0-0.4,0.1-0.4,0.4l-0.1,2.6c0.4-0.1,0.8-0.2,1.3-0.3c0.5-0.1,1-0.1,1.5-0.1
				h0.3c1.8,0,3.2,0.4,4,1.3c0.5,0.5,0.8,1.1,1.1,1.8c0.2,0.7,0.3,1.6,0.3,2.7v0.4c0,1.2-0.2,2.1-0.5,2.9c-0.3,0.8-0.8,1.4-1.3,1.9
				c-0.6,0.5-1.3,0.8-2.2,1.1c-0.9,0.2-1.9,0.3-3.1,0.3h-0.3c-0.4,0-0.9,0-1.4-0.1c-0.5-0.1-1-0.1-1.5-0.2c-0.5-0.1-1-0.2-1.5-0.3
				c-0.5-0.1-0.9-0.3-1.3-0.4c-0.4-0.1-0.6-0.4-0.6-0.7c0-0.1,0-0.2,0-0.3s0.1-0.3,0.1-0.4l0.4-1.5c0.1-0.4,0.3-0.7,0.5-0.8
				c0.2-0.1,0.4-0.1,0.7,0c0.7,0.2,1.4,0.5,2.2,0.6s1.5,0.3,2.2,0.3H54c0.8,0,1.5-0.2,2-0.5c0.2-0.2,0.4-0.4,0.5-0.7
				s0.2-0.7,0.2-1.2v-0.2c0-0.4,0-0.8-0.1-1.1c-0.1-0.3-0.2-0.5-0.5-0.8c-0.4-0.3-0.9-0.5-1.6-0.5h-0.2c-0.5,0-1,0.1-1.6,0.2
				c-0.6,0.1-1.2,0.3-1.7,0.5c-0.1,0-0.2,0.1-0.3,0.1c-0.1,0-0.2,0-0.3,0c-0.1,0-0.2,0-0.3-0.1c-0.1-0.1-0.2-0.1-0.3-0.2L48.8,31
				c-0.2-0.1-0.3-0.2-0.3-0.3c-0.1-0.1-0.1-0.3-0.1-0.4c0,0,0-0.1,0-0.3c0-0.1,0-0.4,0.1-0.9l0.4-7.3c0-0.3,0.1-0.5,0.2-0.7
				s0.4-0.2,0.7-0.2h9.3c0.4,0,0.6,0,0.7,0.1c0.1,0.1,0.2,0.3,0.2,0.7V24c0,0.3-0.1,0.5-0.2,0.6c-0.1,0.1-0.4,0.2-0.8,0.2H53.3z"/>
			<path id="XMLID_225_" class="st2" d="M77.6,31.4c0,1.3-0.1,2.4-0.4,3.4c-0.2,1-0.7,1.9-1.2,2.6c-0.6,0.7-1.3,1.3-2.2,1.7
				c-0.9,0.4-2.1,0.6-3.5,0.6c-1.4,0-2.5-0.2-3.5-0.6c-0.9-0.4-1.7-0.9-2.3-1.7s-1-1.6-1.2-2.6S63,32.7,63,31.4v-2.5
				c0-1.3,0.1-2.4,0.4-3.4c0.2-1,0.7-1.9,1.2-2.6c0.6-0.7,1.3-1.3,2.3-1.7c0.9-0.4,2.1-0.6,3.5-0.6c1.4,0,2.5,0.2,3.5,0.6
				c0.9,0.4,1.7,0.9,2.2,1.7c0.6,0.7,1,1.6,1.2,2.6c0.2,1,0.4,2.1,0.4,3.4V31.4z M72.8,29.4c0-0.9,0-1.6-0.1-2.2
				c0-0.6-0.2-1.1-0.3-1.5S72,25,71.7,24.8c-0.3-0.2-0.7-0.3-1.3-0.3h-0.1c-0.5,0-1,0.1-1.3,0.3c-0.3,0.2-0.6,0.5-0.7,0.9
				c-0.2,0.4-0.3,0.9-0.3,1.5c0,0.6-0.1,1.3-0.1,2.2v1.5c0,0.9,0,1.6,0.1,2.2c0,0.6,0.2,1.1,0.3,1.5c0.2,0.4,0.4,0.7,0.7,0.9
				c0.3,0.2,0.7,0.3,1.3,0.3h0.1c0.5,0,1-0.1,1.3-0.3c0.3-0.2,0.6-0.5,0.7-0.9c0.2-0.4,0.3-0.9,0.3-1.5c0-0.6,0.1-1.4,0.1-2.2V29.4z
				"/>
			<path id="XMLID_228_" class="st2" d="M93.4,31.4c0,1.3-0.1,2.4-0.4,3.4c-0.2,1-0.7,1.9-1.2,2.6c-0.6,0.7-1.3,1.3-2.2,1.7
				c-0.9,0.4-2.1,0.6-3.5,0.6c-1.4,0-2.5-0.2-3.5-0.6c-0.9-0.4-1.7-0.9-2.3-1.7s-1-1.6-1.2-2.6s-0.4-2.1-0.4-3.4v-2.5
				c0-1.3,0.1-2.4,0.4-3.4c0.2-1,0.7-1.9,1.2-2.6c0.6-0.7,1.3-1.3,2.3-1.7c0.9-0.4,2.1-0.6,3.5-0.6c1.4,0,2.5,0.2,3.5,0.6
				c0.9,0.4,1.7,0.9,2.2,1.7c0.6,0.7,1,1.6,1.2,2.6c0.2,1,0.4,2.1,0.4,3.4V31.4z M88.6,29.4c0-0.9,0-1.6-0.1-2.2
				c0-0.6-0.2-1.1-0.3-1.5s-0.4-0.7-0.7-0.9c-0.3-0.2-0.7-0.3-1.3-0.3h-0.1c-0.5,0-1,0.1-1.3,0.3c-0.3,0.2-0.6,0.5-0.7,0.9
				c-0.2,0.4-0.3,0.9-0.3,1.5c0,0.6-0.1,1.3-0.1,2.2v1.5c0,0.9,0,1.6,0.1,2.2c0,0.6,0.2,1.1,0.3,1.5c0.2,0.4,0.4,0.7,0.7,0.9
				c0.3,0.2,0.7,0.3,1.3,0.3h0.1c0.5,0,1-0.1,1.3-0.3c0.3-0.2,0.6-0.5,0.7-0.9c0.2-0.4,0.3-0.9,0.3-1.5c0-0.6,0.1-1.4,0.1-2.2V29.4z
				"/>
			<path id="XMLID_231_" class="st2" d="M93,44.5c-0.3,0-0.5-0.1-0.6-0.2c-0.1-0.1-0.2-0.4-0.2-0.7v-2c0-0.3,0.1-0.5,0.2-0.7
				c0.1-0.1,0.3-0.2,0.6-0.2h0.7c0.3,0,0.6,0,0.7-0.1c0.2-0.1,0.3-0.2,0.5-0.3c0.2-0.2,0.2-0.4,0.3-0.7c0-0.3,0.1-0.6,0.1-1.1V26.3
				c0-0.3,0.1-0.5,0.2-0.6c0.1-0.1,0.4-0.2,0.8-0.2h2.6c0.4,0,0.6,0.1,0.8,0.2c0.1,0.1,0.2,0.3,0.2,0.6v12.6c0,1.1-0.1,2-0.2,2.6
				c-0.2,0.7-0.5,1.2-0.9,1.7c-0.4,0.5-0.9,0.8-1.6,1c-0.6,0.2-1.5,0.3-2.4,0.3H93z M97.3,24.3c-0.8,0-1.4-0.2-1.8-0.6
				c-0.4-0.4-0.5-1-0.5-1.8v-0.1c0-0.8,0.2-1.3,0.5-1.8c0.4-0.4,0.9-0.6,1.8-0.6h0.3c0.8,0,1.4,0.2,1.8,0.6c0.4,0.4,0.5,1,0.5,1.8
				V22c0,0.8-0.2,1.3-0.5,1.8c-0.4,0.4-0.9,0.6-1.8,0.6H97.3z"/>
			<path id="XMLID_234_" class="st2" d="M110.9,38.3c0,0.4-0.1,0.7-0.2,0.8c-0.1,0.1-0.4,0.2-0.7,0.2h-2.3c-1.1,0-2-0.1-2.6-0.2
				c-0.6-0.2-1.1-0.4-1.4-0.8c-0.3-0.3-0.5-0.7-0.6-1.3c-0.1-0.5-0.2-1.3-0.2-2.2V29h-1.5c-0.3,0-0.5-0.1-0.6-0.2s-0.2-0.3-0.2-0.6
				v-1.5c0-0.4,0-0.6,0.1-0.7c0.1-0.1,0.3-0.2,0.6-0.3l1.5-0.4v-2.8c0-0.3,0.1-0.5,0.2-0.6c0.1-0.1,0.4-0.2,0.8-0.2h2.6
				c0.4,0,0.6,0.1,0.8,0.2c0.1,0.1,0.2,0.3,0.2,0.6v2.7h2.4c0.3,0,0.5,0,0.6,0.1c0.1,0.1,0.2,0.3,0.2,0.7v1.9c0,0.4-0.1,0.6-0.2,0.7
				c-0.1,0.1-0.3,0.1-0.6,0.1h-2.4v5.4c0,0.2,0,0.4,0,0.6c0,0.2,0.1,0.3,0.2,0.4c0.1,0.1,0.2,0.2,0.4,0.2c0.2,0,0.4,0.1,0.7,0.1h1.3
				c0.4,0,0.6,0.1,0.7,0.2c0.1,0.1,0.2,0.4,0.2,0.8V38.3z"/>
		</g>
	</g>
</g>
</svg>
