<?xml version="1.0" encoding="utf-8"?>
<!-- Generator: Adobe Illustrator 19.0.0, SVG Export Plug-In . SVG Version: 6.00 Build 0)  -->
<svg version="1.1" id="Layer_1" xmlns="http://www.w3.org/2000/svg" xmlns:xlink="http://www.w3.org/1999/xlink" x="0px" y="0px"
	 width="59px" height="18.7px" viewBox="0 0 59 18.7" style="enable-background:new 0 0 59 18.7;" xml:space="preserve">
<style type="text/css">
	.st0{opacity:0.9;fill:#FFFFFF;}
	.st1{fill:#02508F;}
	.st2{fill:#E6467E;}
	.st3{fill:#F7B42A;}
	.st4{fill:#EF8E21;}
	.st5{clip-path:url(#XMLID_71_);fill:url(#XMLID_72_);}
	.st6{clip-path:url(#XMLID_73_);fill:url(#XMLID_74_);}
	.st7{clip-path:url(#XMLID_105_);fill:url(#XMLID_106_);}
</style>
<g>
	<path id="XMLID_78_" class="st0" d="M59,15.6c0,1.7-1.4,3.1-3.1,3.1H3.1c-1.7,0-3.1-1.4-3.1-3.1V3.1C0,1.4,1.4,0,3.1,0h52.8
		C57.6,0,59,1.4,59,3.1V15.6z"/>
	<g>
		<path class="st1" d="M51.4,12.5c-0.2-0.1-0.3-0.4-0.3-0.6c0-0.1,0-0.3,0.1-0.4c0.2-0.2,0.5-0.4,0.9-0.4c0,0,0.1,0,0.1,0
			c0.6,0,0.9,0.1,0.9,0.1v0.4c0,0.3-0.1,0.7-0.5,0.8c-0.2,0.1-0.4,0.1-0.6,0.1C51.8,12.6,51.6,12.6,51.4,12.5 M52.1,8.1
			c-0.7,0-1.4,0.3-1.6,0.4c-0.1,0.1-0.2,0.2-0.2,0.3v0.7c0.5-0.2,1.1-0.3,1.5-0.3c0.4,0,0.7,0,0.9,0.2c0.3,0.2,0.3,0.6,0.3,0.7
			c0,0.1,0,0.1,0,0.1v0l0,0c0,0-0.6-0.1-1.2-0.1c-0.6,0-1.2,0.1-1.5,0.4c-0.3,0.2-0.6,0.7-0.6,1.2c0,0.6,0.3,1,0.6,1.2
			c0.3,0.2,0.9,0.4,1.4,0.4c0.5,0,0.9-0.1,1.1-0.2c0.2-0.1,0.3-0.2,0.3-0.2l0,0v0.3h1.3v-3.1c0-0.7-0.1-1.3-0.5-1.7
			C53.4,8.2,52.8,8.1,52.1,8.1"/>
		<g>
			<polygon id="XMLID_75_" class="st2" points="4.6,13 8.9,15.5 8.9,10.6 			"/>
			<polygon id="XMLID_58_" class="st3" points="4.6,3.2 4.6,8.1 8.9,5.6 			"/>
			<polygon id="XMLID_57_" class="st4" points="8.9,5.6 8.9,5.6 4.6,8.1 8.9,10.6 			"/>
			<g>
				<defs>
					<polygon id="XMLID_55_" points="8.9,10.6 13.2,13 13.2,8.1 					"/>
				</defs>
				<clipPath id="XMLID_71_">
					<use xlink:href="#XMLID_55_"  style="overflow:visible;"/>
				</clipPath>
				
					<linearGradient id="XMLID_72_" gradientUnits="userSpaceOnUse" x1="142.9766" y1="812.1433" x2="143.2113" y2="812.1433" gradientTransform="matrix(18.1388 0 0 -18.1388 -2584.5303 14741.877)">
					<stop  offset="0" style="stop-color:#2B2965"/>
					<stop  offset="9.768707e-002" style="stop-color:#45296C"/>
					<stop  offset="0.2143" style="stop-color:#602973"/>
					<stop  offset="1" style="stop-color:#AD3C7D"/>
				</linearGradient>
				<rect id="XMLID_56_" x="8.9" y="8.1" class="st5" width="4.3" height="4.9"/>
			</g>
			<g>
				<defs>
					<polygon id="XMLID_53_" points="8.9,10.6 13.2,8.1 8.9,5.6 					"/>
				</defs>
				<clipPath id="XMLID_73_">
					<use xlink:href="#XMLID_53_"  style="overflow:visible;"/>
				</clipPath>
				
					<linearGradient id="XMLID_74_" gradientUnits="userSpaceOnUse" x1="127.6778" y1="770.5778" x2="127.9128" y2="770.5778" gradientTransform="matrix(0 19.3549 19.3549 0 -14903.4229 -2465.1069)">
					<stop  offset="0" style="stop-color:#E65E26"/>
					<stop  offset="0.1" style="stop-color:#E65E26"/>
					<stop  offset="0.4447" style="stop-color:#EA7224"/>
					<stop  offset="1" style="stop-color:#EF8E21"/>
				</linearGradient>
				<rect id="XMLID_54_" x="8.9" y="5.6" class="st6" width="4.3" height="4.9"/>
			</g>
			<g>
				<defs>
					<polygon id="XMLID_51_" points="8.9,15.5 13.2,13 8.9,10.6 					"/>
				</defs>
				<clipPath id="XMLID_105_">
					<use xlink:href="#XMLID_51_"  style="overflow:visible;"/>
				</clipPath>
				
					<linearGradient id="XMLID_106_" gradientUnits="userSpaceOnUse" x1="142.8997" y1="812.8266" x2="143.1345" y2="812.8266" gradientTransform="matrix(18.0033 0 0 -18.0033 -2563.7727 14646.6016)">
					<stop  offset="0" style="stop-color:#AF223B"/>
					<stop  offset="4.257149e-002" style="stop-color:#B2223D"/>
					<stop  offset="0.4076" style="stop-color:#CC204F"/>
					<stop  offset="0.7376" style="stop-color:#DC1F59"/>
					<stop  offset="1" style="stop-color:#E11F5D"/>
				</linearGradient>
				<rect id="XMLID_52_" x="8.9" y="10.6" class="st7" width="4.3" height="4.9"/>
			</g>
		</g>
		<path id="XMLID_50_" class="st1" d="M38.3,13.4l-1.8-2.7l1.8-2.6h-0.6c-0.4,0-0.9,0.1-1.3,0.6c-0.2,0.3-0.6,1-0.6,1l0,0l-1-1.6H33
			l1.9,2.7l-1.8,2.6h1.5l1.1-1.6l1.1,1.6H38.3z"/>
		<path id="XMLID_49_" class="st1" d="M40.2,13.4V8c-0.2,0-0.8,0.2-1.1,0.6c-0.1,0.2-0.2,0.3-0.2,0.5v4.4H40.2z"/>
		<path id="XMLID_48_" class="st1" d="M46.9,13.2c0.3,0.2,0.6,0.3,1,0.3c0.5,0,0.8-0.1,1.1-0.3v-0.9c-0.2,0.1-0.4,0.2-0.7,0.2h0
			c-0.2,0-0.3-0.1-0.4-0.2c-0.1-0.1-0.1-0.3-0.1-0.4V9.3H49l0.6-1.1h-1.8v-2c-0.5,0.2-1,0.5-1.1,0.7c-0.2,0.2-0.2,0.4-0.2,0.7V12
			C46.5,12.6,46.7,13,46.9,13.2"/>
		<path class="st1" d="M42.6,12.5c-0.2-0.1-0.3-0.4-0.3-0.6c0-0.1,0-0.3,0.1-0.4c0.1-0.2,0.4-0.4,0.9-0.4c0,0,0.1,0,0.1,0
			c0.5,0,0.8,0.1,0.8,0.1v0.4c0,0.3-0.1,0.7-0.5,0.8c-0.2,0.1-0.4,0.1-0.6,0.1C43,12.6,42.8,12.6,42.6,12.5 M43.3,8.1
			c-0.7,0-1.4,0.3-1.6,0.4c-0.1,0.1-0.2,0.2-0.2,0.3v0.7c0.5-0.2,1.1-0.3,1.5-0.3c0.4,0,0.7,0,0.9,0.2c0.3,0.2,0.3,0.6,0.3,0.7
			c0,0.1,0,0.1,0,0.1v0l0,0c0,0-0.6-0.1-1.2-0.1c-0.6,0-1.2,0.1-1.5,0.4c-0.3,0.2-0.6,0.7-0.6,1.2c0,0.6,0.3,1,0.6,1.2
			c0.3,0.2,0.9,0.4,1.4,0.4c0.5,0,0.9-0.1,1.1-0.2c0.2-0.1,0.3-0.2,0.3-0.2l0,0v0.3h1.3v-3.1c0-0.7-0.1-1.3-0.5-1.7
			C44.6,8.2,44,8.1,43.3,8.1"/>
		<path class="st1" d="M29.6,12.5c-0.2-0.1-0.3-0.4-0.3-0.6c0-0.1,0-0.3,0.1-0.4c0.2-0.2,0.4-0.4,0.9-0.4c0,0,0.1,0,0.1,0
			c0.6,0,0.9,0.1,0.9,0.1v0.4c0,0.3-0.1,0.7-0.5,0.8c-0.2,0.1-0.4,0.1-0.6,0.1C30,12.6,29.8,12.6,29.6,12.5 M30.3,8.1
			c-0.7,0-1.4,0.3-1.6,0.4c-0.1,0.1-0.2,0.2-0.2,0.3v0.7c0.5-0.2,1.1-0.3,1.5-0.3c0.4,0,0.7,0,1,0.2c0.3,0.2,0.3,0.6,0.3,0.7
			c0,0.1,0,0.1,0,0.1l0,0l0,0c0,0-0.6-0.1-1.2-0.1c-0.6,0-1.1,0.1-1.5,0.4c-0.3,0.2-0.6,0.7-0.6,1.2c0,0.6,0.3,1,0.6,1.2
			c0.3,0.2,0.9,0.4,1.4,0.4c0.5,0,0.9-0.1,1.1-0.2c0.2-0.1,0.3-0.2,0.3-0.2l0,0v0.3h1.3v-3.1c0-0.7-0.1-1.3-0.5-1.7
			C31.6,8.2,31,8.1,30.3,8.1"/>
		<g>
			<path class="st1" d="M17.4,10.8l-1.7-2.6h1.7l0.9,1.5l0.9-1.5h1.6l-1.7,2.6l1.8,2.7h-1.7l-1-1.6l-1,1.6h-1.6L17.4,10.8z"/>
			<path class="st1" d="M21.5,8.2H23v4h2.6v1.3h-4V8.2z"/>
		</g>
	</g>
</g>
</svg>
