<?xml version="1.0" encoding="utf-8"?>
<!-- Generator: Adobe Illustrator 19.0.0, SVG Export Plug-In . SVG Version: 6.00 Build 0)  -->
<svg version="1.1" id="Layer_1" xmlns="http://www.w3.org/2000/svg" xmlns:xlink="http://www.w3.org/1999/xlink" x="0px" y="0px"
	 width="129px" height="33px" viewBox="0 0 129 33" style="enable-background:new 0 0 129 33;" xml:space="preserve">
<style type="text/css">
	.st0{fill:#002DBB;}
	.st1{fill:#FFF200;}
</style>
<g id="XMLID_112_">
	<path id="XMLID_110_" class="st0" d="M124,33H5c-2.8,0-5-2.3-5-5V5c0-2.8,2.3-5,5-5h119c2.8,0,5,2.3,5,5v23
		C129,30.8,126.8,33,124,33z"/>
	<g id="XMLID_113_">
		<path id="XMLID_114_" class="st1" d="M16.5,24.2h-3.1V9h3.1v6.7l2.1-0.2L21,9h3.5l-3.3,7.6l3.4,7.6h-3.5l-2.5-6l-2.1,0.2V24.2z"/>
		<path id="XMLID_116_" class="st1" d="M26.9,24.2V8.6h3v15.6H26.9z"/>
		<path id="XMLID_118_" class="st1" d="M33.3,11.6v-3h3v3H33.3z M33.3,24.2V13h3v11.2H33.3z"/>
		<path id="XMLID_207_" class="st1" d="M42.5,24.2h-3V8.6h3v8.9l1.1-0.2l2.2-4.2h3.3l-2.9,5.3l3.1,5.9H46l-2.3-4.4L42.5,20V24.2z"/>
		<path id="XMLID_209_" class="st1" d="M66.3,8.6v15.6h-3v-0.5c-1,0.5-1.9,0.7-2.7,0.7c-1.6,0-2.8-0.5-3.4-1.4c-0.6-0.9-1-2.4-1-4.5
			c0-2,0.4-3.5,1.1-4.4c0.8-0.9,1.9-1.4,3.5-1.4c0.5,0,1.1,0.1,2,0.2l0.4,0.1V8.6H66.3z M63,21.5l0.3-0.1v-5.9
			c-0.8-0.1-1.5-0.2-2.2-0.2c-1.2,0-1.8,1.1-1.8,3.2c0,1.2,0.1,2,0.4,2.5c0.3,0.5,0.7,0.7,1.3,0.7S62.3,21.7,63,21.5z"/>
		<path id="XMLID_212_" class="st1" d="M69.5,11.6v-3h3v3H69.5z M69.5,24.2V13h3v11.2H69.5z"/>
		<path id="XMLID_215_" class="st1" d="M86,11.4c-1.6,0-2.4,0.5-2.4,1.6c0,0.5,0.2,0.8,0.6,1.1c0.4,0.3,1.3,0.6,2.8,1.1
			c1.5,0.5,2.5,1,3.1,1.6c0.6,0.6,0.9,1.5,0.9,2.8c0,1.6-0.5,2.8-1.5,3.6c-1,0.8-2.2,1.2-3.8,1.2c-1.2,0-2.6-0.2-4.3-0.5l-0.8-0.2
			l0.3-2.4c2,0.3,3.5,0.4,4.6,0.4c1.6,0,2.4-0.7,2.4-2c0-0.5-0.2-0.8-0.5-1.1c-0.4-0.3-1.1-0.6-2.2-0.9c-1.7-0.5-2.9-1.1-3.6-1.8
			c-0.7-0.7-1.1-1.6-1.1-2.8c0-1.5,0.5-2.6,1.4-3.4c0.9-0.7,2.2-1.1,3.8-1.1c1.1,0,2.5,0.1,4.2,0.4l0.8,0.2l-0.2,2.4
			C88.3,11.5,86.8,11.4,86,11.4z"/>
		<path id="XMLID_217_" class="st1" d="M93.6,11.6v-3h3v3H93.6z M93.6,24.2V13h3v11.2H93.6z"/>
		<path id="XMLID_376_" class="st1" d="M102.8,24.2h-3V13h3v0.6c1-0.6,1.9-0.9,2.8-0.9c1.5,0,2.5,0.4,3.1,1.3
			c0.6,0.9,0.8,2.2,0.8,4.1v6h-3v-6c0-1-0.1-1.7-0.3-2.1c-0.2-0.5-0.7-0.7-1.3-0.7c-0.6,0-1.2,0.1-1.8,0.3l-0.3,0.1V24.2z"/>
		<path id="XMLID_378_" class="st1" d="M112.6,11.6v-3h3v3H112.6z M112.6,24.2V13h3v11.2H112.6z"/>
	</g>
</g>
</svg>
