<?xml version="1.0" encoding="utf-8"?>
<!-- Generator: Adobe Illustrator 19.2.1, SVG Export Plug-In . SVG Version: 6.00 Build 0)  -->
<svg version="1.1" id="Layer_1" xmlns="http://www.w3.org/2000/svg" xmlns:xlink="http://www.w3.org/1999/xlink" x="0px" y="0px"
	 width="207.2px" height="32.9px" viewBox="0 0 207.2 32.9" style="enable-background:new 0 0 207.2 32.9;" xml:space="preserve">
<style type="text/css">
	.st0{fill:#FFFFFF;}
</style>
<g>
	<path class="st0" d="M11,15.6h-0.2l-3.7,8.7c-0.2,0.5-0.5,0.8-0.7,0.9C6,25.4,5.6,25.5,5,25.5H1c-0.6,0-0.9-0.2-1-0.5
		c-0.1-0.3,0-0.6,0.2-1l5.3-10.5c0.1-0.2,0.2-0.4,0.3-0.5c0.1-0.2,0.1-0.3,0.1-0.5c0-0.2-0.1-0.5-0.3-0.9L0.2,1.1
		c-0.2-0.3-0.2-0.5,0-0.7C0.4,0.1,0.7,0,1.3,0h4c0.6,0,1,0.1,1.2,0.2c0.3,0.1,0.5,0.4,0.6,0.7l3.7,8.7H11l3.9-8.7
		c0.1-0.3,0.3-0.5,0.6-0.7C15.7,0.1,16.1,0,16.7,0h4c0.6,0,0.9,0.1,1.1,0.3c0.1,0.2,0.1,0.5,0,0.8l-5.4,10.6
		C16.1,12,16,12.3,16,12.5c0,0.1,0,0.3,0.1,0.4c0.1,0.2,0.2,0.3,0.3,0.6L21.7,24c0.2,0.4,0.3,0.7,0.2,1c-0.1,0.3-0.4,0.5-1,0.5H17
		c-0.6,0-1.1-0.1-1.3-0.2c-0.3-0.1-0.5-0.5-0.7-1L11,15.6z"/>
	<path class="st0" d="M36.4,24c0,0.6-0.1,1-0.2,1.2c-0.2,0.2-0.5,0.3-1,0.3H32c-1.6,0-2.8-0.1-3.6-0.3c-0.8-0.2-1.5-0.6-2-1.1
		c-0.4-0.4-0.7-1-0.9-1.8c-0.2-0.7-0.3-1.7-0.3-3v-8.2h-2.1c-0.4,0-0.6-0.1-0.8-0.2c-0.1-0.1-0.2-0.4-0.2-0.8v-2
		c0-0.5,0.1-0.8,0.2-1c0.1-0.1,0.4-0.3,0.8-0.4l2.1-0.5V2.4c0-0.4,0.1-0.7,0.3-0.8c0.2-0.2,0.5-0.3,1.1-0.3h3.6
		c0.5,0,0.9,0.1,1.1,0.3c0.2,0.2,0.3,0.5,0.3,0.8v3.8h3.3c0.4,0,0.6,0.1,0.8,0.2c0.2,0.1,0.2,0.4,0.2,0.9V10c0,0.5-0.1,0.8-0.2,0.9
		c-0.2,0.1-0.4,0.2-0.8,0.2h-3.3v7.4c0,0.3,0,0.6,0.1,0.8c0,0.2,0.1,0.4,0.3,0.6c0.1,0.1,0.3,0.2,0.5,0.3c0.2,0.1,0.6,0.1,1,0.1h1.7
		c0.5,0,0.9,0.1,1,0.3c0.2,0.2,0.2,0.6,0.2,1.2V24z"/>
	<path class="st0" d="M44.2,8.3C44.7,7.6,45.3,7,46,6.7c0.7-0.3,1.6-0.5,2.7-0.5h1.6c0.4,0,0.7,0.1,0.9,0.2c0.2,0.1,0.3,0.4,0.3,0.9
		v2.9c0,0.4-0.1,0.7-0.2,0.9c-0.2,0.1-0.4,0.2-0.8,0.2h-1.2c-1.4,0-2.4,0.3-3,0.8c-0.3,0.3-0.4,0.6-0.5,1.1c-0.1,0.4-0.1,1-0.1,1.7
		v9.5c0,0.4-0.1,0.7-0.3,0.8c-0.2,0.2-0.5,0.3-1.1,0.3h-3.6c-0.5,0-0.9-0.1-1.1-0.3c-0.2-0.2-0.3-0.5-0.3-0.8V7.3
		c0-0.4,0.1-0.7,0.3-0.8c0.2-0.2,0.5-0.3,1.1-0.3h1.9c0.4,0,0.8,0.1,1,0.2c0.2,0.1,0.3,0.4,0.5,0.7l0.3,1.2H44.2z"/>
	<path class="st0" d="M64.4,23.9c-0.4,0.6-1,1.1-1.9,1.4c-0.9,0.4-2,0.5-3.2,0.5h-0.6c-2,0-3.5-0.5-4.7-1.5c-1.1-1-1.7-2.5-1.7-4.5
		v-0.4c0-2.2,0.6-3.7,1.9-4.6c1.3-0.8,3.2-1.3,5.9-1.3h0.3c0.5,0,1,0,1.6,0c0.5,0,0.9,0.1,1.2,0.1v-0.8c0-0.4,0-0.7-0.1-1
		c-0.1-0.3-0.3-0.5-0.6-0.7c-0.2-0.2-0.5-0.3-0.9-0.3c-0.3-0.1-0.8-0.1-1.5-0.1c-0.7,0-1.4,0.1-2.2,0.2c-0.8,0.1-1.6,0.3-2.3,0.5
		c-0.5,0.1-0.8,0.1-1,0c-0.2-0.1-0.3-0.4-0.3-0.7l-0.3-2.1c0-0.1,0-0.3-0.1-0.4c0-0.2,0-0.3,0-0.4c0-0.3,0.1-0.5,0.2-0.6
		C54,7,54.2,6.8,54.6,6.7c0.8-0.2,1.8-0.4,3-0.6c1.2-0.2,2.4-0.3,3.7-0.3c1.6,0,2.9,0.2,3.9,0.5c1.1,0.3,1.9,0.8,2.5,1.5
		c1,1,1.5,2.7,1.5,4.9v11.7c0,0.4-0.1,0.7-0.3,0.8c-0.2,0.2-0.5,0.3-1.1,0.3h-1.9c-0.4,0-0.8-0.1-1-0.2c-0.2-0.1-0.4-0.4-0.5-0.7
		L64.4,23.9L64.4,23.9z M63,17.7c-0.2-0.1-0.5-0.1-0.9-0.1c-0.4,0-0.7,0-1,0h-0.4c-0.9,0-1.6,0.1-2,0.3c-0.4,0.2-0.6,0.7-0.6,1.4
		v0.2c0,0.7,0.2,1.2,0.6,1.5c0.4,0.2,0.9,0.4,1.6,0.4h0.3c0.4,0,0.8-0.1,1.1-0.2c0.3-0.1,0.5-0.3,0.7-0.4c0.2-0.2,0.4-0.5,0.4-0.7
		c0.1-0.3,0.1-0.7,0.1-1.2V17.7z"/>
	<path class="st0" d="M90,7.3c-0.4,1.3-0.8,2.8-1.3,4.4c-0.5,1.6-1,3.2-1.5,4.7c-0.5,1.6-1.1,3.1-1.6,4.6c-0.5,1.5-1,2.7-1.5,3.7
		c-0.1,0.3-0.3,0.5-0.5,0.6c-0.2,0.1-0.5,0.2-0.9,0.2h-4.3c-0.4,0-0.7-0.1-0.9-0.2c-0.2-0.1-0.4-0.3-0.5-0.7c-0.4-1-0.9-2.2-1.5-3.7
		c-0.6-1.4-1.1-2.9-1.6-4.5c-0.5-1.6-1.1-3.2-1.6-4.7c-0.5-1.6-0.9-3.1-1.2-4.4c-0.2-0.8,0.2-1.1,1.1-1.1H76c0.4,0,0.8,0.1,0.9,0.2
		c0.2,0.1,0.3,0.4,0.4,0.7c0.3,1,0.6,2.1,0.9,3.2c0.3,1.1,0.6,2.2,0.9,3.3c0.3,1.1,0.6,2,0.9,2.9c0.3,0.9,0.5,1.6,0.7,2.2h0.2
		c0.2-0.6,0.4-1.4,0.7-2.2c0.3-0.9,0.6-1.9,0.8-2.9c0.3-1,0.6-2.1,0.8-3.2c0.3-1.1,0.5-2.1,0.8-3.1c0.1-0.4,0.2-0.7,0.4-0.9
		c0.2-0.1,0.5-0.2,0.9-0.2H89C89.9,6.2,90.2,6.6,90,7.3z"/>
	<path class="st0" d="M103.3,23.9c-0.4,0.6-1,1.1-1.9,1.4c-0.9,0.4-2,0.5-3.2,0.5h-0.6c-2,0-3.5-0.5-4.7-1.5c-1.1-1-1.7-2.5-1.7-4.5
		v-0.4c0-2.2,0.6-3.7,1.9-4.6c1.3-0.8,3.2-1.3,5.9-1.3h0.3c0.5,0,1,0,1.6,0c0.5,0,0.9,0.1,1.2,0.1v-0.8c0-0.4,0-0.7-0.1-1
		c-0.1-0.3-0.3-0.5-0.6-0.7c-0.2-0.2-0.5-0.3-0.9-0.3c-0.3-0.1-0.8-0.1-1.5-0.1c-0.7,0-1.4,0.1-2.2,0.2c-0.8,0.1-1.6,0.3-2.3,0.5
		c-0.5,0.1-0.8,0.1-1,0c-0.2-0.1-0.3-0.4-0.3-0.7l-0.3-2.1c0-0.1,0-0.3-0.1-0.4c0-0.2,0-0.3,0-0.4c0-0.3,0.1-0.5,0.2-0.6
		C93,7,93.2,6.8,93.6,6.7c0.8-0.2,1.8-0.4,3-0.6c1.2-0.2,2.4-0.3,3.7-0.3c1.6,0,2.9,0.2,3.9,0.5c1.1,0.3,1.9,0.8,2.5,1.5
		c1,1,1.5,2.7,1.5,4.9v11.7c0,0.4-0.1,0.7-0.3,0.8c-0.2,0.2-0.5,0.3-1.1,0.3h-1.9c-0.4,0-0.8-0.1-1-0.2c-0.2-0.1-0.4-0.4-0.5-0.7
		L103.3,23.9L103.3,23.9z M102,17.7c-0.2-0.1-0.5-0.1-0.9-0.1c-0.4,0-0.7,0-1,0h-0.4c-0.9,0-1.6,0.1-2,0.3c-0.4,0.2-0.6,0.7-0.6,1.4
		v0.2c0,0.7,0.2,1.2,0.6,1.5c0.4,0.2,0.9,0.4,1.6,0.4h0.3c0.4,0,0.8-0.1,1.1-0.2c0.3-0.1,0.5-0.3,0.7-0.4c0.2-0.2,0.4-0.5,0.4-0.7
		c0.1-0.3,0.1-0.7,0.1-1.2V17.7z"/>
	<path class="st0" d="M119.7,23.7c-2.8,0-4.8-0.6-6.2-1.8c-1.4-1.2-2.1-3.1-2.1-5.8v-2.6c0-2.7,0.7-4.6,2-5.8
		c1.4-1.2,3.4-1.8,6.2-1.8h0.6c0.3-1.4,0.9-2.5,2-3.2c1.1-0.7,2.5-1.1,4.3-1.1h1.9c0.4,0,0.6,0.1,0.8,0.2c0.1,0.1,0.2,0.4,0.2,0.8
		v2.2c0,0.4-0.1,0.7-0.3,0.8c-0.2,0.1-0.4,0.2-0.8,0.2h-1.9c-0.5,0-0.8,0-1.1,0.1c-0.3,0.1-0.5,0.2-0.7,0.5c1.6,0.4,2.7,1.2,3.4,2.4
		c0.7,1.2,1.1,2.8,1.1,4.8v2.6c0,1.4-0.2,2.6-0.5,3.5c-0.4,0.9-1,1.7-1.8,2.2c1,0.5,1.8,1.2,2.4,2.1c0.6,0.9,0.9,1.8,0.9,2.8V27
		c0,1.8-0.7,3.2-2.1,4.3c-1.4,1-3.8,1.6-7.1,1.6h-0.7c-0.6,0-1.3,0-2-0.1c-0.7-0.1-1.4-0.2-2-0.3c-0.7-0.1-1.3-0.3-2-0.4
		c-0.6-0.2-1.2-0.4-1.7-0.6c-0.7-0.3-1-0.8-0.8-1.5l0.7-2.5c0.1-0.4,0.3-0.6,0.5-0.8c0.2-0.1,0.5-0.2,1,0c0.5,0.2,1,0.3,1.6,0.5
		c0.6,0.1,1.1,0.3,1.7,0.4c0.6,0.1,1.1,0.2,1.6,0.2c0.5,0.1,0.9,0.1,1.3,0.1h0.6c1.2,0,2.1-0.2,2.6-0.5c0.5-0.4,0.8-0.8,0.8-1.5
		v-0.1c0-0.8-0.4-1.4-1.2-2c-0.2,0-0.5,0-0.9,0.1c-0.3,0-0.7,0-1.1,0H119.7z M120.4,18.8c0.4,0,0.8-0.1,1.1-0.2
		c0.3-0.1,0.6-0.2,0.7-0.4c0.2-0.2,0.4-0.5,0.5-0.9c0.1-0.4,0.2-1,0.2-1.8V14c0-0.8-0.1-1.4-0.2-1.8c-0.1-0.4-0.3-0.7-0.5-0.9
		c-0.2-0.2-0.4-0.3-0.7-0.4c-0.3-0.1-0.7-0.2-1.1-0.2h-0.3c-0.9,0-1.5,0.2-1.9,0.6c-0.2,0.2-0.4,0.5-0.5,0.9c-0.1,0.4-0.2,1-0.2,1.8
		v1.5c0,0.8,0.1,1.4,0.2,1.8c0.1,0.4,0.3,0.7,0.5,0.9c0.4,0.4,1,0.6,1.9,0.6H120.4z"/>
	<path class="st0" d="M143.9,23.9c-0.4,0.6-1,1.1-1.9,1.4c-0.9,0.4-2,0.5-3.2,0.5h-0.6c-2,0-3.5-0.5-4.7-1.5c-1.1-1-1.7-2.5-1.7-4.5
		v-0.4c0-2.2,0.6-3.7,1.9-4.6c1.3-0.8,3.2-1.3,5.9-1.3h0.3c0.5,0,1,0,1.6,0c0.5,0,0.9,0.1,1.2,0.1v-0.8c0-0.4,0-0.7-0.1-1
		c-0.1-0.3-0.3-0.5-0.6-0.7c-0.2-0.2-0.5-0.3-0.9-0.3c-0.3-0.1-0.8-0.1-1.5-0.1c-0.7,0-1.4,0.1-2.2,0.2c-0.8,0.1-1.6,0.3-2.3,0.5
		c-0.5,0.1-0.8,0.1-1,0c-0.2-0.1-0.3-0.4-0.3-0.7l-0.3-2.1c0-0.1,0-0.3-0.1-0.4c0-0.2,0-0.3,0-0.4c0-0.3,0.1-0.5,0.2-0.6
		c0.1-0.1,0.4-0.3,0.8-0.4c0.8-0.2,1.8-0.4,3-0.6c1.2-0.2,2.4-0.3,3.7-0.3c1.6,0,2.9,0.2,3.9,0.5c1.1,0.3,1.9,0.8,2.5,1.5
		c1,1,1.5,2.7,1.5,4.9v11.7c0,0.4-0.1,0.7-0.3,0.8c-0.2,0.2-0.5,0.3-1.1,0.3h-1.9c-0.4,0-0.8-0.1-1-0.2c-0.2-0.1-0.4-0.4-0.5-0.7
		L143.9,23.9L143.9,23.9z M142.6,17.7c-0.2-0.1-0.5-0.1-0.9-0.1c-0.4,0-0.7,0-1,0h-0.4c-0.9,0-1.6,0.1-2,0.3
		c-0.4,0.2-0.6,0.7-0.6,1.4v0.2c0,0.7,0.2,1.2,0.6,1.5c0.4,0.2,0.9,0.4,1.6,0.4h0.3c0.4,0,0.8-0.1,1.1-0.2c0.3-0.1,0.5-0.3,0.7-0.4
		c0.2-0.2,0.4-0.5,0.4-0.7c0.1-0.3,0.1-0.7,0.1-1.2V17.7z"/>
	<path class="st0" d="M163.4,5.8c2.3,0,4,0.5,5,1.6c0.5,0.6,0.9,1.2,1.1,2c0.2,0.8,0.3,1.9,0.3,3.2v11.7c0,0.4-0.1,0.7-0.3,0.8
		c-0.2,0.2-0.5,0.3-1.1,0.3h-3.6c-0.5,0-0.9-0.1-1.1-0.3c-0.2-0.2-0.3-0.5-0.3-0.8V13.2c0-0.9-0.1-1.5-0.4-1.8
		c-0.3-0.3-0.9-0.5-1.7-0.5h-0.2c-0.8,0-1.4,0.2-1.7,0.5c-0.3,0.3-0.4,0.9-0.4,1.8v11.2c0,0.4-0.1,0.7-0.3,0.8
		c-0.2,0.2-0.5,0.3-1.1,0.3H154c-0.5,0-0.9-0.1-1.1-0.3c-0.2-0.2-0.3-0.5-0.3-0.8V7.3c0-0.4,0.1-0.7,0.3-0.8
		c0.2-0.2,0.5-0.3,1.1-0.3h1.9c0.4,0,0.8,0.1,1,0.2c0.2,0.1,0.4,0.4,0.5,0.7l0.2,0.7h0.1c1.3-1.3,3.1-2,5.4-2H163.4z"/>
	<path class="st0" d="M173.7,11.2c-0.4,0-0.6-0.1-0.8-0.2c-0.2-0.1-0.2-0.4-0.2-0.9V7.3c0-0.5,0.1-0.8,0.2-0.9
		c0.2-0.1,0.4-0.2,0.8-0.2h13.3c0.4,0,0.7,0.1,0.8,0.2c0.2,0.2,0.3,0.5,0.3,0.9v0.7c0,0.6-0.1,1.1-0.2,1.4c-0.1,0.4-0.3,0.8-0.7,1.4
		l-6.8,9.6h6.7c0.4,0,0.6,0.1,0.8,0.2c0.2,0.1,0.2,0.4,0.2,0.9v2.7c0,0.5-0.1,0.8-0.2,0.9c-0.2,0.1-0.4,0.2-0.8,0.2h-13.6
		c-0.4,0-0.7-0.1-0.9-0.2c-0.2-0.2-0.3-0.5-0.3-0.9v-0.9c0-0.6,0.1-1.1,0.2-1.5c0.1-0.4,0.3-0.8,0.7-1.3l6.6-9.5H173.7z"/>
	<path class="st0" d="M202.3,23.9c-0.4,0.6-1,1.1-1.9,1.4c-0.9,0.4-2,0.5-3.2,0.5h-0.6c-2,0-3.5-0.5-4.7-1.5c-1.1-1-1.7-2.5-1.7-4.5
		v-0.4c0-2.2,0.6-3.7,1.9-4.6c1.3-0.8,3.2-1.3,5.9-1.3h0.3c0.5,0,1,0,1.6,0c0.5,0,0.9,0.1,1.2,0.1v-0.8c0-0.4,0-0.7-0.1-1
		c-0.1-0.3-0.3-0.5-0.6-0.7c-0.2-0.2-0.5-0.3-0.9-0.3c-0.3-0.1-0.8-0.1-1.5-0.1c-0.7,0-1.4,0.1-2.2,0.2c-0.8,0.1-1.6,0.3-2.3,0.5
		c-0.5,0.1-0.8,0.1-1,0c-0.2-0.1-0.3-0.4-0.3-0.7l-0.3-2.1c0-0.1,0-0.3-0.1-0.4c0-0.2,0-0.3,0-0.4c0-0.3,0.1-0.5,0.2-0.6
		c0.1-0.1,0.4-0.3,0.8-0.4c0.8-0.2,1.8-0.4,3-0.6c1.2-0.2,2.4-0.3,3.7-0.3c1.6,0,2.9,0.2,3.9,0.5c1.1,0.3,1.9,0.8,2.5,1.5
		c1,1,1.5,2.7,1.5,4.9v11.7c0,0.4-0.1,0.7-0.3,0.8c-0.2,0.2-0.5,0.3-1.1,0.3h-1.9c-0.4,0-0.8-0.1-1-0.2c-0.2-0.1-0.4-0.4-0.5-0.7
		L202.3,23.9L202.3,23.9z M200.9,17.7c-0.2-0.1-0.5-0.1-0.9-0.1c-0.4,0-0.7,0-1,0h-0.4c-0.9,0-1.6,0.1-2,0.3
		c-0.4,0.2-0.6,0.7-0.6,1.4v0.2c0,0.7,0.2,1.2,0.6,1.5c0.4,0.2,0.9,0.4,1.6,0.4h0.3c0.4,0,0.8-0.1,1.1-0.2c0.3-0.1,0.5-0.3,0.7-0.4
		c0.2-0.2,0.4-0.5,0.4-0.7c0.1-0.3,0.1-0.7,0.1-1.2V17.7z"/>
</g>
</svg>
