<?xml version="1.0" encoding="utf-8"?>
<!-- Generator: Adobe Illustrator 19.0.0, SVG Export Plug-In . SVG Version: 6.00 Build 0)  -->
<svg version="1.1" id="Layer_1" xmlns="http://www.w3.org/2000/svg" xmlns:xlink="http://www.w3.org/1999/xlink" x="0px" y="0px"
	 width="142px" height="38px" viewBox="0 0 142 38" style="enable-background:new 0 0 142 38;" xml:space="preserve">
<style type="text/css">
	.st0{fill:#002DBB;}
	.st1{fill:#E9E612;}
</style>
<g id="XMLID_111_">
	<path id="XMLID_203_" class="st0" d="M132,38H10C4.5,38,0,33.5,0,28V10C0,4.5,4.5,0,10,0h122c5.5,0,10,4.5,10,10v18
		C142,33.5,137.5,38,132,38z"/>
	<g id="XMLID_119_">
		<path id="XMLID_120_" class="st1" d="M9.6,17.7c0-1.1,0.1-2,0.4-2.8c0.2-0.8,0.6-1.4,1.1-1.9c0.5-0.5,1.1-0.9,1.9-1.1
			c0.8-0.2,1.7-0.4,2.9-0.4H16c0.4,0,0.8,0,1.3,0.1c0.4,0.1,0.9,0.1,1.3,0.2c0.4,0.1,0.8,0.2,1.2,0.3c0.4,0.1,0.7,0.3,0.9,0.4
			c0.1,0.1,0.2,0.1,0.3,0.2C21,13,21,13,21,13.1c0,0.1,0,0.2,0,0.3c0,0.1-0.1,0.2-0.1,0.4l-0.6,1.5c-0.1,0.4-0.4,0.5-0.7,0.3
			c-0.6-0.3-1.1-0.5-1.7-0.7c-0.6-0.1-1.1-0.2-1.8-0.2H16c-1,0-1.7,0.3-2.1,0.8c-0.2,0.3-0.3,0.6-0.4,1c-0.1,0.4-0.1,1-0.1,1.6v1.7
			c0,0.8,0,1.4,0.1,1.8c0.1,0.4,0.2,0.8,0.5,1c0.2,0.2,0.4,0.4,0.7,0.4c0.3,0.1,0.7,0.1,1.1,0.1H16c0.2,0,0.4,0,0.6,0
			c0.2,0,0.4,0,0.5-0.1c0.2,0,0.3-0.1,0.3-0.2c0.1-0.1,0.1-0.2,0.1-0.4v-2.1h-1.2c-0.3,0-0.4,0-0.5-0.1s-0.1-0.2-0.1-0.5v-1.5
			c0-0.3,0-0.5,0.1-0.6c0.1-0.1,0.3-0.1,0.5-0.1h4.2c0.3,0,0.4,0.1,0.5,0.2c0.1,0.1,0.1,0.3,0.1,0.6v6c0,0.3,0,0.5-0.1,0.7
			s-0.3,0.3-0.5,0.4c-0.3,0.1-0.7,0.2-1,0.3c-0.4,0.1-0.8,0.2-1.2,0.3c-0.4,0.1-0.8,0.1-1.2,0.2s-0.8,0.1-1.1,0.1h-0.3
			c-1.2,0-2.2-0.1-3-0.3c-0.8-0.2-1.4-0.6-1.9-1c-0.5-0.5-0.9-1.1-1-1.9s-0.3-1.7-0.3-2.9V17.7z"/>
		<path id="XMLID_122_" class="st1" d="M27,25.5c0,0.3,0,0.5-0.1,0.6c-0.1,0.1-0.3,0.1-0.6,0.1h-2.2c-0.3,0-0.6,0-0.6-0.1
			c-0.1-0.1-0.1-0.3-0.1-0.6V12.6c0-0.3,0.1-0.5,0.2-0.7c0.1-0.1,0.3-0.2,0.6-0.2c0.4,0,0.9-0.1,1.6-0.1c0.6,0,1.3,0,2.1,0h0.5
			c1.2,0,2.1,0.1,2.9,0.3c0.8,0.2,1.4,0.5,1.9,1c0.3,0.3,0.6,0.8,0.8,1.2c0.2,0.5,0.3,1.1,0.3,1.8v0.5c0,0.8-0.1,1.4-0.2,1.9
			c-0.1,0.5-0.4,1-0.7,1.4c-0.4,0.5-1,0.8-1.7,1l2.8,4.8c0.1,0.2,0.1,0.4,0.1,0.5c-0.1,0.1-0.3,0.2-0.6,0.2h-2.2
			c-0.4,0-0.7,0-0.8-0.1c-0.1-0.1-0.3-0.2-0.4-0.5l-2.2-4.3c0-0.1-0.1-0.2-0.1-0.2c-0.1,0-0.1-0.1-0.3-0.1H27V25.5z M28,14.6
			c-0.1,0-0.2,0-0.3,0s-0.2,0-0.3,0c-0.1,0-0.2,0-0.3,0.1C27.1,14.8,27,14.9,27,15v3.1h1.5c0.4,0,0.7,0,0.9-0.1
			c0.2-0.1,0.4-0.1,0.5-0.3c0.3-0.3,0.4-0.7,0.4-1.3v-0.3c0-0.3,0-0.5-0.1-0.7c-0.1-0.2-0.1-0.3-0.3-0.4c-0.3-0.3-0.8-0.4-1.5-0.4
			H28z"/>
		<path id="XMLID_125_" class="st1" d="M45.2,26.2c-0.2,0-0.4,0-0.5,0c-0.1,0-0.3-0.1-0.3-0.1c-0.1-0.1-0.1-0.1-0.2-0.2
			c0-0.1-0.1-0.2-0.1-0.3l-0.5-1.9h-4.2l-0.5,1.9c0,0.1-0.1,0.2-0.1,0.3c0,0.1-0.1,0.2-0.2,0.2c-0.1,0.1-0.2,0.1-0.3,0.1
			c-0.1,0-0.3,0-0.5,0h-1.9c-0.3,0-0.4,0-0.6-0.1s-0.2-0.2-0.2-0.4c0-0.1,0-0.2,0.1-0.4s0.1-0.5,0.2-0.9c0.6-2.1,1.2-4.1,1.8-6
			c0.6-1.9,1.2-3.8,1.8-5.7c0.1-0.4,0.3-0.6,0.5-0.8c0.2-0.1,0.6-0.2,1.1-0.2h2c0.5,0,0.8,0.1,1.1,0.2c0.2,0.1,0.4,0.4,0.5,0.8
			c0.6,1.9,1.2,3.8,1.8,5.7c0.6,1.9,1.2,3.9,1.8,6c0.1,0.4,0.2,0.7,0.2,0.9c0,0.2,0.1,0.3,0.1,0.4c0,0.2-0.1,0.3-0.2,0.4
			s-0.3,0.1-0.6,0.1H45.2z M42.9,20.7l-1.3-5h-0.2c-0.1,0.4-0.2,0.8-0.4,1.2c-0.1,0.4-0.2,0.9-0.3,1.3c-0.1,0.4-0.2,0.9-0.3,1.3
			c-0.1,0.4-0.2,0.8-0.3,1.2H42.9z"/>
		<path id="XMLID_128_" class="st1" d="M52.7,18.7L52.7,18.7l0,6.8c0,0.3-0.1,0.5-0.2,0.6c-0.1,0.1-0.3,0.1-0.6,0.1H50
			c-0.3,0-0.5,0-0.6-0.1c-0.1-0.1-0.2-0.3-0.2-0.6V12.5c0-0.3,0.1-0.5,0.2-0.6c0.1-0.1,0.3-0.1,0.6-0.1h1c0.4,0,0.6,0,0.8,0.1
			c0.2,0.1,0.4,0.2,0.6,0.5l4.9,7.3h0v-7.2c0-0.3,0.1-0.5,0.2-0.6c0.1-0.1,0.3-0.1,0.6-0.1H60c0.3,0,0.5,0,0.6,0.1
			c0.1,0.1,0.2,0.3,0.2,0.6v12.9c0,0.3-0.1,0.5-0.2,0.6s-0.3,0.1-0.6,0.1h-1c-0.4,0-0.6,0-0.8-0.1c-0.2-0.1-0.4-0.2-0.6-0.5
			L52.7,18.7z"/>
		<path id="XMLID_130_" class="st1" d="M67,26.2c-0.6,0-1.1,0-1.7,0c-0.6,0-1,0-1.3-0.1c-0.6-0.1-0.8-0.3-0.8-0.9V13.1
			c0-0.4,0.1-0.7,0.2-0.9c0.1-0.1,0.4-0.2,0.8-0.3c0.4,0,1-0.1,1.6-0.1c0.6,0,1.2,0,2,0h0.3c1.3,0,2.4,0.1,3.3,0.4
			c0.9,0.2,1.6,0.6,2.2,1.2c0.5,0.5,0.9,1.2,1.2,2c0.3,0.8,0.4,1.8,0.4,3v1.3c0,1.2-0.1,2.3-0.4,3.1c-0.3,0.8-0.7,1.4-1.2,2
			c-0.6,0.6-1.3,1-2.3,1.2c-0.9,0.3-2.1,0.4-3.6,0.4H67z M67.2,14.8c-0.3,0-0.4,0.1-0.4,0.4v7.4c0,0.2,0,0.3,0.1,0.4
			c0.1,0.1,0.1,0.1,0.3,0.1c0.1,0,0.3,0,0.5,0s0.4,0,0.5,0h0.1c0.9,0,1.5-0.2,2-0.6c0.6-0.6,0.8-1.6,0.8-3.1v-0.9
			c0-1.5-0.3-2.5-0.8-3.1c-0.2-0.3-0.5-0.4-0.9-0.5c-0.3-0.1-0.7-0.1-1.2-0.1h-0.1c-0.1,0-0.3,0-0.5,0S67.3,14.8,67.2,14.8z"/>
		<path id="XMLID_133_" class="st1" d="M84.7,25.5c0,0.3-0.1,0.5-0.2,0.5s-0.3,0.1-0.6,0.1h-2.2c-0.3,0-0.5,0-0.6-0.1
			C81.1,26,81,25.8,81,25.5V12.7c0-0.4,0.1-0.6,0.2-0.8c0.1-0.1,0.4-0.2,0.8-0.2c0.5,0,1-0.1,1.7-0.1s1.3,0,2.1,0H86
			c1.1,0,2.1,0.1,2.8,0.3c0.8,0.2,1.4,0.5,1.9,1c0.3,0.3,0.6,0.8,0.8,1.3s0.2,1.2,0.2,2v0.8c0,1.7-0.5,2.8-1.4,3.5
			c-0.5,0.4-1.1,0.7-1.9,0.8c-0.7,0.2-1.6,0.2-2.6,0.2h-1.1V25.5z M85.9,14.6c-0.2,0-0.3,0-0.5,0c-0.2,0-0.3,0-0.5,0
			c-0.1,0-0.2,0.1-0.2,0.3v3.5h1.2c0.4,0,0.8,0,1-0.1c0.3-0.1,0.5-0.2,0.6-0.3c0.3-0.2,0.4-0.7,0.4-1.3v-0.6c0-0.6-0.1-0.9-0.4-1.2
			c-0.3-0.3-0.7-0.4-1.4-0.4H85.9z"/>
		<path id="XMLID_136_" class="st1" d="M96.8,25.5c0,0.3,0,0.5-0.1,0.6c-0.1,0.1-0.3,0.1-0.6,0.1h-2.2c-0.3,0-0.6,0-0.6-0.1
			c-0.1-0.1-0.1-0.3-0.1-0.6V12.6c0-0.3,0.1-0.5,0.2-0.7c0.1-0.1,0.3-0.2,0.6-0.2c0.4,0,0.9-0.1,1.6-0.1c0.6,0,1.3,0,2.1,0H98
			c1.2,0,2.1,0.1,2.9,0.3c0.8,0.2,1.4,0.5,1.9,1c0.3,0.3,0.6,0.8,0.8,1.2c0.2,0.5,0.3,1.1,0.3,1.8v0.5c0,0.8-0.1,1.4-0.2,1.9
			c-0.1,0.5-0.4,1-0.7,1.4c-0.4,0.5-1,0.8-1.7,1l2.8,4.8c0.1,0.2,0.1,0.4,0.1,0.5c-0.1,0.1-0.3,0.2-0.6,0.2h-2.2
			c-0.4,0-0.7,0-0.8-0.1c-0.1-0.1-0.3-0.2-0.4-0.5l-2.2-4.3c0-0.1-0.1-0.2-0.1-0.2c-0.1,0-0.1-0.1-0.3-0.1h-0.6V25.5z M97.8,14.6
			c-0.1,0-0.2,0-0.3,0s-0.2,0-0.3,0c-0.1,0-0.2,0-0.3,0.1c-0.1,0.1-0.1,0.2-0.1,0.3v3.1h1.5c0.4,0,0.7,0,0.9-0.1
			c0.2-0.1,0.4-0.1,0.5-0.3c0.3-0.3,0.4-0.7,0.4-1.3v-0.3c0-0.3,0-0.5-0.1-0.7c-0.1-0.2-0.1-0.3-0.3-0.4c-0.3-0.3-0.8-0.4-1.5-0.4
			H97.8z"/>
		<path id="XMLID_139_" class="st1" d="M109.5,25.5c0,0.3,0,0.5-0.1,0.6c-0.1,0.1-0.3,0.1-0.6,0.1h-2.2c-0.3,0-0.6,0-0.6-0.1
			c-0.1-0.1-0.1-0.3-0.1-0.6V12.5c0-0.3,0-0.5,0.1-0.6s0.3-0.1,0.6-0.1h2.2c0.3,0,0.6,0,0.6,0.1s0.1,0.3,0.1,0.6V25.5z"/>
		<path id="XMLID_141_" class="st1" d="M120.7,23.2c0.3,0,0.5,0,0.6,0.1c0.1,0.1,0.2,0.3,0.2,0.6v1.6c0,0.3-0.1,0.5-0.2,0.6
			c-0.1,0.1-0.3,0.1-0.6,0.1h-8.9c-0.3,0-0.6-0.1-0.7-0.2c-0.1-0.1-0.2-0.3-0.2-0.6v-0.7c0-0.3,0-0.4,0.1-0.6c0-0.1,0.1-0.3,0.3-0.6
			l5.3-8.8h-4.6c-0.3,0-0.5,0-0.6-0.1c-0.1-0.1-0.2-0.3-0.2-0.5v-1.6c0-0.3,0.1-0.5,0.2-0.6c0.1-0.1,0.3-0.1,0.6-0.1h8.7
			c0.3,0,0.5,0,0.6,0.1c0.1,0.1,0.2,0.3,0.2,0.5v0.8c0,0.2,0,0.4-0.1,0.6c-0.1,0.2-0.2,0.4-0.4,0.7l-5.4,8.7H120.7z"/>
		<path id="XMLID_143_" class="st1" d="M126.3,20.3c0,0.5,0,0.9,0,1.3c0,0.4,0.1,0.8,0.1,1.2c0,0.2,0.1,0.3,0.2,0.3
			c0.1,0.1,0.2,0.1,0.3,0.1h4.8c0.3,0,0.6,0,0.6,0.1c0.1,0.1,0.1,0.3,0.1,0.6v1.7c0,0.3,0,0.5-0.1,0.5c-0.1,0.1-0.3,0.1-0.6,0.1
			h-5.4c-0.6,0-1,0-1.4-0.1c-0.4-0.1-0.7-0.2-1-0.4c-0.3-0.2-0.5-0.4-0.6-0.7c-0.1-0.3-0.2-0.7-0.3-1.2c-0.1-0.7-0.1-1.4-0.1-2.1
			c0-0.7,0-1.5,0-2.2v-1.4c0-0.5,0-1,0-1.7c0-0.6,0.1-1.3,0.1-1.9c0-0.6,0.1-1.1,0.3-1.4c0.1-0.4,0.4-0.7,0.6-0.9
			c0.3-0.2,0.6-0.4,1-0.4c0.4-0.1,0.9-0.1,1.5-0.1h5.3c0.4,0,0.6,0,0.6,0.1c0.1,0.1,0.1,0.3,0.1,0.6v1.7c0,0.3,0,0.4-0.1,0.5
			c-0.1,0.1-0.3,0.1-0.6,0.1H127c-0.2,0-0.4,0-0.4,0.1s-0.1,0.2-0.1,0.3l-0.1,2.2h4.7c0.3,0,0.5,0,0.6,0.1c0.1,0.1,0.1,0.3,0.1,0.5
			v1.6c0,0.2,0,0.4-0.1,0.5c-0.1,0.1-0.3,0.1-0.6,0.1H126.3z"/>
	</g>
</g>
</svg>
