<?xml version="1.0" encoding="utf-8"?>
<!-- Generator: Adobe Illustrator 19.2.1, SVG Export Plug-In . SVG Version: 6.00 Build 0)  -->
<svg version="1.1" id="Layer_1" xmlns="http://www.w3.org/2000/svg" xmlns:xlink="http://www.w3.org/1999/xlink" x="0px" y="0px"
	 width="108px" height="54px" viewBox="0 0 108 54" style="enable-background:new 0 0 108 54;" xml:space="preserve">
<style type="text/css">
	.st0{fill:#FFFFFF;stroke:#002DBB;stroke-miterlimit:10;}
	.st1{fill:#00B490;}
	.st2{fill:#014EA2;}
	.st3{fill:#014EA1;}
</style>
<g id="XMLID_1_">
	<path id="XMLID_393_" class="st0" d="M102.5,53.5h-97c-2.8,0-5-2.3-5-5v-43c0-2.8,2.3-5,5-5h97c2.8,0,5,2.3,5,5v43
		C107.5,51.3,105.3,53.5,102.5,53.5z"/>
	<g id="XMLID_4_">
		<g id="XMLID_114_">
			<path id="XMLID_115_" class="st1" d="M25.9,17.4c0,0.2,0,0.3-0.1,0.4c-0.1,0-0.2,0.1-0.4,0.1H24c-0.2,0-0.4,0-0.4-0.1
				c-0.1,0-0.1-0.2-0.1-0.4v-3.2h-2.7v3.2c0,0.2,0,0.3-0.1,0.4c-0.1,0-0.2,0.1-0.4,0.1H19c-0.2,0-0.3,0-0.4-0.1
				c-0.1,0-0.1-0.2-0.1-0.4V9.3c0-0.2,0-0.3,0.1-0.4c0.1,0,0.2-0.1,0.4-0.1h1.4c0.2,0,0.4,0,0.4,0.1c0.1,0,0.1,0.2,0.1,0.4v3.1h2.7
				V9.3c0-0.2,0-0.3,0.1-0.4c0.1,0,0.2-0.1,0.4-0.1h1.4c0.2,0,0.3,0,0.4,0.1C26,8.9,26,9.1,26,9.3v8.1H25.9z"/>
			<path id="XMLID_117_" class="st1" d="M31.2,17.3c-0.1,0.2-0.4,0.4-0.7,0.5c-0.3,0.1-0.7,0.2-1.1,0.2h-0.2c-0.7,0-1.3-0.2-1.7-0.5
				s-0.6-0.9-0.6-1.6v-0.2c0-0.8,0.2-1.3,0.7-1.6s1.1-0.4,2.1-0.4h0.1c0.2,0,0.4,0,0.6,0s0.3,0,0.4,0v-0.3c0-0.1,0-0.3,0-0.4
				c0-0.1-0.1-0.2-0.2-0.3s-0.2-0.1-0.3-0.1c-0.1,0-0.3,0-0.5,0s-0.5,0-0.8,0.1c-0.3,0-0.6,0.1-0.8,0.2c-0.2,0-0.3,0-0.4,0
				c-0.1-0.1-0.1-0.1-0.1-0.3l-0.1-0.7c0,0,0-0.1,0-0.2c0-0.1,0-0.1,0-0.1c0-0.1,0-0.2,0.1-0.2s0.1-0.1,0.3-0.1
				c0.3-0.1,0.7-0.2,1.1-0.2C29.5,11,30,11,30.4,11c0.6,0,1,0.1,1.4,0.2c0.4,0.1,0.7,0.3,0.9,0.5c0.4,0.4,0.5,0.9,0.5,1.7v4.2
				c0,0.1,0,0.2-0.1,0.3C33,18,32.9,18,32.7,18H32c-0.2,0-0.3,0-0.3-0.1s-0.1-0.1-0.2-0.3L31.2,17.3L31.2,17.3z M30.7,15.1
				c-0.1,0-0.2,0-0.3,0c-0.1,0-0.3,0-0.4,0h-0.2c-0.3,0-0.6,0-0.7,0.1s-0.2,0.3-0.2,0.5v0.1c0,0.3,0.1,0.4,0.2,0.5s0.3,0.1,0.6,0.1
				h0.1c0.2,0,0.3,0,0.4-0.1c0.1,0,0.2-0.1,0.3-0.1c0.1-0.1,0.1-0.2,0.2-0.3c0-0.1,0-0.2,0-0.4V15.1z"/>
			<path id="XMLID_206_" class="st1" d="M37.7,11.2V8.8c0-0.1,0-0.2,0.1-0.3s0.2-0.1,0.4-0.1h1.3c0.2,0,0.3,0,0.4,0.1
				c0,0.1,0.1,0.2,0.1,0.3v6.4c0,0.6,0,1-0.1,1.3s-0.2,0.6-0.4,0.8c-0.3,0.3-0.6,0.5-0.9,0.6s-1,0.1-1.7,0.1h-0.2
				c-0.6,0-1.1-0.1-1.4-0.2c-0.3-0.1-0.6-0.3-0.9-0.5c-0.3-0.2-0.4-0.5-0.6-0.9s-0.2-0.9-0.2-1.4v-1.1c0-0.6,0-1.1,0.1-1.4
				c0.1-0.4,0.3-0.7,0.6-0.9c0.2-0.2,0.5-0.3,0.8-0.5c0.3-0.1,0.7-0.2,1.1-0.2h0.2c0.3,0,0.5,0,0.7,0.1C37.4,11,37.5,11.1,37.7,11.2
				L37.7,11.2z M37.7,13.6c0-0.2,0-0.4,0-0.5s-0.1-0.2-0.1-0.3c-0.1-0.1-0.3-0.2-0.7-0.2h-0.1c-0.3,0-0.5,0.1-0.6,0.2
				C36,13,36,13.2,36,13.3c0,0.2,0,0.5,0,0.9v0.6c0,0.4,0,0.6,0,0.8s0.1,0.3,0.2,0.4c0.1,0.1,0.3,0.2,0.6,0.2H37
				c0.3,0,0.5-0.1,0.6-0.2s0.2-0.4,0.2-0.7L37.7,13.6L37.7,13.6z"/>
			<path id="XMLID_209_" class="st1" d="M42,10.5c-0.4,0-0.7-0.1-0.9-0.3C41,10,40.9,9.7,40.9,9.3l0,0c0-0.4,0.1-0.7,0.3-0.9
				s0.5-0.3,0.9-0.3h0.2c0.4,0,0.7,0.1,0.9,0.3s0.3,0.5,0.3,0.9v0.1c0,0.4-0.1,0.7-0.3,0.9s-0.5,0.3-0.9,0.3H42V10.5z M43.2,17.5
				c0,0.1,0,0.2-0.1,0.3c-0.1,0.1-0.2,0.1-0.4,0.1h-1.3c-0.2,0-0.3,0-0.4-0.1s0-0.2,0-0.3v-6c0-0.1,0-0.2,0.1-0.3s0.2-0.1,0.4-0.1
				h1.3c0.2,0,0.3,0,0.4,0.1c0.1,0.1,0.1,0.2,0.1,0.3L43.2,17.5L43.2,17.5z"/>
			<path id="XMLID_212_" class="st1" d="M48.3,17.3c-0.1,0.2-0.4,0.4-0.7,0.5S47,18,46.5,18h-0.2c-0.7,0-1.3-0.2-1.7-0.5
				S44,16.6,44,15.9v-0.2c0-0.8,0.2-1.3,0.7-1.6s1.1-0.4,2.1-0.4h0.1c0.2,0,0.4,0,0.6,0c0.2,0,0.3,0,0.4,0v-0.3c0-0.1,0-0.3,0-0.4
				c0-0.1-0.1-0.2-0.2-0.3c-0.1-0.1-0.2-0.1-0.3-0.1s-0.3,0-0.5,0s-0.5,0-0.8,0.1c-0.3,0-0.6,0.1-0.8,0.2c-0.2,0-0.3,0-0.4,0
				c-0.1-0.1-0.1-0.1-0.1-0.3l-0.1-0.7c0,0,0-0.1,0-0.2c0-0.1,0-0.1,0-0.1c0-0.1,0-0.2,0.1-0.2s0.1-0.1,0.3-0.1
				c0.3-0.1,0.7-0.2,1.1-0.2c0.4-0.1,0.9-0.1,1.3-0.1c0.6,0,1,0.1,1.4,0.2c0.4,0.1,0.7,0.3,0.9,0.5c0.4,0.4,0.5,0.9,0.5,1.7v4.2
				c0,0.1,0,0.2-0.1,0.3C50.1,18,50,18,49.8,18H49c-0.2,0-0.3,0-0.3-0.1s-0.1-0.1-0.2-0.3L48.3,17.3L48.3,17.3z M47.9,15.1
				c-0.1,0-0.2,0-0.3,0s-0.3,0-0.4,0H47c-0.3,0-0.6,0-0.7,0.1c-0.1,0.1-0.2,0.3-0.2,0.5v0.1c0,0.3,0.1,0.4,0.2,0.5
				c0.1,0.1,0.3,0.1,0.6,0.1H47c0.2,0,0.3,0,0.4-0.1c0.1,0,0.2-0.1,0.3-0.1c0.1-0.1,0.1-0.2,0.2-0.3c0-0.1,0-0.2,0-0.4V15.1z"/>
			<path id="XMLID_215_" class="st1" d="M54.1,12.7c-0.3,0-0.5,0.1-0.6,0.2c-0.1,0.1-0.2,0.3-0.2,0.6v4c0,0.1,0,0.2-0.1,0.3
				c-0.1,0.1-0.2,0.1-0.4,0.1h-1.3c-0.2,0-0.3,0-0.4-0.1C51,17.7,51,17.6,51,17.5V8.8c0-0.1,0-0.2,0.1-0.3s0.2-0.1,0.4-0.1h1.3
				c0.2,0,0.3,0,0.4,0.1c0.1,0.1,0.1,0.2,0.1,0.3v2.5l0,0c0.4-0.3,0.9-0.4,1.5-0.4l0,0c0.8,0,1.4,0.2,1.8,0.6
				c0.2,0.2,0.3,0.4,0.4,0.7c0.1,0.3,0.1,0.7,0.1,1.1v4.2c0,0.1,0,0.2-0.1,0.3c-0.1,0.1-0.2,0.1-0.4,0.1h-1.3c-0.2,0-0.3,0-0.4-0.1
				c-0.1-0.1-0.1-0.2-0.1-0.3v-4c0-0.3-0.1-0.5-0.2-0.6C54.7,12.8,54.5,12.7,54.1,12.7L54.1,12.7z"/>
			<path id="XMLID_217_" class="st1" d="M68.4,17.4c0,0.2,0,0.3-0.1,0.4c-0.1,0-0.2,0.1-0.4,0.1h-1.4c-0.2,0-0.4,0-0.4-0.1
				c-0.1,0-0.1-0.2-0.1-0.4v-3.2h-2.7v3.2c0,0.2,0,0.3-0.1,0.4c-0.1,0-0.2,0.1-0.4,0.1h-1.4c-0.2,0-0.3,0-0.4-0.1
				c-0.1,0-0.1-0.2-0.1-0.4V9.3c0-0.2,0-0.3,0.1-0.4c0.1,0,0.2-0.1,0.4-0.1h1.4c0.2,0,0.4,0,0.4,0.1c0.1,0,0.1,0.2,0.1,0.4v3.1H66
				V9.3c0-0.2,0-0.3,0.1-0.4c0.1,0,0.2-0.1,0.4-0.1h1.4c0.2,0,0.3,0,0.4,0.1c0.1,0,0.1,0.2,0.1,0.4V17.4z"/>
			<path id="XMLID_375_" class="st1" d="M73.7,17.3c-0.1,0.2-0.4,0.4-0.7,0.5c-0.3,0.1-0.7,0.2-1.1,0.2h-0.2c-0.7,0-1.3-0.2-1.7-0.5
				s-0.6-0.9-0.6-1.6v-0.2c0-0.8,0.2-1.3,0.7-1.6s1.1-0.4,2.1-0.4h0.1c0.2,0,0.4,0,0.6,0s0.3,0,0.4,0v-0.3c0-0.1,0-0.3,0-0.4
				c0-0.1-0.1-0.2-0.2-0.3s-0.2-0.1-0.3-0.1c-0.1,0-0.3,0-0.5,0s-0.5,0-0.8,0.1c-0.3,0-0.6,0.1-0.8,0.2c-0.2,0-0.3,0-0.4,0
				c-0.1-0.1-0.1-0.1-0.1-0.3l-0.1-0.7c0,0,0-0.1,0-0.2c0-0.1,0-0.1,0-0.1c0-0.1,0-0.2,0.1-0.2s0.1-0.1,0.3-0.1
				c0.3-0.1,0.7-0.2,1.1-0.2C72,11,72.5,11,72.9,11c0.6,0,1,0.1,1.4,0.2c0.4,0.1,0.7,0.3,0.9,0.5c0.4,0.4,0.5,0.9,0.5,1.7v4.2
				c0,0.1,0,0.2-0.1,0.3C75.5,18,75.4,18,75.2,18h-0.7c-0.2,0-0.3,0-0.3-0.1s-0.1-0.1-0.2-0.3L73.7,17.3L73.7,17.3z M73.2,15.1
				c-0.1,0-0.2,0-0.3,0c-0.1,0-0.3,0-0.4,0h-0.2c-0.3,0-0.6,0-0.7,0.1s-0.2,0.3-0.2,0.5v0.1c0,0.3,0.1,0.4,0.2,0.5s0.3,0.1,0.6,0.1
				h0.1c0.2,0,0.3,0,0.4-0.1c0.1,0,0.2-0.1,0.3-0.1c0.1-0.1,0.1-0.2,0.2-0.3c0-0.1,0-0.2,0-0.4V15.1z"/>
			<path id="XMLID_378_" class="st1" d="M78.3,11.8c0.2-0.3,0.4-0.5,0.6-0.6s0.6-0.2,1-0.2h0.6c0.1,0,0.3,0,0.3,0.1
				c0.1,0.1,0.1,0.2,0.1,0.3v1c0,0.2,0,0.3-0.1,0.3c-0.1,0.1-0.2,0.1-0.3,0.1H80c-0.5,0-0.9,0.1-1.1,0.3c-0.1,0.1-0.2,0.2-0.2,0.4
				s0,0.4,0,0.6v3.4c0,0.1,0,0.2-0.1,0.3c-0.1,0.1-0.2,0.1-0.4,0.1h-1.3c-0.2,0-0.3,0-0.4-0.1s-0.1-0.2-0.1-0.3v-6.1
				c0-0.1,0-0.2,0.1-0.3s0.2-0.1,0.4-0.1h0.7c0.2,0,0.3,0,0.3,0.1c0.1,0,0.1,0.1,0.2,0.3L78.3,11.8L78.3,11.8z"/>
			<path id="XMLID_380_" class="st1" d="M82.3,10.5c-0.4,0-0.7-0.1-0.9-0.3c-0.2-0.2-0.3-0.5-0.3-0.9l0,0c0-0.4,0.1-0.7,0.3-0.9
				c0.2-0.2,0.5-0.3,0.9-0.3h0.2c0.4,0,0.7,0.1,0.9,0.3c0.2,0.2,0.3,0.5,0.3,0.9v0.1c0,0.4-0.1,0.7-0.3,0.9
				c-0.2,0.2-0.5,0.3-0.9,0.3h-0.2V10.5z M83.5,17.5c0,0.1,0,0.2-0.1,0.3c-0.1,0.1-0.2,0.1-0.4,0.1h-1.3c-0.2,0-0.3,0-0.4-0.1
				s-0.1-0.2-0.1-0.3v-6c0-0.1,0-0.2,0.1-0.3s0.2-0.1,0.4-0.1H83c0.2,0,0.3,0,0.4,0.1s0.1,0.2,0.1,0.3V17.5z"/>
			<path id="XMLID_396_" class="st1" d="M88.6,17.3c-0.1,0.2-0.4,0.4-0.7,0.5c-0.3,0.1-0.7,0.2-1.1,0.2h-0.2c-0.7,0-1.3-0.2-1.7-0.5
				s-0.6-0.9-0.6-1.6v-0.2c0-0.8,0.2-1.3,0.7-1.6s1.1-0.4,2.1-0.4h0.1c0.2,0,0.4,0,0.6,0s0.3,0,0.4,0v-0.3c0-0.1,0-0.3,0-0.4
				c0-0.1-0.1-0.2-0.2-0.3s-0.2-0.1-0.3-0.1c-0.1,0-0.3,0-0.5,0s-0.5,0-0.8,0.1c-0.3,0-0.6,0.1-0.8,0.2c-0.2,0-0.3,0-0.4,0
				c-0.1-0.1-0.1-0.1-0.1-0.3L85,11.9c0,0,0-0.1,0-0.2c0-0.1,0-0.1,0-0.1c0-0.1,0-0.2,0.1-0.2s0.1-0.1,0.3-0.1
				c0.3-0.1,0.7-0.2,1.1-0.2c0.4-0.1,0.9-0.1,1.3-0.1c0.6,0,1,0.1,1.4,0.2c0.4,0.1,0.7,0.3,0.9,0.5c0.4,0.4,0.5,0.9,0.5,1.7v4.2
				c0,0.1,0,0.2-0.1,0.3C90.4,18,90.3,18,90.1,18h-0.7c-0.2,0-0.3,0-0.3-0.1s-0.1-0.1-0.2-0.3L88.6,17.3L88.6,17.3z M88.2,15.1
				c-0.1,0-0.2,0-0.3,0c-0.1,0-0.3,0-0.4,0h-0.2c-0.3,0-0.6,0-0.7,0.1s-0.2,0.3-0.2,0.5v0.1c0,0.3,0.1,0.4,0.2,0.5s0.3,0.1,0.6,0.1
				h0.1c0.2,0,0.3,0,0.4-0.1c0.1,0,0.2-0.1,0.3-0.1c0.1-0.1,0.1-0.2,0.2-0.3c0-0.1,0-0.2,0-0.4V15.1z"/>
			<path id="XMLID_399_" class="st1" d="M95.2,10.9c0.8,0,1.4,0.2,1.8,0.6c0.2,0.2,0.3,0.4,0.4,0.7s0.1,0.7,0.1,1.1v4.2
				c0,0.1,0,0.2-0.1,0.3c-0.1,0.1-0.2,0.1-0.4,0.1h-1.3c-0.2,0-0.3,0-0.4-0.1s-0.1-0.2-0.1-0.3v-4c0-0.3-0.1-0.5-0.2-0.6
				s-0.3-0.2-0.6-0.2h-0.1c-0.3,0-0.5,0.1-0.6,0.2c-0.1,0.1-0.2,0.3-0.2,0.6v4c0,0.1,0,0.2-0.1,0.3c-0.1,0.1-0.2,0.1-0.4,0.1h-1.3
				c-0.2,0-0.3,0-0.4-0.1s-0.1-0.2-0.1-0.3v-6.1c0-0.1,0-0.2,0.1-0.3s0.2-0.1,0.4-0.1h0.7c0.2,0,0.3,0,0.3,0.1
				c0.1,0,0.1,0.1,0.2,0.3l0.1,0.3l0,0c0.4-0.5,1.1-0.7,1.9-0.7h0.3V10.9z"/>
		</g>
		<g id="XMLID_408_">
			<path id="XMLID_409_" class="st2" d="M53.7,31.2c-0.2,0-0.4,0-0.6,0c-0.2,0-0.4,0-0.6-0.1S52,31,51.8,31s-0.4-0.1-0.5-0.1
				c-0.2-0.1-0.3-0.1-0.3-0.2s-0.1-0.2,0-0.3l0.2-1c0-0.3,0.2-0.3,0.4-0.3c0.4,0.1,0.7,0.2,1.1,0.3c0.4,0.1,0.7,0.1,0.9,0.1h0.1
				c0.4,0,0.7-0.1,0.8-0.2c0.2-0.1,0.2-0.3,0.2-0.6v-0.1c0-0.3-0.1-0.4-0.2-0.5c-0.1-0.1-0.4-0.2-0.8-0.2l-0.9-0.2
				c-0.4-0.1-0.7-0.2-0.9-0.3c-0.2-0.1-0.4-0.3-0.6-0.5c-0.1-0.2-0.3-0.4-0.3-0.6c0-0.3,0-0.6,0-0.9V25c0-0.7,0.2-1.3,0.6-1.6
				c0.2-0.2,0.6-0.4,1-0.5s0.9-0.2,1.6-0.2h0.1c0.4,0,0.8,0,1.2,0.1s0.7,0.1,1,0.2c0.1,0.1,0.2,0.1,0.3,0.2c0,0.1,0,0.2,0,0.4
				l-0.2,0.9c-0.1,0.2-0.2,0.3-0.5,0.2c-0.3-0.1-0.6-0.2-0.8-0.2s-0.5-0.1-0.8-0.1h-0.1c-0.4,0-0.7,0-0.9,0.1
				C53.1,24.8,53,25,53,25.2v0.1c0,0.2,0.1,0.3,0.2,0.4s0.3,0.2,0.7,0.2l1,0.2c0.4,0.1,0.7,0.2,0.9,0.3s0.5,0.2,0.6,0.4
				c0.2,0.2,0.3,0.4,0.3,0.6c0.1,0.3,0.1,0.6,0.1,1v0.3c0,0.8-0.2,1.5-0.7,1.9S54.9,31.2,53.7,31.2L53.7,31.2z"/>
			<path id="XMLID_411_" class="st2" d="M61.3,30.6c-0.1,0.2-0.3,0.3-0.6,0.5c-0.3,0.1-0.6,0.2-1,0.2h-0.2c-0.6,0-1.1-0.2-1.5-0.5
				s-0.6-0.8-0.6-1.5v-0.1c0-0.7,0.2-1.2,0.6-1.5c0.4-0.3,1-0.4,1.9-0.4H60c0.2,0,0.3,0,0.5,0s0.3,0,0.4,0V27c0-0.1,0-0.2,0-0.3
				c0-0.1-0.1-0.2-0.2-0.2c-0.1-0.1-0.2-0.1-0.3-0.1s-0.3,0-0.5,0s-0.5,0-0.7,0.1c-0.3,0-0.5,0.1-0.8,0.2c-0.2,0-0.3,0-0.3,0
				c-0.1,0-0.1-0.1-0.1-0.2l-0.1-0.7v-0.1c0-0.1,0-0.1,0-0.1c0-0.1,0-0.2,0.1-0.2s0.1-0.1,0.2-0.1c0.3-0.1,0.6-0.1,1-0.2
				S60,25,60.4,25c0.5,0,0.9,0.1,1.3,0.2s0.6,0.3,0.8,0.5c0.3,0.3,0.5,0.9,0.5,1.6v3.8c0,0.1,0,0.2-0.1,0.3
				c-0.1,0.1-0.2,0.1-0.3,0.1H62c-0.1,0-0.2,0-0.3-0.1s-0.1-0.1-0.2-0.2L61.3,30.6L61.3,30.6z M60.8,28.6c-0.1,0-0.2,0-0.3,0
				s-0.2,0-0.3,0h-0.1c-0.3,0-0.5,0-0.6,0.1s-0.2,0.2-0.2,0.5v0.1c0,0.2,0.1,0.4,0.2,0.5c0.1,0.1,0.3,0.1,0.5,0.1h0.1
				c0.1,0,0.3,0,0.4-0.1s0.2-0.1,0.2-0.1c0.1-0.1,0.1-0.1,0.1-0.2s0-0.2,0-0.4C60.8,29.1,60.8,28.6,60.8,28.6z"/>
			<path id="XMLID_421_" class="st2" d="M69.2,30.7c0,0.1,0,0.2-0.1,0.3s-0.2,0.1-0.3,0.1h-1.2c-0.2,0-0.3,0-0.3-0.1
				c-0.1-0.1-0.1-0.2-0.1-0.3v-3.6c0-0.3,0-0.5-0.1-0.6s-0.3-0.2-0.6-0.2l0,0c-0.3,0-0.5,0.1-0.6,0.2s-0.1,0.3-0.1,0.6v3.6
				c0,0.1,0,0.2-0.1,0.3s-0.2,0.1-0.3,0.1h-1.2c-0.2,0-0.3,0-0.3-0.1s-0.1-0.2-0.1-0.3v-5.5c0-0.1,0-0.2,0.1-0.3
				c0.1-0.1,0.2-0.1,0.3-0.1h0.6c0.1,0,0.2,0,0.3,0.1s0.1,0.1,0.2,0.2l0.1,0.2l0,0c0.4-0.4,1-0.6,1.7-0.6h0.1c0.4,0,0.7,0,1,0.1
				s0.5,0.2,0.7,0.5c0.2-0.2,0.5-0.3,0.7-0.4c0.3-0.1,0.6-0.1,1-0.1h0.1c0.7,0,1.3,0.2,1.6,0.5c0.2,0.2,0.3,0.4,0.4,0.6
				c0.1,0.3,0.1,0.6,0.1,1v3.8c0,0.1,0,0.2-0.1,0.3c-0.1,0.1-0.2,0.1-0.3,0.1h-1.2c-0.2,0-0.3,0-0.3-0.1c-0.1-0.1-0.1-0.2-0.1-0.3
				v-3.6c0-0.3,0-0.5-0.1-0.6s-0.3-0.2-0.6-0.2l0,0c-0.3,0-0.5,0.1-0.6,0.2s-0.1,0.3-0.1,0.6v3.6H69.2z"/>
			<path id="XMLID_423_" class="st2" d="M73.4,26.8c0-0.6,0.2-1.1,0.5-1.4c0.4-0.4,1-0.6,1.9-0.6H76c0.1,0,0.3,0,0.5,0
				s0.3,0,0.5,0.1c0.2,0,0.3,0,0.5,0.1c0.2,0,0.3,0.1,0.4,0.1s0.2,0.1,0.2,0.1s0,0.1,0,0.2l-0.1,1c0,0.2-0.1,0.2-0.3,0.2
				c-0.2-0.1-0.4-0.1-0.7-0.1s-0.5-0.1-0.7-0.1l0,0c-0.3,0-0.5,0-0.6,0.1s-0.2,0.1-0.2,0.3l0,0c0,0.1,0.1,0.2,0.2,0.3
				c0.1,0.1,0.3,0.1,0.6,0.2l0.6,0.1c0.3,0.1,0.5,0.1,0.7,0.2s0.3,0.2,0.5,0.3c0.1,0.1,0.2,0.3,0.3,0.5c0.1,0.2,0.1,0.4,0.1,0.7v0.2
				c0,0.7-0.2,1.2-0.6,1.5s-1,0.5-1.9,0.5h-0.1c-0.2,0-0.4,0-0.6,0s-0.4,0-0.6-0.1c-0.2,0-0.4-0.1-0.5-0.1c-0.2,0-0.3-0.1-0.5-0.1
				c-0.1,0-0.2-0.1-0.2-0.2s0-0.2,0-0.3l0.2-0.8c0-0.2,0.2-0.3,0.4-0.2c0.2,0.1,0.5,0.1,0.8,0.2s0.5,0.1,0.8,0.1l0,0
				c0.3,0,0.5,0,0.6-0.1s0.2-0.2,0.2-0.3l0,0c0-0.1,0-0.2-0.1-0.2c-0.1-0.1-0.3-0.1-0.6-0.2l-0.6-0.1c-0.5-0.1-0.9-0.3-1.2-0.6
				c-0.2-0.3-0.4-0.6-0.4-1.2v-0.3H73.4z"/>
			<path id="XMLID_425_" class="st2" d="M82.3,25.2c0-0.1,0-0.2,0.1-0.3s0.2-0.1,0.3-0.1h1.2c0.2,0,0.3,0,0.3,0.1s0.1,0.2,0.1,0.3
				V29c0,0.4,0,0.7-0.1,1s-0.2,0.5-0.4,0.7c-0.2,0.2-0.5,0.3-0.9,0.4s-0.8,0.1-1.3,0.1s-0.9,0-1.3-0.1s-0.6-0.2-0.9-0.4
				c-0.2-0.2-0.3-0.4-0.4-0.7c-0.1-0.3-0.1-0.6-0.1-1v-3.8c0-0.1,0-0.2,0.1-0.3s0.2-0.1,0.3-0.1h1.2c0.2,0,0.3,0,0.3,0.1
				s0.1,0.2,0.1,0.3v3.6c0,0.3,0,0.5,0.1,0.6s0.3,0.2,0.6,0.2s0.5-0.1,0.6-0.2s0.1-0.3,0.1-0.6L82.3,25.2L82.3,25.2z"/>
			<path id="XMLID_427_" class="st2" d="M88.7,24.8c0.7,0,1.3,0.2,1.6,0.5c0.2,0.2,0.3,0.4,0.4,0.6c0.1,0.3,0.1,0.6,0.1,1v3.8
				c0,0.1,0,0.2-0.1,0.3s-0.2,0.1-0.3,0.1h-1.2c-0.2,0-0.3,0-0.3-0.1c-0.1-0.1-0.1-0.2-0.1-0.3v-3.6c0-0.3,0-0.5-0.1-0.6
				s-0.3-0.2-0.6-0.2H88c-0.3,0-0.5,0.1-0.6,0.2s-0.1,0.3-0.1,0.6v3.6c0,0.1,0,0.2-0.1,0.3s-0.2,0.1-0.3,0.1h-1.2
				c-0.2,0-0.3,0-0.3-0.1s-0.1-0.2-0.1-0.3v-5.5c0-0.1,0-0.2,0.1-0.3c0.1-0.1,0.2-0.1,0.3-0.1h0.6c0.1,0,0.2,0,0.3,0.1
				s0.1,0.1,0.2,0.2l0.1,0.2l0,0C87.3,24.9,87.9,24.7,88.7,24.8L88.7,24.8L88.7,24.8z"/>
			<path id="XMLID_429_" class="st2" d="M94.1,30.5c-0.9,0-1.6-0.2-2-0.6c-0.5-0.4-0.7-1-0.7-1.9v-0.9c0-0.9,0.2-1.5,0.7-1.9
				c0.4-0.4,1.1-0.6,2-0.6h0.2c0.1-0.4,0.3-0.8,0.6-1s0.8-0.4,1.4-0.4h0.6c0.1,0,0.2,0,0.2,0.1c0,0,0.1,0.1,0.1,0.3v0.7
				c0,0.1,0,0.2-0.1,0.2s-0.1,0.1-0.2,0.1h-0.6c-0.2,0-0.3,0-0.4,0s-0.2,0.1-0.2,0.1c0.5,0.1,0.9,0.4,1.1,0.8s0.3,0.9,0.3,1.5v0.9
				c0,0.5-0.1,0.8-0.2,1.1s-0.3,0.5-0.6,0.7c0.3,0.2,0.6,0.4,0.8,0.7c0.2,0.3,0.3,0.6,0.3,0.9v0.1c0,0.6-0.2,1-0.7,1.4
				s-1.2,0.5-2.3,0.5h-0.2c-0.2,0-0.4,0-0.6,0s-0.4-0.1-0.7-0.1s-0.4-0.1-0.6-0.1c-0.2-0.1-0.4-0.1-0.6-0.2
				c-0.2-0.1-0.3-0.2-0.3-0.5l0.2-0.8c0-0.1,0.1-0.2,0.1-0.2s0.2,0,0.3,0c0.2,0.1,0.3,0.1,0.5,0.1s0.4,0.1,0.5,0.1
				c0.2,0,0.3,0.1,0.5,0.1s0.3,0,0.4,0h0.2c0.4,0,0.7-0.1,0.9-0.2c0.2-0.1,0.3-0.3,0.3-0.5l0,0c0-0.2-0.1-0.5-0.4-0.7
				c-0.1,0-0.2,0-0.3,0s-0.2,0-0.3,0h-0.2V30.5z M94.4,28.9c0.1,0,0.3,0,0.4-0.1c0.1,0,0.2-0.1,0.2-0.1c0.1-0.1,0.1-0.2,0.2-0.3
				c0-0.1,0.1-0.3,0.1-0.6v-0.5c0-0.3,0-0.4-0.1-0.6c0-0.1-0.1-0.2-0.2-0.3c-0.1-0.1-0.1-0.1-0.2-0.1s-0.2-0.1-0.4-0.1h-0.1
				c-0.3,0-0.5,0.1-0.6,0.2s-0.1,0.2-0.2,0.3c0,0.1-0.1,0.3-0.1,0.6v0.5c0,0.3,0,0.4,0.1,0.6s0.1,0.2,0.2,0.3
				C93.8,28.9,94,28.9,94.4,28.9L94.4,28.9z"/>
		</g>
		<g id="XMLID_432_">
			<path id="XMLID_433_" class="st2" d="M50.5,38.7c0-0.6,0.1-1.1,0.2-1.5c0.1-0.4,0.3-0.8,0.6-1c0.3-0.3,0.6-0.5,1-0.6
				s1-0.2,1.6-0.2H54c0.2,0,0.5,0,0.7,0s0.5,0.1,0.7,0.1c0.2,0.1,0.4,0.1,0.7,0.2c0.2,0.1,0.4,0.1,0.5,0.2c0.1,0,0.1,0.1,0.2,0.1
				v0.1v0.1c0,0.1,0,0.1-0.1,0.2l-0.3,0.8c-0.1,0.2-0.2,0.3-0.4,0.2c-0.3-0.2-0.6-0.3-0.9-0.4c-0.3-0.1-0.6-0.1-1-0.1H54
				c-0.6,0-0.9,0.2-1.2,0.5c-0.1,0.2-0.2,0.4-0.2,0.6c0,0.2-0.1,0.5-0.1,0.9v0.9c0,0.4,0,0.8,0.1,1c0,0.2,0.1,0.4,0.3,0.6
				c0.1,0.1,0.2,0.2,0.4,0.2s0.4,0.1,0.6,0.1H54c0.1,0,0.2,0,0.3,0s0.2,0,0.3,0s0.2,0,0.2-0.1c0,0,0-0.1,0-0.2v-1.1h-0.6
				c-0.1,0-0.2,0-0.3-0.1c0,0-0.1-0.1-0.1-0.3v-0.8c0-0.2,0-0.3,0.1-0.3c0,0,0.1-0.1,0.3-0.1h2.4c0.1,0,0.3,0,0.3,0.1
				C57,38.9,57,39,57,39.2v3.3c0,0.2,0,0.3-0.1,0.4c-0.1,0.1-0.2,0.2-0.3,0.2c-0.2,0.1-0.4,0.1-0.6,0.2c-0.2,0.1-0.4,0.1-0.7,0.1
				c-0.2,0-0.4,0.1-0.7,0.1c-0.2,0-0.4,0-0.6,0h-0.2c-0.7,0-1.2-0.1-1.6-0.2c-0.4-0.1-0.8-0.3-1-0.6c-0.3-0.3-0.5-0.6-0.6-1.1
				c-0.1-0.4-0.2-1-0.2-1.6L50.5,38.7L50.5,38.7z"/>
			<path id="XMLID_435_" class="st2" d="M61.5,42.9c-0.1,0.2-0.3,0.3-0.6,0.5s-0.6,0.2-1,0.2h-0.2c-0.6,0-1.1-0.2-1.5-0.5
				s-0.5-0.8-0.5-1.4v-0.1c0-0.7,0.2-1.2,0.6-1.4c0.4-0.3,1-0.4,1.8-0.4h0.1c0.2,0,0.3,0,0.5,0s0.3,0,0.4,0v-0.3c0-0.1,0-0.2,0-0.3
				S61,39,60.9,39c-0.1,0-0.2-0.1-0.3-0.1s-0.3,0-0.5,0s-0.4,0-0.7,0.1c-0.3,0-0.5,0.1-0.7,0.2c-0.2,0-0.3,0-0.3,0s-0.1-0.1-0.1-0.2
				l-0.1-0.7v-0.1v-0.1c0-0.1,0-0.1,0.1-0.2c0,0,0.1-0.1,0.2-0.1c0.3-0.1,0.6-0.1,0.9-0.2s0.8-0.1,1.2-0.1c0.5,0,0.9,0,1.2,0.1
				s0.6,0.3,0.8,0.5c0.3,0.3,0.5,0.8,0.5,1.5v3.7c0,0.1,0,0.2-0.1,0.3s-0.2,0.1-0.3,0.1h-0.6c-0.1,0-0.2,0-0.3-0.1
				c-0.1,0-0.1-0.1-0.2-0.2L61.5,42.9L61.5,42.9z M61.1,41c-0.1,0-0.2,0-0.3,0s-0.2,0-0.3,0h-0.1c-0.3,0-0.5,0-0.6,0.1
				s-0.2,0.2-0.2,0.5l0,0c0,0.2,0.1,0.4,0.2,0.5c0.1,0.1,0.3,0.1,0.5,0.1h0.1c0.1,0,0.3,0,0.4-0.1S61,42,61,42
				c0.1-0.1,0.1-0.1,0.1-0.2c0-0.1,0-0.2,0-0.4C61.1,41.4,61.1,41,61.1,41z"/>
			<path id="XMLID_438_" class="st2" d="M66.6,41.8c0.1,0,0.2,0,0.3,0.1s0.1,0.2,0.1,0.3V43c0,0.2,0,0.3-0.1,0.3
				c-0.1,0.1-0.1,0.1-0.3,0.1h-0.9c-0.6,0-1.1-0.1-1.3-0.4c-0.1-0.1-0.2-0.3-0.3-0.5C64,42.4,64,42.1,64,41.8v-6.4
				c0-0.1,0-0.2,0.1-0.3s0.2-0.1,0.3-0.1h1.1c0.2,0,0.3,0,0.3,0.1c0.1,0.1,0.1,0.2,0.1,0.3v6.2c0,0.1,0,0.2,0,0.2s0.1,0,0.2,0H66.6z
				"/>
			<path id="XMLID_440_" class="st2" d="M71,42.9c-0.1,0.2-0.3,0.3-0.6,0.5s-0.6,0.2-1,0.2h-0.2c-0.6,0-1.1-0.2-1.5-0.5
				s-0.5-0.8-0.5-1.4v-0.1c0-0.7,0.2-1.2,0.6-1.4c0.4-0.3,1-0.4,1.8-0.4h0.1c0.2,0,0.3,0,0.5,0s0.3,0,0.4,0v-0.3c0-0.1,0-0.2,0-0.3
				S70.5,39,70.4,39s-0.2-0.1-0.3-0.1c-0.1,0-0.3,0-0.5,0s-0.4,0-0.7,0.1c-0.3,0-0.5,0.1-0.7,0.2c-0.2,0-0.3,0-0.3,0
				s-0.1-0.1-0.1-0.2l-0.1-0.7v-0.1v-0.1c0-0.1,0-0.1,0.1-0.2c0,0,0.1-0.1,0.2-0.1c0.3-0.1,0.6-0.1,0.9-0.2s0.8-0.1,1.2-0.1
				c0.5,0,0.9,0,1.2,0.1c0.3,0.1,0.6,0.3,0.8,0.5c0.3,0.3,0.5,0.8,0.5,1.5v3.7c0,0.1,0,0.2-0.1,0.3s-0.2,0.1-0.3,0.1h-0.6
				c-0.1,0-0.2,0-0.3-0.1c-0.1,0-0.1-0.1-0.2-0.2L71,42.9L71,42.9z M70.6,41c-0.1,0-0.2,0-0.3,0c-0.1,0-0.2,0-0.3,0h-0.1
				c-0.3,0-0.5,0-0.6,0.1s-0.2,0.2-0.2,0.5l0,0c0,0.2,0.1,0.4,0.2,0.5s0.3,0.1,0.5,0.1h0.1c0.1,0,0.3,0,0.4-0.1s0.2-0.1,0.2-0.1
				c0.1-0.1,0.1-0.1,0.1-0.2c0-0.1,0-0.2,0-0.4C70.6,41.4,70.6,41,70.6,41z"/>
			<path id="XMLID_443_" class="st2" d="M75,43.1c-0.1,0.1-0.1,0.2-0.2,0.3c-0.1,0-0.2,0-0.3,0h-1.4c-0.1,0-0.2,0-0.3-0.1
				c0-0.1,0-0.2,0-0.3l1.3-2.4c0-0.1,0.1-0.1,0.1-0.1v-0.1v-0.1c0,0,0-0.1-0.1-0.1L73,37.8c-0.1-0.1-0.1-0.2,0-0.3
				c0-0.1,0.1-0.1,0.3-0.1h1.4c0.2,0,0.3,0,0.3,0c0.1,0,0.1,0.1,0.2,0.3l0.7,1.7c0,0,0,0,0.1,0l0,0h0.1l0.7-1.7
				c0.1-0.1,0.1-0.2,0.2-0.3c0.1,0,0.2,0,0.3,0h1.4c0.1,0,0.2,0,0.3,0.1c0,0.1,0,0.2,0,0.3l-1.2,2.3c0,0.1-0.1,0.1-0.1,0.1v0.1v0.1
				c0,0,0,0.1,0.1,0.1l1.3,2.4c0.1,0.1,0.1,0.2,0,0.3c0,0.1-0.1,0.1-0.3,0.1h-1.4c-0.2,0-0.3,0-0.3,0c-0.1,0-0.1-0.1-0.2-0.3
				L76,41.4c0,0,0,0-0.1,0l0,0h-0.1L75,43.1z"/>
			<path id="XMLID_445_" class="st2" d="M84.6,37.7c-0.1,0.6-0.2,1.2-0.4,1.8c-0.2,0.6-0.4,1.3-0.6,2s-0.5,1.4-0.8,2.1
				c-0.3,0.7-0.6,1.4-1,2c0,0.1-0.1,0.2-0.2,0.2s-0.1,0.1-0.2,0.1s-0.2,0-0.4-0.1l-0.6-0.3c-0.2-0.1-0.3-0.2-0.3-0.3s0-0.1,0.1-0.2
				c0.1-0.1,0.1-0.3,0.2-0.4c0.1-0.1,0.1-0.3,0.2-0.4s0.1-0.3,0.2-0.4c0.1-0.1,0.1-0.2,0.1-0.3c-0.2-0.1-0.3-0.2-0.4-0.3
				s-0.2-0.3-0.4-0.6c-0.1-0.3-0.2-0.6-0.4-1c-0.1-0.4-0.3-0.9-0.4-1.3c-0.1-0.5-0.3-0.9-0.4-1.4s-0.2-0.9-0.3-1.2
				c0-0.2,0.1-0.4,0.4-0.4h1.1c0.1,0,0.2,0,0.3,0.1c0.1,0,0.1,0.1,0.1,0.2c0.1,0.3,0.1,0.7,0.2,1.1s0.2,0.7,0.2,1.1
				c0.1,0.4,0.2,0.7,0.3,1.1c0.1,0.3,0.2,0.7,0.3,1h0.1c0.1-0.3,0.2-0.6,0.3-1s0.2-0.7,0.3-1.1c0.1-0.4,0.2-0.7,0.2-1.1
				c0.1-0.4,0.1-0.7,0.2-0.9c0-0.1,0.1-0.2,0.1-0.3c0.1,0,0.2-0.1,0.3-0.1h1.1c0.1,0,0.2,0,0.3,0.1C84.6,37.5,84.6,37.6,84.6,37.7z"
				/>
			<path id="XMLID_447_" class="st2" d="M90.7,40.8c0,0.3,0,0.6,0,0.8s0,0.5-0.1,0.6c0,0.2-0.1,0.3-0.2,0.5S90.2,43,90,43.1
				c-0.2,0.2-0.5,0.3-0.8,0.3s-0.7,0.1-1.1,0.1h-0.8c-0.1,0-0.3,0-0.3-0.1c-0.1-0.1-0.1-0.2-0.1-0.3v-0.8c0-0.2,0-0.3,0.1-0.4
				s0.2-0.1,0.3-0.1h0.6c0.1,0,0.2,0,0.3,0c0.1,0,0.2,0,0.2-0.1c0.1-0.1,0.1-0.1,0.1-0.3c0-0.1,0-0.3,0-0.6v-4.9
				c0-0.2,0-0.3,0.1-0.3s0.2-0.1,0.4-0.1h1.2c0.2,0,0.3,0,0.4,0.1s0.1,0.1,0.1,0.3C90.7,35.9,90.7,40.8,90.7,40.8z"/>
			<path id="XMLID_449_" class="st2" d="M93.5,40.1c-0.2,0-0.3,0-0.3-0.1s-0.1-0.2-0.1-0.3v-0.8c0-0.1,0-0.3,0.1-0.3
				s0.2-0.1,0.3-0.1h0.4c0.5,0,0.9-0.1,1.1-0.2c0.1-0.1,0.2-0.3,0.2-0.6v-0.1c0-0.2-0.1-0.4-0.2-0.5S94.7,37,94.4,37h-0.1
				c-0.2,0-0.5,0-0.7,0.1c-0.3,0.1-0.6,0.2-1,0.3c-0.1,0-0.2,0-0.3,0c-0.1,0-0.1-0.1-0.1-0.2L92,36.3v-0.1v-0.1c0-0.1,0-0.1,0.1-0.2
				s0.1-0.1,0.2-0.1c0.1-0.1,0.3-0.1,0.5-0.2c0.2-0.1,0.4-0.1,0.6-0.1s0.4-0.1,0.6-0.1s0.4,0,0.6,0h0.1c0.8,0,1.5,0.2,1.9,0.5
				s0.6,0.8,0.6,1.5v0.1c0,0.4-0.1,0.8-0.2,1.1c-0.2,0.3-0.4,0.5-0.8,0.6l0,0c0.4,0.1,0.7,0.3,1,0.6c0.2,0.3,0.3,0.7,0.3,1.2v0.2
				c0,0.8-0.3,1.4-0.8,1.8c-0.5,0.4-1.3,0.6-2.3,0.6h-0.1c-0.2,0-0.4,0-0.7,0c-0.2,0-0.4,0-0.7-0.1s-0.4-0.1-0.6-0.1
				s-0.4-0.1-0.5-0.1c-0.2-0.1-0.3-0.2-0.3-0.3c0,0,0-0.1,0-0.2c0-0.1,0-0.1,0.1-0.2l0.2-0.6c0-0.1,0.1-0.2,0.1-0.2
				c0.1,0,0.2,0,0.3,0c0.3,0.1,0.7,0.2,1,0.2c0.3,0.1,0.6,0.1,0.9,0.1l0,0c0.4,0,0.7-0.1,0.9-0.2s0.3-0.4,0.3-0.7v-0.1
				c0-0.3-0.1-0.5-0.3-0.7s-0.5-0.2-0.9-0.2h-0.6V40.1z"/>
		</g>
		<g>
			<path class="st3" d="M14.4,43.5c-0.4-0.1-0.5-0.4-0.5-0.7c0-0.1,0-0.3,0.1-0.6l0.5-2c0.1-0.3,0.2-0.5,0.4-0.6
				c0.2-0.1,0.4-0.1,0.7,0c0.5,0.2,1.2,0.3,1.9,0.5c0.7,0.1,1.4,0.2,2.1,0.2h0.1c1.2,0,2-0.3,2.5-1c0.5-0.7,0.8-1.6,0.8-2.8
				c-0.5,0.2-1.1,0.4-1.7,0.5c-0.6,0.1-1.2,0.2-1.8,0.2h-0.4c-2.3,0-4-0.6-4.9-1.7c-1-1.2-1.5-2.9-1.5-5.1v-0.4c0-2,0.6-3.6,1.8-4.9
				c1.2-1.2,3-1.8,5.5-1.8h0.4c1.5,0,2.7,0.2,3.7,0.6s1.8,0.9,2.4,1.7c0.6,0.8,1,1.8,1.3,3c0.3,1.2,0.4,2.6,0.4,4.3v0.8
				c0,2.3-0.2,4.2-0.7,5.7s-1.1,2.6-1.9,3.3C25,43.3,24,43.8,23,44.1c-1,0.3-2.1,0.4-3.3,0.4h0c-0.9,0-1.9-0.1-2.9-0.3
				C15.8,44,15,43.8,14.4,43.5z M20.4,32.8c1,0,1.9-0.2,2.6-0.6v-0.4c0-0.9,0-1.6-0.1-2.2c-0.1-0.6-0.2-1-0.4-1.4
				c-0.2-0.3-0.4-0.6-0.8-0.7c-0.3-0.1-0.7-0.2-1.2-0.2h-0.3c-0.7,0-1.3,0.2-1.8,0.6c-0.4,0.4-0.6,1.1-0.6,2v0.3c0,1,0.2,1.6,0.6,2
				c0.4,0.4,1,0.6,1.7,0.6H20.4z"/>
			<path class="st3" d="M47.4,35.2c0,1.4-0.1,2.7-0.4,3.8c-0.3,1.1-0.7,2.1-1.4,2.9c-0.6,0.8-1.5,1.4-2.5,1.9s-2.3,0.7-3.9,0.7
				c-1.5,0-2.8-0.2-3.9-0.7c-1.1-0.4-1.9-1.1-2.5-1.9c-0.6-0.8-1.1-1.8-1.4-2.9c-0.3-1.1-0.4-2.4-0.4-3.8v-2.8
				c0-1.4,0.1-2.7,0.4-3.8c0.3-1.1,0.7-2.1,1.4-2.9c0.6-0.8,1.5-1.4,2.5-1.9c1.1-0.4,2.4-0.7,3.9-0.7c1.6,0,2.9,0.2,3.9,0.7
				c1,0.4,1.9,1.1,2.5,1.9c0.6,0.8,1.1,1.8,1.4,2.9c0.3,1.1,0.4,2.4,0.4,3.8V35.2z M41.9,33c0-1,0-1.8-0.1-2.5
				c-0.1-0.7-0.2-1.3-0.4-1.7c-0.2-0.4-0.5-0.8-0.8-1c-0.4-0.2-0.8-0.3-1.4-0.3h-0.1c-0.6,0-1.1,0.1-1.4,0.3c-0.4,0.2-0.6,0.5-0.8,1
				c-0.2,0.4-0.3,1-0.4,1.7c-0.1,0.7-0.1,1.5-0.1,2.5v1.7c0,1,0,1.8,0.1,2.5c0.1,0.7,0.2,1.2,0.4,1.7c0.2,0.4,0.5,0.8,0.8,1
				c0.4,0.2,0.8,0.3,1.4,0.3h0.1c0.6,0,1.1-0.1,1.4-0.3c0.4-0.2,0.6-0.5,0.8-1c0.2-0.4,0.3-1,0.4-1.7c0.1-0.7,0.1-1.5,0.1-2.5V33z"
				/>
		</g>
	</g>
</g>
</svg>
