<?xml version="1.0" encoding="utf-8"?>
<!-- Generator: Adobe Illustrator 19.0.0, SVG Export Plug-In . SVG Version: 6.00 Build 0)  -->
<svg version="1.1" id="Layer_1" xmlns="http://www.w3.org/2000/svg" xmlns:xlink="http://www.w3.org/1999/xlink" x="0px" y="0px"
	 width="71px" height="7.4px" viewBox="0 0 71 7.4" style="enable-background:new 0 0 71 7.4;" xml:space="preserve">
<style type="text/css">
	.st0{fill:#002DBB;}
</style>
<g id="XMLID_70_">
	<path id="XMLID_71_" class="st0" d="M1.8,4.2c0,0-0.1,0.1-0.1,0.2L0.9,5.8H0l1.3-2L0.1,1.8h0.9L1.7,3c0.1,0.1,0.1,0.2,0.1,0.2h0
		c0,0,0.1-0.1,0.1-0.2l0.7-1.2h0.9L2.3,3.7l1.3,2H2.7L1.9,4.4C1.9,4.4,1.8,4.2,1.8,4.2L1.8,4.2z"/>
	<path id="XMLID_73_" class="st0" d="M4.3,0.3H5v4.3C5,5,5.2,5.1,5.5,5.1c0.1,0,0.1,0,0.1,0v0.7c0,0-0.1,0-0.2,0
		c-0.4,0-1.1-0.1-1.1-1.1V0.3z"/>
	<path id="XMLID_105_" class="st0" d="M6.4,5h0.8v0.8H6.4V5z"/>
	<path id="XMLID_107_" class="st0" d="M10.2,1.7c1,0,1.5,0.6,1.5,0.6l-0.4,0.5c0,0-0.4-0.4-1.1-0.4C9.4,2.4,8.8,3,8.8,3.8
		c0,0.8,0.6,1.4,1.4,1.4c0.7,0,1.2-0.5,1.2-0.5l0.3,0.5c0,0-0.5,0.6-1.6,0.6c-1.2,0-2.1-0.9-2.1-2C8.1,2.6,8.9,1.7,10.2,1.7z"/>
	<path id="XMLID_109_" class="st0" d="M14.4,1.7c1.2,0,2.1,0.9,2.1,2c0,1.2-0.9,2.1-2.1,2.1c-1.2,0-2.1-0.9-2.1-2.1
		C12.3,2.6,13.2,1.7,14.4,1.7z M14.4,5.2c0.7,0,1.3-0.6,1.3-1.4c0-0.8-0.6-1.4-1.3-1.4c-0.7,0-1.3,0.6-1.3,1.4
		C13.1,4.6,13.7,5.2,14.4,5.2z"/>
	<path id="XMLID_113_" class="st0" d="M17.4,5h0.8v0.8h-0.8V5z"/>
	<path id="XMLID_115_" class="st0" d="M19.4,0.3h0.8v0.8h-0.8V0.3z M19.4,1.8h0.8v3.9h-0.8V1.8z"/>
	<path id="XMLID_118_" class="st0" d="M22.8,1.7c0.9,0,1.2,0.6,1.2,0.6h0c0,0,0-0.1,0-0.3V0.3h0.8v5.5h-0.7V5.4c0-0.2,0-0.3,0-0.3h0
		c0,0-0.3,0.7-1.3,0.7c-1.1,0-1.7-0.8-1.7-2C21,2.6,21.8,1.7,22.8,1.7z M22.9,5.2c0.6,0,1.1-0.4,1.1-1.4c0-0.7-0.4-1.4-1.1-1.4
		c-0.6,0-1.1,0.5-1.1,1.4C21.8,4.6,22.3,5.2,22.9,5.2z"/>
	<path id="XMLID_147_" class="st0" d="M27.6,0h0.7l-2,6.1h-0.7L27.6,0z"/>
	<path id="XMLID_149_" class="st0" d="M30.4,4.2c0,0-0.1,0.1-0.1,0.2l-0.8,1.3h-0.9l1.3-2l-1.3-1.9h0.9L30.3,3
		c0.1,0.1,0.1,0.2,0.1,0.2h0c0,0,0.1-0.1,0.1-0.2l0.7-1.2h0.9l-1.3,1.9l1.3,2h-0.9l-0.8-1.3C30.5,4.4,30.5,4.2,30.4,4.2L30.4,4.2z"
		/>
	<path id="XMLID_151_" class="st0" d="M33.2,2.5h-0.5V1.9h0.5V0.8h0.7v1.1h0.9v0.6h-0.9v1.7c0,0.8,0.5,0.9,0.8,0.9
		c0.1,0,0.2,0,0.2,0v0.7c0,0-0.1,0-0.3,0c-0.5,0-1.5-0.2-1.5-1.5V2.5z"/>
	<path id="XMLID_153_" class="st0" d="M35.8,1.8h0.7v0.7c0,0.2,0,0.3,0,0.3h0c0.2-0.6,0.6-1,1.2-1c0.1,0,0.2,0,0.2,0v0.7
		c0,0-0.1,0-0.2,0c-0.5,0-0.9,0.3-1.1,0.9c-0.1,0.2-0.1,0.5-0.1,0.7v1.6h-0.8V1.8z"/>
	<path id="XMLID_155_" class="st0" d="M40.7,3.3h0.2V3.2c0-0.6-0.4-0.9-0.9-0.9c-0.6,0-1.1,0.4-1.1,0.4l-0.3-0.5
		c0,0,0.6-0.5,1.5-0.5c1,0,1.5,0.5,1.5,1.5v2.5h-0.7V5.4c0-0.2,0-0.3,0-0.3h0c0,0-0.3,0.8-1.3,0.8c-0.7,0-1.3-0.4-1.3-1.2
		C38.3,3.4,40,3.3,40.7,3.3z M39.8,5.2c0.6,0,1-0.7,1-1.2V3.9h-0.2c-0.6,0-1.6,0-1.6,0.7C39.1,4.9,39.4,5.2,39.8,5.2z"/>
	<path id="XMLID_158_" class="st0" d="M42.2,1.8H43l1,2.6C44,4.7,44.1,5,44.1,5h0c0,0,0.1-0.3,0.1-0.5l1-2.6H46l-1.4,3.9h-0.9
		L42.2,1.8z"/>
	<path id="XMLID_160_" class="st0" d="M48.7,3.3h0.2V3.2c0-0.6-0.4-0.9-0.9-0.9c-0.6,0-1.1,0.4-1.1,0.4l-0.3-0.5
		c0,0,0.6-0.5,1.5-0.5c1,0,1.5,0.5,1.5,1.5v2.5h-0.7V5.4c0-0.2,0-0.3,0-0.3h0c0,0-0.3,0.8-1.3,0.8c-0.7,0-1.3-0.4-1.3-1.2
		C46.3,3.4,48,3.3,48.7,3.3z M47.8,5.2c0.6,0,1-0.7,1-1.2V3.9h-0.2c-0.6,0-1.6,0-1.6,0.7C47.1,4.9,47.3,5.2,47.8,5.2z"/>
	<path id="XMLID_163_" class="st0" d="M52.1,6.7c0.7,0,1.2-0.3,1.2-1.1V5.3c0-0.1,0-0.2,0-0.2h0c-0.2,0.4-0.6,0.6-1.2,0.6
		c-1.1,0-1.7-0.9-1.7-2c0-1.1,0.6-2,1.7-2c0.9,0,1.2,0.6,1.2,0.6h0c0,0,0-0.1,0-0.1V1.8h0.7v3.7c0,1.3-1,1.8-2,1.8
		c-0.5,0-1-0.1-1.3-0.3l0.2-0.6C51.1,6.5,51.5,6.7,52.1,6.7z M53.4,3.7c0-1-0.5-1.3-1.1-1.3c-0.7,0-1.1,0.5-1.1,1.3
		c0,0.8,0.4,1.4,1.1,1.4C52.9,5.1,53.4,4.7,53.4,3.7z"/>
	<path id="XMLID_205_" class="st0" d="M57.3,3.3h0.2V3.2c0-0.6-0.4-0.9-0.9-0.9c-0.6,0-1.1,0.4-1.1,0.4l-0.3-0.5
		c0,0,0.6-0.5,1.5-0.5c1,0,1.5,0.5,1.5,1.5v2.5h-0.7V5.4c0-0.2,0-0.3,0-0.3h0c0,0-0.3,0.8-1.3,0.8c-0.7,0-1.3-0.4-1.3-1.2
		C55,3.4,56.7,3.3,57.3,3.3z M56.5,5.2c0.6,0,1-0.7,1-1.2V3.9h-0.2c-0.6,0-1.6,0-1.6,0.7C55.7,4.9,56,5.2,56.5,5.2z"/>
	<path id="XMLID_208_" class="st0" d="M59.4,1.8h0.7v0.5c0,0.2,0,0.3,0,0.3h0c0.2-0.3,0.6-0.9,1.5-0.9c0.9,0,1.3,0.5,1.3,1.5v2.5
		h-0.8V3.4c0-0.5-0.1-1-0.7-1c-0.6,0-1.1,0.4-1.2,1c0,0.2-0.1,0.3-0.1,0.5v1.8h-0.8V1.8z"/>
	<path id="XMLID_210_" class="st0" d="M63.8,5.3l2-2.5c0.2-0.2,0.3-0.4,0.3-0.4v0c0,0-0.1,0-0.4,0h-1.8V1.8h3.2v0.4l-2,2.5
		c-0.2,0.2-0.3,0.4-0.3,0.4v0c0,0,0.1,0,0.4,0h2v0.6h-3.4V5.3z"/>
	<path id="XMLID_212_" class="st0" d="M70.1,3.3h0.2V3.2c0-0.6-0.4-0.9-0.9-0.9c-0.6,0-1.1,0.4-1.1,0.4L68,2.2c0,0,0.6-0.5,1.5-0.5
		c1,0,1.5,0.5,1.5,1.5v2.5h-0.7V5.4c0-0.2,0-0.3,0-0.3h0c0,0-0.3,0.8-1.3,0.8c-0.7,0-1.3-0.4-1.3-1.2C67.7,3.4,69.4,3.3,70.1,3.3z
		 M69.2,5.2c0.6,0,1-0.7,1-1.2V3.9h-0.2c-0.6,0-1.6,0-1.6,0.7C68.5,4.9,68.7,5.2,69.2,5.2z"/>
</g>
</svg>
